SplineFontDB: 2.0
FontName: MScore-20
FullName: Emmentaler 20 from Lilypond
FamilyName: MScore
Weight: 20
Copyright: This font is distributed under the GNU General Public License. As a special exception, if you create a document which uses this font, and embed this font or unaltered portions of this font into the document, this font does not by itself cause the resulting document to be covered by the GNU General Public License.
Version: @TOPLEVEL_VERSION@
ItalicAngle: 0
UnderlinePosition: -98
UnderlineWidth: 48
Ascent: 600
Descent: 400
XUID: [1021 437 116440368 12789440]
UniqueID: 4131153
FSType: 0
OS2Version: 2
OS2_WeightWidthSlopeOnly: 0
OS2_UseTypoMetrics: 1
CreationTime: 1122244955
ModificationTime: 1195728004
PfmFamily: 17
TTFWeight: 400
TTFWidth: 5
LineGap: 90
VLineGap: 0
Panose: 2 0 5 3 0 0 0 0 0 0
OS2TypoAscent: 0
OS2TypoAOffset: 1
OS2TypoDescent: 0
OS2TypoDOffset: 1
OS2TypoLinegap: 90
OS2WinAscent: 0
OS2WinAOffset: 1
OS2WinDescent: 0
OS2WinDOffset: 1
HheadAscent: 0
HheadAOffset: 1
HheadDescent: 0
HheadDOffset: 1
OS2SubXSize: 650
OS2SubYSize: 700
OS2SubXOff: 0
OS2SubYOff: 140
OS2SupXSize: 650
OS2SupYSize: 700
OS2SupXOff: 0
OS2SupYOff: 480
OS2StrikeYSize: 48
OS2StrikeYPos: 258
OS2Vendor: 'PfEd'
LangName: 1033 
Encoding: UnicodeBmp
UnicodeInterp: none
NameList: Adobe Glyph List
DisplaySize: -96
AntiAlias: 1
FitToEm: 1
WinInfo: 57688 8 8
BeginPrivate: 8
BlueValues 30 [-4 0 266 292 472 472 500 500]
OtherBlues 11 [-146 -146]
BlueScale 8 0.039625
BlueShift 2 16
BlueFuzz 1 2
StdHW 4 [72]
StdVW 4 [28]
ExpansionFactor 4 0.06
EndPrivate
TeXData: 1 0 0 262144 131072 87381 276824 1048576 87381 783286 444596 497025 792723 393216 433062 380633 303038 157286 324010 404750 52429 2506097 1059062 262144
BeginChars: 65537 381
StartChar: plus
Encoding: 43 43 2
Width: 250
GlyphClass: 2
Flags: HMW
HStem: 224 52<38 100 60 100 152 190>
VStem: 100 52<184 224 162 224 276 316>
Fore
100 358 m 1
 108.082 366.082 104.48 368.24 116 374 c 1
 117.716 374.343 119.549 374.51 121.44 374.51 c 0
 130.569 374.51 141.029 370.627 146 364 c 1
 152 360 152 356 152 316 c 2
 152 276 l 1
 190 276 l 2
 232 276 234 276 240 272 c 1
 242 268 244 266 248 264 c 1
 248 260 250 256 250 252 c 0
 250 244 248 242 248 238 c 1
 244 236 242 232 240 230 c 0
 234 224 232 224 190 224 c 2
 152 224 l 1
 152 184 l 2
 152 142 152 140 146 136 c 1
 144 132 140 130 138 128 c 1
 134 126 132 126 126 126 c 0
 120 126 116 126 112 128 c 1
 104 136 l 2
 100 140 100 142 100 184 c 2
 100 224 l 1
 60 224 l 2
 16 224 16 224 10 230 c 0
 8 232 4 236 4 238 c 1
 0 242 0 244 0 252 c 0
 0 256 0 260 4 264 c 1
 4 266 8 268 10 272 c 1
 16 276 16 276 60 276 c 2
 100 276 l 1
 100 358 l 1
EndSplineSet
EndChar
StartChar: comma
Encoding: 44 44 3
Width: 112
GlyphClass: 2
Flags: HMW
HStem: -156 272
VStem: 2 114
Fore
60 116 m 0
 112.236 109.471 116 65.1348 116 36 c 0
 109.372 -50.1648 57.2946 -153.353 52 -156 c 0
 50.165 -156.734 48.1952 -157.064 46.202 -157.064 c 0
 37.3333 -157.064 28 -150.532 28 -144 c 0
 28 -142 32 -136 32 -132 c 1
 34 -128 40 -116 44 -104 c 0
 59.1 -72.2899 66.2197 -49.7003 66.2197 -33.6489 c 0
 66.2197 -28.4402 65.47 -23.92 64 -20 c 0
 60 -8 56 -4 38 4 c 0
 26 8 24 12 16 16 c 1
 10 24 6 32 2 40 c 1
 1.17157 43.3137 0.686292 48.3431 0.686292 53.8091 c 0
 0.686292 61.5391 1.65685 70.1421 4 76 c 0
 10 96 26 108 48 114 c 1
 48 116 56 116 60 116 c 0
EndSplineSet
EndChar
StartChar: hyphen
Encoding: 45 45 4
Width: 165
GlyphClass: 2
Flags: HMW
HStem: 152 28<50 84 84 124>
VStem: 0 164<164 170>
Fore
84 152 m 0
 64.4771 152 49.3148 151.704 37.598 151.704 c 0
 7.21374 151.704 -2.54313e-06 153.695 0 168 c 0
 0 172 4 176 8 180 c 1
 84 180 l 2
 164 180 160 180 164 176 c 0
 166 174 167 170.5 167 167 c 0
 167 163.5 166 160 164 158 c 1
 160 152 164 152 84 152 c 0
EndSplineSet
EndChar
StartChar: period
Encoding: 46 46 5
Width: 112
GlyphClass: 2
Flags: HMW
HStem: 2 110
VStem: 2 110
Fore
16 98 m 1
 24.9046 106.905 41.2149 114.199 58.5243 114.199 c 0
 72.0983 114.199 86.2867 109.713 98 98 c 0
 109.713 86.2867 114.199 72.0983 114.199 58.5243 c 0
 114.199 41.2149 106.905 24.9046 98 16 c 1
 94.3228 11.097 79.7028 0.0864768 59.0537 0.0864768 c 0
 46.5497 0.0864768 31.8347 4.12396 16 16 c 1
 4.12395 31.8347 0.0864762 46.5497 0.0864762 59.0537 c 0
 0.0864762 79.7028 11.097 94.3228 16 98 c 1
EndSplineSet
EndChar
StartChar: zero
Encoding: 48 48 6
Width: 365
GlyphClass: 2
Flags: HMW
HStem: 0 42G<174 194> 460 40G<164 188 188 200>
VStem: 2 114<215 288> 250 116
Fore
188 500 m 2
 294.409 500 366 385.746 366 250 c 0
 366 115.423 302.805 50.6985 272 28 c 0
 252.366 14.9109 221.526 0 184 0 c 0
 147.418 0 25.4602 19.6267 2 212 c 0
 0.827481 221.38 0.118515 232.84 0.118515 245.699 c 0
 0.118515 288.073 7.81797 345.636 32 394 c 0
 62 454 108 492 164 500 c 1
 188 500 l 2
196 468 m 1
 192 470 187.5 471 183 471 c 0
 178.5 471 174 470 170 468 c 1
 119.123 456.259 115.935 364.342 115.935 294.409 c 0
 115.935 284.388 116 274.818 116 266 c 0
 116 250.628 115.901 235.146 115.901 219.855 c 0
 115.901 143.37 118.37 71.6302 148 42 c 0
 158 33 171 28.5 183.75 28.5 c 0
 196.5 28.5 209 33 218 42 c 0
 242.307 62.8348 246.246 111.202 250 160 c 0
 250.828 173.255 251.314 207.098 251.314 243.337 c 0
 251.314 294.587 250.343 350.627 248 360 c 1
 244 428 228 462 196 468 c 1
EndSplineSet
EndChar
StartChar: one
Encoding: 49 49 7
Width: 316
GlyphClass: 2
Flags: HMW
VStem: 116 116<241 302 302 368 368 368>
Fore
92 378 m 1
 92 373.5 24 238.5 24 234 c 1
 20.8319 230.832 16.8609 229.47 12.9772 229.47 c 0
 4.60221 229.47 -3.36638 235.802 -2 244 c 1
 -1.87381 244.252 110.569 492.569 120 502 c 0
 120.667 502.667 121.556 503.111 123.111 503.111 c 0
 126.222 503.111 132 501.333 144 496 c 0
 156 490 165 487 174.5 487 c 0
 184 487 194 490 208 496 c 1
 212 500 220 500 220 500 c 1
 224 500 228 496 232 492 c 1
 232 302 l 2
 232 180 232 112 234 104 c 0
 239.444 52.2784 274.8 24 302 24 c 0
 313.872 24 318.061 17.926 318.061 12.1187 c 0
 318.061 7.55634 315.476 3.1586 312 2 c 0
 309.295 1.09824 305.815 0.71734 301.609 0.71734 c 0
 278.718 0.71734 234.302 12 176 12 c 0
 116.932 12 71.9126 0.687896 48.6502 0.687896 c 0
 44.3351 0.687896 40.7686 1.07713 38 2 c 0
 32 4 30 12 34 18 c 0
 36 22 38 24 48 24 c 0
 82.2578 24 111.266 59.0298 116 104 c 2
 116 368 l 1
 112 380 100 384 92 378 c 1
EndSplineSet
EndChar
StartChar: two
Encoding: 50 50 8
Width: 365
GlyphClass: 2
Flags: HMW
HStem: 0 42G<222 238>
VStem: 0 368
Fore
116 440 m 2
 116 410.506 148 402.778 148 370 c 0
 148 352 142 336 128 324 c 1
 118.884 311.845 100.726 303.807 81.0755 303.807 c 0
 64.2293 303.807 46.2855 309.714 32 324 c 0
 26 330 24 334 20 340 c 1
 14.9017 352.746 12.5071 365.438 12.5071 377.784 c 0
 12.5071 438.123 69.6973 490.212 148 500 c 0
 180.553 500 228.149 499.911 268 476 c 0
 306.246 457.788 352 417.603 352 354 c 0
 352 249.627 288.164 214.466 142 156 c 0
 124 148 104 136 104 136 c 1
 114 136 l 1
 118.358 137.743 124.699 138.751 132.557 138.751 c 0
 156.188 138.751 193.545 129.636 232 104 c 0
 253.552 87.8361 277.787 77.7917 298.722 77.7917 c 0
 307.963 77.7917 316.56 79.7486 324 84 c 1
 348.558 92.186 336.8 116 356 116 c 0
 360 116 368 112 368 106 c 0
 368 95.533 339.396 19.5041 258 4 c 1
 250 0 244 0 232 0 c 0
 137.405 0 145.002 60.2998 88 66 c 0
 86.1425 66.2064 84.285 66.3063 82.4341 66.3063 c 0
 66.3489 66.3063 50.7617 58.7617 40 48 c 0
 32 40 28 28 24 16 c 1
 22 4 20 4 16 0 c 1
 15.0557 -0.472136 13.8885 -0.72136 12.6037 -0.72136 c 0
 8.44582 -0.72136 3.05573 1.88854 0 8 c 1
 -2.14864 14.4459 2.18021 79.2433 68 140 c 0
 171.688 217.766 217.901 247.503 232 318 c 0
 234.638 331.849 236.031 346.716 236.031 361.592 c 0
 236.031 418.851 215.389 476.239 165.643 476.239 c 0
 163.802 476.239 161.921 476.16 160 476 c 0
 140 476 124 468 116 454 c 1
 116 440 l 2
EndSplineSet
EndChar
StartChar: three
Encoding: 51 51 9
Width: 330
GlyphClass: 2
Flags: HMW
HStem: 0 24<164 164> 250 30<126 146> 476 24<128 168>
VStem: 216 100<368 408> 216 116<118 134 118 192 118 192>
Fore
128 500 m 0xf0
 131.214 500 135.44 500.053 140.468 500.053 c 0
 182.308 500.053 279.607 496.385 310 428 c 0
 316 412 316 404 316 380 c 0xf0
 316 377.317 316.071 373.878 316.071 369.9 c 0
 316.071 346.602 313.62 304.81 280 288 c 0
 267.538 283.015 262.481 273.036 262.481 264.041 c 0
 262.481 257.306 265.316 251.123 270 248 c 1
 274.046 239.907 303.7 236.675 320 200 c 0
 328.333 183.333 332.5 166.667 332.5 146.528 c 0
 332.5 142.5 332.333 138.333 332 134 c 0
 332 47.3825 251.564 3.12729 164 0 c 0
 108 0 60 16 28 44 c 1
 12.5057 64.659 0 84.8 0 112 c 0
 0 150.452 30.5075 170.003 44 176 c 1
 52 178 56 178 66 178 c 0
 118.8 178 129.868 131.859 132 118 c 1
 132 91.8597 96.0074 76 96 76 c 1
 92.3325 70.8655 90.5481 65.193 90.5481 59.5744 c 0
 90.5481 49.873 95.868 40.3325 106 34 c 0
 116.383 26.5834 135.567 22.4672 151.314 22.4672 c 0
 156.799 22.4672 161.867 22.9666 166 24 c 0
 194 32 210 62 216 116 c 2xe8
 216 192 l 2
 209.883 247.057 192.618 250.044 146.256 250.044 c 0
 140.612 250.044 134.538 250 128 250 c 0
 80 250 80 250 76 256 c 1
 72 260 72 268 76 272 c 1
 78 280 78 280 126 280 c 2
 176 280 l 1
 213.895 287.579 216 306.831 216 408 c 0
 210 456 188 476 148 476 c 0
 126.287 476 92 468.331 92 444 c 0
 92 427.2 93.8376 433.282 114 416 c 1
 118 414 122 410 124 408 c 1
 126 404 126 402 126 394 c 0
 126 357.837 93.4172 338.821 64.2377 338.821 c 0
 60.0531 338.821 55.9385 339.212 52 340 c 1
 15.1994 356.356 11.8308 383.88 11.8308 394.076 c 0
 11.8308 478.815 111.234 497.317 128 500 c 0xf0
EndSplineSet
EndChar
StartChar: four
Encoding: 52 52 10
Width: 398
GlyphClass: 2
Flags: HMW
HStem: 124 30<66 108 108 112 112 196 312 352>
VStem: 196 116<120 124 116 124 154 224 224 260> 292 20
Fore
140 494 m 1xc0
 143.563 497.563 147.159 498.884 151.497 498.884 c 0
 163.95 498.884 182.52 488 224 488 c 2
 252 488 l 1
 264 492 292 498 296 500 c 0
 297.468 500.734 299.071 501.064 300.709 501.064 c 0
 308 501.064 316 494.532 316 488 c 1
 172 320 l 2
 94 228 30 156 30 154 c 1
 196 154 l 1
 196 224 l 2xc0
 196 296 196 296 200 300 c 2
 200 318.448 251.758 315.395 284 396 c 2
 288 402 292 408 292 410 c 1
 296 412 304 414 308 412 c 1
 312 408 312 416 312 278 c 2xa0
 312 154 l 1
 352 154 l 2
 358.585 154 364.757 154.147 370.338 154.147 c 0
 388.185 154.147 400 152.641 400 140 c 0
 400 132 396 128 392 128 c 2
 388 124 384 124 352 124 c 2
 312 124 l 1
 312 120 l 2
 312 76.3803 335.558 26.9628 380 24 c 0
 393.622 24 397.661 18.5622 397.661 13.0573 c 0
 397.661 8.1764 394.486 3.24275 392 2 c 1
 389.333 1.33333 385.556 0.888889 380 0.888889 c 0
 368.889 0.888889 350.667 2.66667 320 8 c 0
 289 12 271.5 14 254 14 c 0
 236.5 14 219 12 188 8 c 0
 157.333 2.66667 139.111 0.888889 128 0.888889 c 0
 122.444 0.888889 118.667 1.33333 116 2 c 1
 112 4 108 12 112 18 c 1
 116 22 116 24 128 24 c 0
 168 24 196 74.7978 196 120 c 2
 196 124 l 1
 108 124 l 2
 95.6661 124 84.4704 123.936 74.3632 123.936 c 0
 21.0232 123.936 -2 125.712 -2 148 c 0
 -2 163.656 130.645 277.421 138 476 c 0
 140 490 140 492 140 494 c 1xc0
EndSplineSet
EndChar
StartChar: five
Encoding: 53 53 11
Width: 335
GlyphClass: 2
Flags: HMW
HStem: 2 22 292 28<142 204 168 176> 460 40G<41 42 328 330>
VStem: 28 30 232 116
Fore
28 488 m 1
 33.4 493.4 36 496 36 498 c 1
 40 500 40 500 42 500 c 0
 55.9314 500 99.6186 487.328 177.451 487.328 c 0
 213.498 487.328 256.869 490.046 308 498 c 0
 318 500 326 500 328 500 c 0
 332 500 338 494 340 490 c 1
 340 486 338 484 328 474 c 0
 254.078 408.948 154.06 390 74 390 c 0
 59.7092 390 57.6819 377.224 57.6819 356.341 c 0
 57.6819 348.069 58 338.525 58 328 c 2
 58 278 l 1
 87.9026 300.427 106.245 320 168 320 c 2
 204 320 l 2
 292 308 340 262 348 180 c 0
 348.763 173.893 349.126 167.895 349.126 162.018 c 0
 349.126 117.943 328.726 80.7261 304 56 c 0
 266.024 18.0242 211.404 0.912086 158.909 0.912086 c 0
 76.8588 0.912086 1.27157e-06 42.7164 0 112 c 0
 0 150.452 30.5075 170.003 44 176 c 1
 52 178 56 178 66 178 c 0
 118.8 178 129.868 131.859 132 118 c 1
 132 86.7494 89.9412 81.3219 89.9412 59.0473 c 0
 89.9412 53.813 92.2636 47.6485 98 40 c 1
 108 30 132 24 160 24 c 0
 218.201 24 232 86.0806 232 172 c 0
 230 242 212 282 176 292 c 1
 156 292 l 2
 123.008 292 79.2 280.8 60 252 c 0
 54 244 52 244 48 242 c 1
 40 240 32 244 30 250 c 1
 28 252 28 272 28 370 c 2
 28 488 l 1
EndSplineSet
EndChar
StartChar: six
Encoding: 54 54 12
Width: 338
GlyphClass: 2
Flags: HMW
HStem: 0 42G<162 180> 256 22 476 24<175 188 188 192>
VStem: 232 108<129 152 129 160>
Fore
176 278 m 0
 321 278 340 187.673 340 140 c 0
 340 57.2 287.664 13.4087 204 2 c 1
 200 0 186 0 174 0 c 0
 58.9895 0 0.5979 120.035 0.5979 242.334 c 0
 0.5979 358.44 53.2263 476.587 160 496 c 1
 166 498 172 500 174 500 c 2
 188 500 l 2
 260.724 500 328 459.2 328 398 c 0
 328 370.575 310.405 332 264 332 c 0
 208.778 332 198 378.43 198 394 c 0
 198 404 198 404 200 408 c 1
 208 416 l 1
 212 418 218 422 222 424 c 1
 226 428 232 432 232 436 c 1
 236 440 236 440 236 446 c 0
 236 461.577 219.518 470.241 216 472 c 0
 208 476 198 476 186 476 c 0
 133.891 476 115.702 431.823 115.702 334.654 c 0
 115.702 327.4 115.804 319.849 116 312 c 2
 116 266 l 1
 126 270 l 2
 147.673 277.224 156.637 278.084 166.316 278.084 c 0
 169.338 278.084 172.43 278 176 278 c 0
184 256 m 0
 181 256.5 177.75 256.75 174.375 256.75 c 0
 164.25 256.75 153 254.5 144 250 c 0
 128 242 120 224 118 192 c 0
 117 184 116.5 162 116.5 140 c 0
 116.5 118 117 96 118 88 c 0
 120 62 124 48 134 36 c 0
 142.318 27.6825 156.283 22.8946 170.862 22.8946 c 0
 180.823 22.8946 191.07 25.1293 200 30 c 0
 213.92 36.96 232 58.0185 232 140 c 0
 232 180 230 192 224 210 c 1
 220 236 206 250 184 256 c 0
EndSplineSet
EndChar
StartChar: seven
Encoding: 55 55 13
Width: 365
GlyphClass: 2
Flags: HMW
HStem: -4 42G<36 40 194 198> 460 40G<351 358>
VStem: 0 28<258 432>
Fore
16 252 m 0
 1.74256 252 -0.385126 252.632 -0.385126 295.378 c 0
 -0.385126 313.564 -2.98023e-08 339.374 0 376 c 0
 0 490 0 492 4 494 c 1
 4 496 6 496 8 498 c 1
 12 500 20 500 24 496 c 1
 28 494 28 490 28 478 c 0
 28 470 28 468 32 464 c 1
 32 460 40 456 40 456 c 1
 42 456 44 458 48 460 c 1
 68.5098 485.637 95.5922 499.772 125.035 499.772 c 0
 141.529 499.772 158.765 495.336 176 486 c 0
 201.84 473.08 217.177 443.645 253.037 443.645 c 0
 255.275 443.645 257.594 443.759 260 444 c 0
 288 444 314 460 336 488 c 0
 344 500 348 500 354 500 c 0
 362 500 368 492 368 484 c 1
 349.001 446.001 226.428 304.186 200 128 c 1
 200 88 l 2
 200 60 200 50 204 24 c 1
 208 12 208 8 206 6 c 1
 204 0 200 -4 196 -4 c 0
 185.344 -4 162.172 12 116 12 c 0
 113.24 12 110.757 12.0658 108.217 12.0658 c 0
 96.7717 12.0658 84.1876 10.7286 40 -4 c 1
 32 -4 26 4 26 8 c 0
 26 12 36 36 52 68 c 0
 90 144 134 212 216 324 c 2
 248 368 l 1
 248 368 246 368 244 366 c 1
 223.602 355.801 206.386 351.752 191.426 351.752 c 0
 133.723 351.752 109.597 412 66 412 c 1
 34.92 407.56 28 367.702 28 308 c 2
 28 258 l 1
 24 252 20 252 16 252 c 0
EndSplineSet
EndChar
StartChar: eight
Encoding: 56 56 14
Width: 365
GlyphClass: 2
Flags: HMW
HStem: 476 24<164 180>
VStem: 4 356
Fore
164 500 m 0
 224.814 500 281.761 496.239 324 454 c 0
 342.934 436.644 351.909 415.554 351.909 391.712 c 0
 351.909 385.332 351.267 378.755 350 372 c 0
 346 344 328 312 298 280 c 1
 288 272 l 1
 296 266 l 2
 314 256 328 244 340 230 c 0
 361.213 203.796 372.305 173.7 372.305 143.596 c 0
 372.305 125.45 368.274 107.3 360 90 c 0
 336 44 288 12 220 2 c 0
 212 1 198 0.5 184 0.5 c 0
 170 0.5 156 1 148 2 c 0
 108 8 72 24 46 44 c 0
 16.3389 68.9778 0.0816874 106.141 0.0816874 142.173 c 0
 0.0816874 152.304 1.36666 162.344 4 172 c 0
 12 192 26 210 56 240 c 2
 76 260 l 1
 70 264 l 2
 54 276 36 296 28 314 c 0
 19.2324 330.738 14.9118 348.747 14.9118 366.761 c 0
 14.9118 393.947 24.7529 421.144 44 444 c 0
 72 474 112 494 164 500 c 0
258 288 m 1
 260.8 288 308 339.37 308 384 c 0
 308.213 386.342 308.318 388.661 308.318 390.955 c 0
 308.318 431.759 275.019 464.532 222 474 c 0
 208 476 184 476 176 476 c 1
 132.356 465.089 116 434.934 116 410 c 0
 116 361.297 140.888 356.84 200 324 c 0
 230 304 256 290 258 288 c 1
44 134 m 0
 47.7176 85.6712 87.2432 24 182 24 c 0
 183.387 24 184.75 23.9954 186.097 23.9954 c 0
 204.025 23.9954 219.007 24.8057 248 48 c 1
 262.592 64.4159 269.698 84.9904 269.698 104.793 c 0
 269.698 128.418 259.584 150.944 240 164 c 0
 239.183 164.817 108.372 240 106 240 c 0
 104 240 72 208 68 200 c 2
 50 178 44 156 44 134 c 0
EndSplineSet
EndChar
StartChar: nine
Encoding: 57 57 15
Width: 338
GlyphClass: 2
Flags: HMW
HStem: 476 24<148 168 148 184>
VStem: 0 110<348 371>
Fore
164 222 m 0
 19 222 0 312.359 0 360 c 0
 0 444 52.2686 488.954 148 500 c 0
 215.11 500 264.959 488.083 308 402 c 0
 329.325 359.349 339.907 308.114 339.907 256.706 c 0
 339.907 148.196 292.762 38.9206 200 8 c 0
 183.871 2.79696 166.523 0.301085 149.154 0.301085 c 0
 99.7597 0.301085 50.1954 20.4873 28 56 c 0
 13.4156 75.4459 11.8943 92.9161 11.8943 99.3642 c 0
 11.8943 130.382 28.5472 168 78 168 c 0
 125.484 168 142 127.52 142 106 c 0
 142 96 142 96 140 92 c 1
 132 84 l 1
 128 82 122 78 118 76 c 1
 114 72 108 68 108 64 c 1
 104 60 104 60 104 54 c 0
 104 38.4231 120.482 29.7589 124 28 c 0
 132 24 142 24 154 24 c 0
 206.109 24 224.298 68.1773 224.298 165.346 c 0
 224.298 172.6 224.196 180.151 224 188 c 2
 224 234 l 1
 214 230 l 2
 192.327 222.776 183.363 221.916 173.684 221.916 c 0
 170.662 221.916 167.57 222 164 222 c 0
168 476 m 2
 112.605 476 109.971 417.934 109.971 373.482 c 0
 109.971 368.81 110 364.288 110 360 c 0
 110 302.586 116.24 259.92 140 252 c 1
 148.93 247.129 159.177 244.895 169.138 244.895 c 0
 183.717 244.895 197.682 249.682 206 258 c 0
 220.808 272.808 224.095 318.769 224.095 356.656 c 0
 224.095 386.898 222 411.996 222 412 c 0
 220 452 208 470 184 476 c 1
 168 476 l 2
EndSplineSet
EndChar
StartChar: f
Encoding: 102 102 16
Width: 318
GlyphClass: 2
Flags: HMW
HStem: 244 40<70 136 70 136 104 126 264 288 288 292 292 306> 436 36<345 352 352 358>
VStem: -102 58<-128 -99>
Fore
358 436 m 0
 309.909 436 293.081 408.323 268 308 c 1
 268 296 264 284 264 284 c 1
 292 284 l 2
 320 284 324 284 328 280 c 1
 336 276 340 268 336 256 c 1
 336 250 332 248 328 244 c 1
 252 244 l 1
 226 156 l 2
 194 52 188 38 168 -4 c 0
 124 -92 68 -152 16 -168 c 0
 3.45731 -171.859 -8.30806 -173.575 -19.1843 -173.575 c 0
 -70.4824 -173.575 -102 -135.41 -102 -104 c 0
 -102 -74.1335 -88.4842 -39.3937 -70 -32 c 0
 -64.068 -28.7644 -57.6711 -27.2923 -51.2937 -27.2923 c 0
 -28.4112 -27.2923 -5.78013 -46.2436 -5.78013 -70.6781 c 0
 -5.78013 -74.9736 -6.47956 -79.4387 -8 -84 c 1
 -30.861 -106.861 -44 -105.492 -44 -122 c 0
 -44 -132 -40 -136 -24 -136 c 0
 -22.7472 -136 -21.4893 -136.004 -20.2277 -136.004 c 0
 3.45124 -136.004 28.3936 -134.524 44 -76 c 1
 48 -68 68 6 88 90 c 2
 126 244 l 1
 70 244 l 1
 64 248 60 250 60 256 c 1
 56 268 60 276 70 280 c 1
 72 284 80 284 104 284 c 2
 136 284 l 1
 141.289 294.577 157.1 339.581 192 384 c 0
 202.426 394.426 256.532 462.566 332 472 c 2
 352 472 l 2
 378.026 472 436 458 436 402 c 0
 436 359.508 419.77 337.257 404 332 c 1
 397.576 328.496 390.925 326.942 384.452 326.942 c 0
 361.25 326.942 340.331 346.916 340.331 368.676 c 0
 340.331 373.764 341.475 378.949 344 384 c 0
 348.32 392.64 374.818 399.274 380 420 c 1
 380 432 376 434 358 436 c 0
EndSplineSet
EndChar
StartChar: m
Encoding: 109 109 17
Width: 436
GlyphClass: 2
Flags: HMW
HStem: 0 42G<166 180 180 204>
VStem: -40 492
Fore
144 12 m 2
 144 15.4788 199.994 213.983 200 214 c 1
 200 227.629 194.262 232.571 186.573 232.571 c 0
 172.559 232.571 152.063 216.158 148 206 c 0
 146.908 203.815 82.6393 16.6393 80 14 c 1
 76.1785 2.53543 57.465 -0.173042 40.6351 -0.173042 c 0
 25.563 -0.173042 12.0016 1.99922 12 2 c 0
 8 4 4 8 4 12 c 0
 4 14 20 58 38 112 c 0
 63.3165 189.439 69.7823 209.216 69.7823 217.57 c 0
 69.7823 220.435 69.0216 221.957 68 224 c 1
 68 232 64 232 56 232 c 0
 36 232 14 204 -4 156 c 0
 -12 140 -14 136 -22 132 c 0
 -28 128 -36 128 -40 132 c 1
 -42.1534 133.436 -43.2763 135.129 -43.2763 138.004 c 0
 -43.2763 143.141 -39.6932 152.049 -32 170 c 0
 -4 240 44 288 92 298 c 1
 96 298 104 300 108 300 c 1
 117.564 297.609 135.022 298.607 148 264 c 1
 148 256 l 1
 158 264 l 2
 182 288 212 300 232 300 c 1
 251.692 296.062 266.189 285.232 274 254 c 1
 290.877 276.502 324.737 297.925 351.3 297.925 c 0
 355.78 297.925 360.052 297.316 364 296 c 0
 389.935 290.443 412.438 260.863 412.438 232.691 c 0
 412.438 230.447 412.295 228.213 412 226 c 0
 412 218.278 380.191 78.44 376 60 c 1
 376 56 378 52 382 52 c 0
 398.464 52 431.546 90.2446 444.378 90.2446 c 0
 444.962 90.2446 445.504 90.1655 446 90 c 0
 450.325 88.5585 453.61 84 453.61 78.5711 c 0
 453.61 76.4679 453.117 74.2339 452 72 c 0
 448 64 414 36 392 20 c 0
 365.855 2.57003 339.71 -7.10984 319.837 -7.10984 c 0
 307.785 -7.10984 298.04 -3.55002 292 4 c 1
 286 8 284 14 284 24 c 0
 284 55.6625 325.123 181.679 325.123 216.746 c 0
 325.123 219.993 324.77 222.46 324 224 c 1
 322 232 318 232 310 232 c 0
 300 232 284 220 276 208 c 1
 276 207.956 220.015 16.0309 220 16 c 0
 218 12 212 6 208 4 c 1
 204 0 l 1
 180 0 l 2
 152 0 148 0 144 6 c 1
 144 12 l 2
EndSplineSet
EndChar
StartChar: p
Encoding: 112 112 18
Width: 362
GlyphClass: 2
Flags: W
HStem: -8 39.1741<148.305 190> 242.797 48.0948<216.633 251.531>
Fore
190 -8 m 0
 148.222 -8 123.143 12 116 12 c 0
 110 12 104 10 100 8 c 1
 98 4 70 -80 68 -84 c 1
 68 -117.767 111.99 -117.999 112 -118 c 0
 124 -120 128 -132 120 -140 c 1
 117.464 -143.804 116.536 -145.196 112.119 -145.196 c 0
 109.569 -145.196 105.856 -144.732 100 -144 c 0
 64 -142 44 -142 -4 -142 c 0
 -79.3198 -142 -106.72 -144.516 -117.942 -144.516 c 0
 -125.198 -144.516 -125.691 -143.464 -128 -140 c 1
 -130.513 -138.325 -131.623 -135.246 -131.623 -131.939 c 0
 -131.623 -127.351 -129.487 -122.325 -126 -120 c 1
 -117.196 -111.196 -60.8777 -124.878 -32 -96 c 1
 -32 -92 70 204 72 216 c 1
 76 228 76 240 68 242 c 1
 65.5806 243.21 63.035 243.791 60.3878 243.791 c 0
 38.5256 243.791 9.73971 204.175 -12 152 c 2
 -20 136 l 1
 -26.3303 131.78 -33.2172 129.229 -39.1926 129.229 c 0
 -44.5444 129.229 -49.1651 131.275 -52 136 c 0
 -53.0871 137.631 -53.7311 139.114 -53.7311 141.091 c 0
 -53.7311 146.39 -49.108 155.241 -36 180 c 0
 -4 248 28 282 68 292 c 1
 93.5801 292 122.72 290.56 140 256 c 1
 144 252 144 246 146 244 c 1
 146 240 148 240 150 244 c 1
 184.916 278.916 220.814 290.892 251.531 290.892 c 0
 283.766 290.892 310.296 277.704 324 264 c 0
 347.695 240.305 356 213.867 356 178 c 0
 356 68.8 272.622 10.279 228 -4 c 0
 216 -8 204 -8 190 -8 c 0
252 232 m 1
 252 236.691 242.799 242.797 232.03 242.797 c 0
 228.105 242.797 223.972 241.986 220 240 c 1
 184 232 152 176 136 104 c 0
 132.492 90.8466 130.907 79.2311 130.907 69.322 c 0
 130.907 56.6307 133.508 46.7386 138 40 c 0
 143.178 34.0823 151.365 31.1741 160.64 31.1741 c 0
 176.441 31.1741 195.397 39.6162 208 56 c 0
 220 72 238 114 248 160 c 0
 254.606 182.02 257.576 196.767 257.576 208.245 c 0
 257.576 217.616 255.596 224.808 252 232 c 1
EndSplineSet
EndChar
StartChar: r
Encoding: 114 114 19
Width: 216
GlyphClass: 2
Flags: HMW
HStem: 0 42G<25 49> 220 86
Fore
288 268 m 0
 288 255.547 279.2 220 244 220 c 0
 203.452 220 219.57 252.215 200 262 c 0
 197.538 263.231 194.604 263.799 191.355 263.799 c 0
 173.491 263.799 146.154 246.615 136 228 c 0
 134.012 224.024 80.0115 16.049 80 16 c 1
 72.5889 1.17774 63.5413 -0.0481565 48.0255 -0.0481565 c 0
 44.9503 -0.0481565 41.621 3.63479e-17 38 0 c 0
 12 0 10 0 6 4 c 1
 0.578391 25.6864 64 235.124 64 254 c 0
 64 268.931 58.3647 273.929 48.7435 273.929 c 0
 45.0516 273.929 40.7726 273.193 36 272 c 1
 24 264 6 242 0 222 c 0
 -2.85714 214.857 -10.8163 208.735 -18.7755 208.735 c 0
 -21.9592 208.735 -25.1429 209.714 -28 212 c 0
 -30 214 -31 216 -31 219 c 0
 -31 222 -30 226 -28 232 c 0
 -6.49791 285.755 33.6203 306.99 69.2417 306.99 c 0
 95.9196 306.99 120.075 295.08 132 276 c 1
 136 272 l 1
 147.2 283.2 181.477 300.997 214 306 c 1
 216.24 306.747 220.171 307.213 225.094 307.213 c 0
 245.938 307.213 284.572 298.854 288 268 c 0
EndSplineSet
EndChar
StartChar: s
Encoding: 115 115 20
Width: 205
GlyphClass: 2
Flags: HMW
HStem: 0 42G<95 116> 252 40G<148 168 168 176>
VStem: 24 216
Fore
64 198 m 2
 64 240.922 102.229 284.958 148 292 c 1
 168 292 l 2
 205.713 292 240.208 266.392 240.208 232.571 c 0
 240.208 200.206 222.393 195.145 210.516 195.145 c 0
 199.163 195.145 187.586 200.691 182 210 c 1
 180 216 180 220 184 224 c 1
 188.322 230.916 190.403 238.579 190.403 245.536 c 0
 190.403 254.674 186.813 262.593 180 266 c 1
 177.131 266.956 173.775 267.443 170.158 267.443 c 0
 153.812 267.443 132.141 257.495 126 236 c 0
 124.722 231.741 124.129 227.851 124.129 224.265 c 0
 124.129 183.516 200.692 181.924 220 124 c 2
 224 120 224 116 224 104 c 0
 224 51.3719 175.95 0 104 0 c 0
 52.4024 0 28.3713 34.1435 24 56 c 0
 22.8 60.4 22.24 64.96 22.24 69.488 c 0
 22.24 87.6 31.2 105.2 44 110 c 0
 46.9212 110.876 49.8424 111.283 52.7076 111.283 c 0
 69.4584 111.283 84.2921 97.3709 86 82 c 0
 86 63.9626 64 61.4597 64 48 c 0
 64 36.114 81.2992 27.1112 101.211 27.1112 c 0
 104.752 27.1112 108.376 27.396 112 28 c 0
 145.427 37.5505 163.568 55.9536 163.568 76.9984 c 0
 163.568 92.721 153.442 109.918 132 126 c 0
 128 128 118 136 110 140 c 0
 83.601 156.246 76.1117 162.806 64 184 c 1
 64 198 l 2
EndSplineSet
EndChar
StartChar: z
Encoding: 122 122 21
Width: 285
GlyphClass: 2
Flags: HMW
HStem: 12 54<49 102>
Fore
12 0 m 0
 7.18362 0 1.05418 5.54116 1.05418 13.0152 c 0
 1.05418 15.8036 1.9073 18.861 4 22 c 1
 4 24 44 64 92 108 c 2
 188 200 l 1
 178 196 l 1
 144 196 l 2
 72.9687 188.897 54.0197 180.836 43.5183 180.836 c 0
 39.9402 180.836 37.3427 181.772 34 184 c 0
 31.2154 185.856 29.7231 190.298 29.7231 196.124 c 0
 29.7231 202.851 31.7128 211.426 36 220 c 0
 44.1019 240.255 68.6293 265.592 104.29 265.592 c 0
 109.311 265.592 114.552 265.09 120 264 c 1
 124 262 136 258 146 256 c 2
 172 244 178 244 200 244 c 0
 204.746 243.635 208.914 243.471 212.592 243.471 c 0
 244.755 243.471 239.365 256 254 256 c 0
 260 256 268 252 268 244 c 1
 268.322 242.712 268.696 241.735 268.696 240.627 c 0
 268.696 234.851 258.544 225.51 178 150 c 2
 90 68 l 1
 96 66 l 1
 135.924 66 178.012 54.3464 207.904 54.3464 c 0
 221.645 54.3464 232.809 56.8094 240 64 c 0
 249.014 71.2115 251.276 80.5826 251.276 89.7476 c 0
 251.276 98.9786 248.982 108.001 248.982 114.396 c 0
 248.982 116.613 249.257 118.515 250 120 c 1
 256 128 264 128 270 124 c 0
 278.443 119.779 286 74.6259 286 60 c 0
 284 12 244 -26 192 -28 c 0
 189.391 -28.2609 186.869 -28.3846 184.424 -28.3846 c 0
 140.232 -28.3846 121.016 12 60 12 c 0
 9 12 33.3281 0 12 0 c 0
EndSplineSet
EndChar
StartChar: uniE0F8
Encoding: 57592 57592 22
Width: 538
GlyphClass: 2
Flags: HMW
VStem: 294 34<116 748 979 992 992 998>
Fore
476 246 m 0
 467.48 246 452 257.065 452 268 c 0
 452 276.286 484.306 335.523 492 424 c 0
 494.664 435.987 495.914 448.052 495.914 460.155 c 0
 495.914 555.069 419.024 652.287 344 732 c 2
 328 748 l 1
 328 70 l 1
 294 116 l 1
 294 998 l 1
 328 998 l 1
 328 992 l 2
 328 820.296 514.901 665.89 532 512 c 0
 535.09 496.034 536.413 478.579 536.413 460.519 c 0
 536.413 367.619 501.415 258.707 492 254 c 1
 488 250 480 246 476 246 c 0
80 88 m 0
 135.066 130.829 188.792 137.03 221.612 137.03 c 0
 234.99 137.03 244.894 136 250 136 c 1
 290 126 316 104 326 72 c 0
 328 60 328 36 328 24 c 1
 304.232 -71.0708 195.944 -138.063 107.817 -138.063 c 0
 98.9729 -138.063 90.3321 -137.389 82 -136 c 0
 40 -128 12 -104 4 -70 c 1
 1.65685 -64.1421 0.686292 -53.4802 0.686292 -43.2405 c 0
 0.686292 -36 1.17157 -28.9706 2 -24 c 0
 12 16 40 56 80 88 c 0
EndSplineSet
EndChar
StartChar: uniE0F9
Encoding: 57593 57593 23
Width: 538
GlyphClass: 2
Flags: HMW
VStem: 290 34<118 500 500 536 536 574 778 782 782 788 988 1000> 484 44<532 540 524 558 524 558> 490 40
Fore
290 118 m 1xc0
 290 1000 l 1
 324 1000 l 1
 324 988 l 2
 331.505 912.955 351.36 873.996 426 764 c 2
 462 712 l 2
 504 644 524 592 528 540 c 0
 528 508 522 476 508 448 c 1
 508 442 504 436 504 436 c 1
 504 426.295 521.85 407.051 532 336 c 0
 532.862 329.965 533.315 322.686 533.315 314.377 c 0
 533.315 273.892 522.563 208.932 496 144 c 0
 491.067 134.134 485.132 122.493 472.463 122.493 c 0
 469.927 122.493 467.122 122.959 464 124 c 1
 456 128 452 132 450 136 c 1
 445.222 155.113 490.856 224.945 490.856 307.88 c 0
 490.856 338.119 484.789 370.1 468 402 c 0
 443.485 454.532 405.311 494.689 332 568 c 1
 324 574 l 1
 324 70 l 1
 290 118 l 1xc0
476 482 m 1
 481.108 489.662 484 492 484 532 c 2
 484 558 l 1
 472 608 446 656 392 716 c 2
 388 724 368 744 352 760 c 2
 324 788 l 1
 324 782 l 2
 324 709.005 354.575 660.618 432 548 c 0
 444 528 460 504 468 496 c 1
 476 482 l 1
80 88 m 0
 135.066 130.829 188.792 137.03 221.612 137.03 c 0
 234.99 137.03 244.894 136 250 136 c 1
 290 126 316 104 326 72 c 0
 328 60 328 36 328 24 c 1
 304.232 -71.0708 195.944 -138.063 107.817 -138.063 c 0
 98.9729 -138.063 90.3321 -137.389 82 -136 c 0
 40 -128 12 -104 4 -70 c 1
 1.65685 -64.1421 0.686292 -53.4802 0.686292 -43.2405 c 0
 0.686292 -36 1.17157 -28.9706 2 -24 c 0
 12 16 40 56 80 88 c 0
EndSplineSet
EndChar
StartChar: uniE0FA
Encoding: 57594 57594 24
Width: 538
GlyphClass: 2
Flags: HMW
VStem: 296 34<112 250 250 302 302 352 548 562 562 570 774 781 988 1000> 478 44<492 560> 482 40<520 538> 496 42
Fore
296 112 m 1xc0
 296 1000 l 1
 330 1000 l 1
 330 988 l 2
 334 932 354 880 398 806 c 2
 428 760 l 2
 460.539 710.234 505.736 646.74 522 560 c 1
 522 496 l 1xc0
 518 482 514 468 510 456 c 2
 506 444 l 1
 510 432 l 1
 516.868 418.264 532.447 383.397 532.447 333.008 c 0
 532.447 305.112 527.672 272.459 514 236 c 1
 510 232 510 228 510 228 c 1
 516 216 l 2
 531.816 182.61 538.368 152.309 538.368 118.311 c 0
 538.368 113.617 538.243 108.853 538 104 c 0x90
 538 20.5889 501.267 -64.3665 486 -72 c 1
 483.216 -72.9279 480.569 -73.3283 478.082 -73.3283 c 0
 466.404 -73.3283 458.25 -64.4996 456 -60 c 1
 454 -52 454 -48 458 -36 c 1
 477.862 0.11187 496.194 52.6519 496.194 105.534 c 0
 496.194 133.739 490.979 162.041 478 188 c 0
 462 222 438 252 402 288 c 2
 342 344 l 1
 330 352 l 1
 330 72 l 1
 296 112 l 1xc0
482 520 m 1xa0
 482 620 389.062 721.556 346 770 c 1
 338 776 334 784 332 786 c 0
 331.451 786.549 331.053 786.947 330.764 786.947 c 0
 330 786.947 330 784.16 330 774 c 0
 332.016 729.638 346.713 665.109 434 556 c 2
 468 506 l 2
 472 500 476 492 478 492 c 1xc0
 478 494 480 510 482 520 c 1xa0
482 380 m 0xa0
 451.544 471.367 332.013 568 332 568 c 1
 330 570 l 1
 330 562 l 2
 330 459.027 431.755 349.368 478 280 c 0xc0
 482 274 482 272 486 292 c 0
 489.339 304.523 490.936 317.045 490.936 329.423 c 0
 490.936 346.697 487.826 363.688 482 380 c 0xa0
80 88 m 0
 135.066 130.829 188.792 137.03 221.612 137.03 c 0
 234.99 137.03 244.894 136 250 136 c 1
 290 126 316 104 326 72 c 0
 328 60 328 36 328 24 c 1
 304.232 -71.0708 195.944 -138.063 107.817 -138.063 c 0
 98.9729 -138.063 90.3321 -137.389 82 -136 c 0
 40 -128 12 -104 4 -70 c 1
 1.65685 -64.1421 0.686292 -53.4802 0.686292 -43.2405 c 0
 0.686292 -36 1.17157 -28.9706 2 -24 c 0
 12 16 40 56 80 88 c 0
EndSplineSet
EndChar
StartChar: uniE0FB
Encoding: 57595 57595 25
Width: 538
GlyphClass: 2
Flags: HMW
VStem: 292 34<42 98 98 154 345 368 368 378 565 594 594 604 798 818 818 830 1030 1042>
Fore
518 594 m 1
 518 476.378 501.658 487.27 500 474 c 1
 504 464 l 2
 511.049 447.553 528.479 410.611 528.479 360.347 c 0
 528.479 331.5 522.738 298.266 506 262 c 1
 502 246 l 1
 506 236 l 2
 517.001 211.797 529.164 166.72 529.164 133.826 c 0
 529.164 128.128 528.799 122.795 528 118 c 0
 524.464 75.5619 494.007 44.0099 494 44 c 1
 502 30 l 2
 517.688 -1.37582 534.552 -42.8411 534.552 -100.26 c 0
 534.552 -143.584 524.951 -195.991 498 -260 c 0
 492.831 -269.045 487.49 -281.517 474.474 -281.517 c 0
 471.955 -281.517 469.148 -281.049 466 -280 c 0
 455.565 -277.391 450.999 -271.036 450.999 -261.604 c 0
 450.999 -257.085 452.047 -251.859 454 -246 c 1
 470.436 -218.606 492.205 -155.979 492.205 -94.4369 c 0
 492.205 -83.5229 491.52 -72.6431 490 -62 c 0
 482 -22 458 18 418 66 c 0
 402 82 370 118 346 138 c 2
 326 154 l 1
 326 42 l 1
 292 42 l 1
 292 1042 l 1
 326 1042 l 1
 326 1030 l 2
 330 974 350 922 394 850 c 0
 398 842 410 822 422 804 c 2
 466 730 l 2
 494 680 510 638 518 594 c 1
478 554 m 1
 478 680.207 343.222 803.556 334 822 c 1
 326 830 l 1
 326 818 l 2
 326 778 336 740 358 698 c 0
 372 668 390 642 430 582 c 2
 462 538 l 1
 466 530 472 524 472 526 c 1
 474 526 476 542 478 554 c 1
486 374 m 0
 471.324 484.072 330.002 599.999 330 600 c 1
 326 604 l 1
 326 594 l 2
 326 536 346 482 394 412 c 2
 424 366 l 2
 436 350 452 328 460 316 c 2
 474 294 l 1
 481.681 309.363 486.792 333.381 486.792 357.733 c 0
 486.792 363.169 486.538 368.623 486 374 c 0
452 238 m 0
 419.114 288.824 398.404 309.596 334 374 c 1
 326 378 l 1
 326 368 l 2
 326 249.757 427.157 150.739 460 96 c 0
 466 88 470 82 472 82 c 0
 472.912 82 486.48 101.696 486.48 136.283 c 0
 486.48 162.392 478.747 196.987 452 238 c 0
80 88 m 0
 135.066 130.829 188.792 137.03 221.612 137.03 c 0
 234.99 137.03 244.894 136 250 136 c 1
 290 126 316 104 326 72 c 0
 328 60 328 36 328 24 c 1
 304.232 -71.0708 195.944 -138.063 107.817 -138.063 c 0
 98.9729 -138.063 90.3321 -137.389 82 -136 c 0
 40 -128 12 -104 4 -70 c 1
 1.65685 -64.1421 0.686292 -53.4802 0.686292 -43.2405 c 0
 0.686292 -36 1.17157 -28.9706 2 -24 c 0
 12 16 40 56 80 88 c 0
EndSplineSet
EndChar
StartChar: uniE0FC
Encoding: 57596 57596 26
Width: 326
GlyphClass: 2
Flags: HMW
VStem: 294 34<116 874 874 992 992 998>
Fore
328 70 m 1
 294 116 l 1
 294 998 l 1
 328 998 l 1
 328 70 l 1
80 88 m 0
 135.066 130.829 188.792 137.03 221.612 137.03 c 0
 234.99 137.03 244.894 136 250 136 c 1
 290 126 316 104 326 72 c 0
 328 60 328 36 328 24 c 1
 304.232 -71.0708 195.944 -138.063 107.817 -138.063 c 0
 98.9729 -138.063 90.3321 -137.389 82 -136 c 0
 40 -128 12 -104 4 -70 c 1
 1.65685 -64.1421 0.686292 -53.4802 0.686292 -43.2405 c 0
 0.686292 -36 1.17157 -28.9706 2 -24 c 0
 12 16 40 56 80 88 c 0
EndSplineSet
EndChar
StartChar: uniE0FD
Encoding: 57597 57597 27
Width: 326
GlyphClass: 2
Flags: HMW
VStem: 0 36<-402 78 -402 130 -402 78> 294 34<314 506 506 800 800 800>
Fore
0 130 m 1
 0 -402 l 1
 36 -402 l 1
 36 78 l 1
 0 130 l 1
328 268 m 1
 294 314 l 1
 294 800 l 1
 328 800 l 1
 328 268 l 1
80 286 m 0
 135.066 328.829 188.792 335.03 221.612 335.03 c 0
 234.989 335.03 244.894 334 250 334 c 1
 290 324 316 302 326 270 c 0
 328 258 328 234 328 222 c 1
 304.232 126.929 195.944 59.9367 107.817 59.9367 c 0
 98.9729 59.9367 90.3321 60.6113 82 62 c 0
 40 70 12 94 4 128 c 1
 1.65685 133.858 0.686292 144.52 0.686292 154.759 c 0
 0.686292 162 1.17157 169.029 2 174 c 0
 12 214 40 254 80 286 c 0
EndSplineSet
EndChar
StartChar: uniE0FE
Encoding: 57598 57598 28
Width: 110
GlyphClass: 2
Flags: HMW
HStem: -56 112
Fore
184 18 m 1
 184 31.5424 202.27 56.5248 236.462 56.5248 c 0
 242.485 56.5248 249.002 55.7496 256 54 c 0
 272 48 284 36 290 20 c 0
 292 12 292 12 292 0 c 0
 292 -10 292 -12 290 -18 c 0
 284 -36 272 -48 254 -52 c 1
 248 -56 244 -56 236 -56 c 0
 228 -56 224 -56 220 -52 c 2
 200 -48 190 -36 184 -18 c 1
 180 -12 180 -10 180 0 c 0
 180 10 180 12 184 18 c 1
4 18 m 1
 4 31.5424 22.2703 56.5248 56.4616 56.5248 c 0
 62.4846 56.5248 69.0017 55.7496 76 54 c 0
 92 48 104 36 110 20 c 0
 112 12 112 12 112 0 c 0
 112 -10 112 -12 110 -18 c 0
 104 -36 92 -48 74 -52 c 1
 68 -56 64 -56 56 -56 c 0
 48 -56 44 -56 40 -52 c 2
 20 -48 10 -36 4 -18 c 1
 0 -12 0 -10 0 0 c 0
 0 10 0 12 4 18 c 1
EndSplineSet
EndChar
StartChar: rests.0
Encoding: 57600 57600 29
Width: 372
GlyphClass: 2
Flags: HMW
HStem: -156 156<6 188 6 188 4 188 188 368>
Fore
0 -6 m 1
 2.98608 -4.98608 5.0282 -3.0282 6 0 c 1
 370 0 l 1
 372 -4 l 1
 376 -4 l 1
 376 -150 l 1
 372.634 -151.301 370.217 -153.551 368 -156 c 1
 4 -156 l 1
 4 -152 l 1
 0 -152 l 1
 0 -6 l 1
EndSplineSet
EndChar
StartChar: rests.1
Encoding: 57601 57601 30
Width: 372
GlyphClass: 2
Flags: HMW
HStem: 0 156<6 188 6 188 4 188 188 368>
Fore
0 150 m 1
 2.98608 151.014 5.0282 152.972 6 156 c 1
 370 156 l 1
 372 152 l 1
 376 152 l 1
 376 6 l 1
 372.634 4.69937 370.217 2.44916 368 0 c 1
 4 0 l 1
 4 4 l 1
 0 4 l 1
 0 150 l 1
EndSplineSet
EndChar
StartChar: rests.0o
Encoding: 57602 57602 31
Width: 372
GlyphClass: 2
Flags: HMW
HStem: -24 48<-142 -68 -142 -140>
Fore
-140 -24 m 1
 -144.019 -21.9906 -156 -14.4 -156 0 c 0
 -156 8 -156 8 -152 12 c 2
 -150 20 -144 24 -140 24 c 1
 -136 26 -80 26 188 26 c 0
 456 26 512 26 516 24 c 1
 520 24 526 20 528 12 c 2
 532 8 532 8 532 0 c 0
 532 -14.4196 520.052 -21.9738 516 -24 c 1
 376 -24 l 1
 376 -150 l 1
 372.634 -151.301 370.217 -153.551 368 -156 c 1
 4 -156 l 1
 4 -152 l 1
 0 -152 l 1
 0 -24 l 1
 -140 -24 l 1
EndSplineSet
EndChar
StartChar: rests.1o
Encoding: 57603 57603 32
Width: 372
GlyphClass: 2
Flags: HMW
HStem: -24 50<-68 0 376 444 444 471>
Fore
4 152 m 1
 6 156 l 1
 370 156 l 1
 372 152 l 1
 376 152 l 1
 376 26 l 1
 444 26 l 2
 498 26 512 26 516 24 c 1
 520 24 526 20 528 12 c 2
 532 8 532 8 532 0 c 0
 532 -14.4196 520.052 -21.9738 516 -24 c 0
 513 -25 350.5 -25.5 188 -25.5 c 0
 25.5 -25.5 -137 -25 -140 -24 c 0
 -144.019 -21.9906 -156 -14.4 -156 0 c 0
 -156 8 -156 8 -152 12 c 2
 -150 20 -144 24 -140 24 c 1
 -136 26 -122 26 -68 26 c 2
 0 26 l 1
 0 150 l 1
 4 152 l 1
EndSplineSet
EndChar
StartChar: rests.M3
Encoding: 57604 57604 33
Width: 448
GlyphClass: 2
Flags: HMW
VStem: 0 150<-244 0 0 244> 300 150<-244 0 0 244>
Fore
0 244 m 1
 6 250 l 1
 144 250 l 1
 146.986 248.986 149.028 247.028 150 244 c 1
 150 -244 l 1
 148.986 -246.986 147.028 -249.028 144 -250 c 1
 76 -250 l 1
 4 -248 l 1
 0 -244 l 1
 0 244 l 1
300 244 m 1
 306 250 l 1
 444 250 l 1
 446.986 248.986 449.028 247.028 450 244 c 1
 450 -244 l 1
 448.986 -246.986 447.028 -249.028 444 -250 c 1
 376 -250 l 1
 304 -248 l 1
 300 -244 l 1
 300 244 l 1
EndSplineSet
EndChar
StartChar: rests.M2
Encoding: 57605 57605 34
Width: 148
GlyphClass: 2
Flags: HMW
VStem: 0 150<-244 0 0 244>
Fore
0 244 m 1
 6 250 l 1
 144 250 l 1
 146.986 248.986 149.028 247.028 150 244 c 1
 150 -244 l 1
 148.986 -246.986 147.028 -249.028 144 -250 c 1
 76 -250 l 1
 4 -248 l 1
 0 -244 l 1
 0 244 l 1
EndSplineSet
EndChar
StartChar: rests.M1
Encoding: 57606 57606 35
Width: 148
GlyphClass: 2
Flags: HMW
HStem: 0 42G<4 76 4 4 76 144>
VStem: 0 150<6 124 6 124 124 244 6 244>
Fore
0 244 m 1
 6 250 l 1
 144 250 l 1
 146.986 248.986 149.028 247.028 150 244 c 1
 150 6 l 1
 144 0 l 1
 4 0 l 1
 4 4 l 1
 0 4 l 1
 0 244 l 1
EndSplineSet
EndChar
StartChar: rests.2
Encoding: 57607 57607 36
Width: 235
GlyphClass: 2
Flags: HMW
VStem: -18 258
Fore
64 396 m 1
 76 396 l 2
 84.0357 396 218.946 225.054 234 210 c 0
 240.126 203.874 242.499 196.998 242.499 189.371 c 0
 242.499 184.548 241.55 179.424 240 174 c 0
 226.824 121.294 119.772 94.7184 119.772 5.23537 c 0
 119.772 2.86815 119.846 0.456913 120 -2 c 0
 120 -28 128 -48 148 -68 c 1
 197.076 -133.434 229.688 -155.286 229.688 -173.151 c 0
 229.688 -175.472 229.137 -177.726 228 -180 c 1
 226 -188 216 -192 208 -188 c 1
 200 -180 l 2
 180.63 -160.63 140.17 -146.811 108.39 -146.811 c 0
 97.5116 -146.811 87.6503 -148.43 80 -152 c 0
 62.8407 -158.864 54.5269 -186.678 54.5269 -218.025 c 0
 54.5269 -248.759 62.5183 -282.889 78 -304 c 0
 85.6937 -314.258 80.5433 -319.469 75.8275 -319.469 c 0
 74.384 -319.469 72.9812 -318.981 72 -318 c 1
 68 -316 52 -296 44 -280 c 1
 15.1765 -241.569 -22.6845 -163.612 -22.6845 -115.947 c 0
 -22.6845 -106.635 -21.2396 -98.4791 -18 -92 c 1
 -16 -84 -12 -80 -4 -78 c 1
 0.978131 -75.5109 8.50038 -74.3001 17.9885 -74.3001 c 0
 45.892 -74.3001 90.7982 -84.7721 138 -104 c 1
 136 -100 l 1
 132 -98 92 -52 36 16 c 0
 2.07665 56.708 -4.51535 62.8922 -4.51535 73.5914 c 0
 -4.51535 75.5079 -4.30383 77.5693 -4 80 c 2
 -4 92 l 1
 4 108 20 124 54 156 c 1
 66 164 80 176 82 180 c 1
 104.798 201.457 117.705 231.907 117.705 261.702 c 0
 117.705 276.341 114.589 290.822 108 304 c 1
 104 316 100 324 76 348 c 1
 66 362 56 374 56 376 c 1
 52 382 56 392 64 396 c 1
EndSplineSet
EndChar
StartChar: rests.2classical
Encoding: 57608 57608 37
Width: 250
GlyphClass: 2
Flags: HMW
HStem: -260 464<146 196>
VStem: 0 252<128 170>
Fore
168 204 m 1
 196 204 l 1
 220 198 240 180 250 156 c 1
 252 148 252 144 252 134 c 0
 252 120 252 112 244 100 c 0
 234 80 212 64 190 56 c 0
 183.359 54.4674 175.673 53.7177 167.111 53.7177 c 0
 142.152 53.7177 109.739 60.087 74 72 c 2
 62 76 l 1
 120 -88 l 1
 180 -250 l 1
 180 -250 176 -252 174 -252 c 1
 168 -256 158 -260 152 -260 c 0
 140 -260 124 -252 122 -248 c 1
 122 -244 94 -150 60 -36 c 2
 0 170 l 1
 6 176 10.56 182.72 24 176 c 1
 24 174.677 59.4864 125.676 74 116 c 1
 84 106 92 104 100 108 c 0
 130.459 126.275 104.621 182.874 168 204 c 1
EndSplineSet
EndChar
StartChar: rests.3
Encoding: 57609 57609 38
Width: 250
GlyphClass: 2
Flags: HMW
HStem: -260 464
VStem: -2 252<128 170>
Fore
0 156 m 0
 8.5211 181.563 34.5206 205.058 67.798 205.058 c 0
 79.153 205.058 91.3555 202.322 104 196 c 1
 118 184 124 172 132 146 c 1
 136 120 140 114 148 108 c 1
 160 104 164 106 176 116 c 0
 188 124 212 152 220 168 c 1
 222 170 224 174 228 176 c 1
 232 180 244 180 248 172 c 1
 250 170 l 1
 190 -36 l 2
 156 -150 128 -244 128 -248 c 1
 126 -252 112 -260 100 -260 c 0
 92 -260 82 -256 76 -252 c 1
 72 -252 72 -250 72 -250 c 1
 128 -88 l 1
 188 76 l 1
 176 72 l 2
 140.261 60.087 107.848 53.7177 82.8894 53.7177 c 0
 74.3267 53.7177 66.6414 54.4674 60 56 c 0
 30.4644 65.8452 -2 91.4093 -2 134 c 0
 -2 144 -2 148 0 156 c 0
EndSplineSet
EndChar
StartChar: rests.4
Encoding: 57610 57610 39
Width: 298
GlyphClass: 2
Flags: HMW
VStem: -24 324<-116 170 -96 170>
Fore
52 134 m 0
 52 173.393 85.8696 205.317 123.666 205.317 c 0
 135.027 205.317 146.743 202.433 158 196 c 1
 172 184 180 172 186 146 c 0
 192 120 196 114 204 108 c 1
 214 104 220 108 232 116 c 1
 240 124 252 140 264 156 c 0
 276 176 276 176 280 176 c 1
 286 180 294 180 298 172 c 1
 300 170 l 1
 212 -164 l 2
 162 -346 122 -496 120 -498 c 1
 120 -500 112 -506 104 -508 c 0
 99.749 -509.417 95.498 -510.081 91.336 -510.081 c 0
 83.749 -510.081 76.4575 -507.874 70 -504 c 1
 68 -500 64 -500 64 -500 c 1
 68 -494 164 -176 164 -176 c 1
 164 -174 158 -176 150 -180 c 1
 132 -184 112 -190 96 -192 c 0
 86 -194 74 -195 63.25 -195 c 0
 52.5 -195 43 -194 38 -192 c 1
 14 -188 -8 -172 -16 -152 c 1
 -24 -140 -24 -132 -24 -116 c 2
 -24 -96 l 1
 -16 -80 -8 -66 6 -56 c 0
 18.1515 -49.0563 31.8097 -45.5027 45.1764 -45.5027 c 0
 62.6099 -45.5027 79.5476 -51.5476 92 -64 c 0
 100 -72 104 -84 108 -104 c 0
 114 -132 116 -136 126 -140 c 1
 129.333 -142 132.444 -143.111 135.63 -143.111 c 0
 142 -143.111 148.667 -138.667 158 -128 c 0
 172 -114 190 -90 196 -76 c 1
 196 -72 242 74 242 76 c 1
 242 76 236 74 228 72 c 0
 192.261 60.087 160.957 53.7177 137.39 53.7177 c 0
 129.305 53.7177 122.131 54.4674 116 56 c 0
 92 64 72 80 60 100 c 0
 54 112 52 120 52 134 c 0
EndSplineSet
EndChar
StartChar: rests.5
Encoding: 57611 57611 40
Width: 322
GlyphClass: 2
Flags: W
Fore
84 404 m 1
 97.7156 439.66 127.678 453.813 153.872 453.813 c 0
 167.052 453.813 179.278 450.23 188 444 c 1
 225.076 425.462 208.521 370.191 234 360 c 0
 242 356 248 356 252 360 c 0
 280.017 382.414 295.638 428 308 428 c 0
 316 428 320 426 324 422 c 1
 324 413.716 111.822 -494.178 108 -498 c 1
 108 -504 92 -510 80 -510 c 0
 70 -510 52 -502 52 -498 c 1
 54 -496 138 -180 140 -176 c 1
 140 -172 l 1
 126 -178 l 2
 63.0773 -195.161 53.3184 -196.01 38.9721 -196.01 c 0
 37.3957 -196.01 35.7639 -196 34 -196 c 0
 -32.5223 -196 -56 -145.436 -56 -116 c 0
 -56 -86.4259 -34.8177 -65.0147 -24 -56 c 1
 -11.8485 -49.0563 1.80966 -45.5027 15.0129 -45.5027 c 0
 32.2332 -45.5027 48.6796 -51.5476 60 -64 c 0
 81.4361 -85.4361 74.4659 -129.233 96 -140 c 1
 100.18 -141.393 103.632 -142.301 106.948 -142.301 c 0
 113.151 -142.301 118.877 -139.123 128 -130 c 0
 140 -118 156 -96 164 -80 c 1
 164 -76 204 76 204 76 c 1
 204 76 198 74 188 72 c 1
 170 64 152 60 136 56 c 1
 126 55 114 54.5 103 54.5 c 0
 92 54.5 82 55 76 56 c 1
 46.4644 65.8452 14 91.4093 14 134 c 0
 14 144 14 148 16 156 c 1
 29.6557 187.863 56.8087 204.965 83.5181 204.965 c 0
 100.352 204.965 117.009 198.172 130 184 c 0
 153.247 160.753 143.329 123.503 164 108 c 1
 176 104 180 108 192 116 c 1
 202 126 220 148 228 164 c 1
 228 165.718 270.043 318.348 270.043 323.848 c 0
 270.043 323.928 211.207 304 172 304 c 0
 118.472 304 93.1982 336.406 84 364 c 1
 84 404 l 1
EndSplineSet
EndChar
StartChar: rests.6
Encoding: 57612 57612 41
Width: 348
GlyphClass: 2
Flags: HMW
VStem: -66 414
Fore
200 304 m 0
 149.231 304 112 335.931 112 384 c 0
 112 430.416 151.618 453.914 184.434 453.914 c 0
 196.722 453.914 208.056 450.62 216 444 c 1
 254.515 424.743 235.862 371.255 264 360 c 0
 272 356 276 356 280 360 c 0
 318.463 390.771 312.031 428 336 428 c 0
 342 428 346 428 348 422 c 1
 352.51 417.49 116 -732.683 116 -744 c 0
 116 -750 114 -752 110 -752 c 1
 104 -756 94 -760 88 -760 c 0
 80 -760 70 -756 64 -752 c 1
 60 -752 60 -750 60 -748 c 0
 62 -738 132 -424 132 -424 c 1
 124.46 -424 68.8961 -446.38 20.7147 -446.38 c 0
 12.1384 -446.38 3.79599 -445.671 -4 -444 c 0
 -33.5356 -434.155 -66 -408.591 -66 -366 c 0
 -66 -356 -66 -352 -64 -344 c 1
 -50.3443 -312.137 -23.1913 -295.035 3.51814 -295.035 c 0
 20.3516 -295.035 37.0089 -301.828 50 -316 c 0
 73.2475 -339.247 63.3291 -376.497 84 -392 c 1
 96 -396 102 -392 112 -384 c 0
 124 -372 142 -348 150 -332 c 1
 158.946 -320.072 188 -172.014 188 -172 c 1
 178.59 -176.705 133.265 -195.289 87.5392 -195.289 c 0
 53.8358 -195.289 19.9153 -185.192 0 -152 c 0
 -6 -140 -8 -132 -8 -116 c 0
 -8 -86.4259 13.1823 -65.0147 24 -56 c 1
 36.1515 -49.0563 49.8097 -45.5027 63.0129 -45.5027 c 0
 80.2332 -45.5027 96.6796 -51.5476 108 -64 c 0
 129.436 -85.4361 122.466 -129.233 144 -140 c 1
 148.392 -141.464 151.713 -142.392 154.844 -142.392 c 0
 160.268 -142.392 165.124 -139.608 174 -132 c 1
 186 -118 202 -92 208 -80 c 0
 210 -76 244 76 244 76 c 1
 228 72 l 2
 193.136 58.0542 163.424 54.0435 141.332 54.0435 c 0
 131.209 54.0435 122.686 54.8857 116 56 c 1
 92.6604 63.7799 52 87.2 52 134 c 0
 52 176.83 88.3659 204.525 123.167 204.525 c 0
 139.87 204.525 156.211 198.146 168 184 c 0
 189.085 162.915 183.36 123.48 204 108 c 1
 205.978 107.505 207.908 107.269 209.791 107.269 c 0
 230.328 107.269 245.447 135.32 260 162 c 0
 276.382 202.954 297.332 319.332 300 322 c 1
 300 326 l 1
 288 322 l 2
 278.435 318.413 235.2 304 200 304 c 0
EndSplineSet
EndChar
StartChar: rests.7
Encoding: 57613 57613 42
Width: 372
GlyphClass: 2
Flags: HMW
VStem: -60 436
Fore
328 576 m 1
 319.626 571.813 270.4 556 232 556 c 0
 208 556 204 556 188 564 c 0
 168.843 571.982 142 591.946 142 634 c 0
 142 644 142 648 144 656 c 0
 152.521 681.562 178.505 705.063 211.784 705.063 c 0
 223.141 705.063 235.348 702.326 248 696 c 1
 262 684 268 672 276 646 c 1
 280 620 284 614 292 608 c 1
 300 608 304 606 310 608 c 1
 316 612 328 632 340 658 c 0
 348 676 352 678 360 680 c 1
 364 680 370 676 372 672 c 1
 376 670 l 1
 256 -36 l 2
 192 -426 140 -746 138 -748 c 1
 136 -752 122 -760 110 -760 c 0
 101.091 -760 82 -750.831 82 -748 c 1
 84.7055 -745.294 139.212 -424 144 -424 c 1
 144 -420 l 1
 126 -428 l 2
 87.2827 -439.913 51.8917 -446.282 26.4312 -446.282 c 0
 17.6965 -446.282 10.1305 -445.533 4 -444 c 0
 -23.515 -434.828 -60 -412.8 -60 -366 c 0
 -60 -356 -60 -352 -58 -344 c 1
 -44.5543 -312.627 -15.9798 -295.182 11.1779 -295.182 c 0
 27.9615 -295.182 44.204 -301.845 56 -316 c 0
 76.5798 -336.58 71.4617 -392.752 97.9149 -392.752 c 0
 103.618 -392.752 110.788 -390.141 120 -384 c 1
 132 -372 148 -350 156 -332 c 2
 160 -322 l 1
 176 -248 l 1
 188 -172 l 1
 181.74 -176.173 124.936 -195.429 81.1927 -195.429 c 0
 71.1925 -195.429 61.875 -194.423 54 -192 c 0
 30 -188 8 -172 0 -152 c 1
 -8 -140 -8 -132 -8 -116 c 2
 -8 -96 l 1
 0 -80 8 -66 22 -56 c 0
 34.1515 -49.0563 47.8097 -45.5027 61.1764 -45.5027 c 0
 78.6099 -45.5027 95.5476 -51.5476 108 -64 c 0
 129.769 -85.7688 118.538 -130.615 142 -140 c 1
 148 -144 154 -144 160 -140 c 1
 170 -136 184 -116 196 -96 c 0
 208 -78 208 -80 220 0 c 0
 228 40 236 76 236 76 c 1
 229.062 75.9998 200.68 64.151 164 56 c 1
 130 56 l 2
 108 56 102 56 86 64 c 0
 57.9776 76.7375 40 105.699 40 134 c 0
 40 176.83 76.3659 204.525 111.167 204.525 c 0
 127.87 204.525 144.211 198.146 156 184 c 0
 177.085 162.915 171.36 123.48 192 108 c 1
 194.697 107.101 197.192 106.606 199.621 106.606 c 0
 208 106.606 215.596 112.495 228 128 c 0
 238.991 138.991 251.995 171.988 252 172 c 2
 268 248 l 1
 282 326 l 1
 275.353 326 224.155 304.311 182.096 304.311 c 0
 172.75 304.311 163.855 305.382 156 308 c 1
 132 312 110 328 100 348 c 0
 92 360 92 368 92 384 c 0
 92 431.493 128.509 453.988 162.478 453.988 c 0
 180.187 453.988 197.206 447.874 208 436 c 0
 228.259 415.741 220.184 369.526 244 360 c 1
 246.47 358.353 249.002 357.612 251.555 357.612 c 0
 270.263 357.612 290.154 397.386 296 412 c 0
 301.087 422.174 317.132 523.211 328 576 c 1
EndSplineSet
EndChar
StartChar: accidentals.2
Encoding: 57614 57614 43
Width: 272
GlyphClass: 2
Flags: HMW
VStem: 0 96<-364 -162> 58 38<-319 -280 -280 -269 -55 -34 -34 -16 -16 -12 242 268> 178 38<-242 -232 -232 -166 -166 -166 14 18 18 36 36 96 96 96 270 280 280 288 288 314> 178 98<-242 -64 -166 -64 -99 18 -99 96>
Fore
178 280 m 2x20
 178 294.191 177.964 306.205 177.964 316.374 c 0
 177.964 367.594 178.884 372 190 372 c 1
 192.835 373.701 195.83 374.437 198.759 374.437 c 0
 206.161 374.437 213.134 369.732 216 364 c 1
 216 288 l 2x20
 216 252 216 220 218 220 c 1
 234 226 l 2
 242 228 252 232 254 232 c 1
 262 234 270 228 272 222 c 1
 276 218 276 214 276 184 c 0x10
 276 144 276 144 268 138 c 2
 268 136 258 132 242 124 c 2
 216 114 l 1
 216 36 l 2x20
 216 -8 216 -44 218 -44 c 1
 234 -36 l 1
 242 -34 252 -30 254 -30 c 1
 262 -28 270 -34 272 -40 c 1
 276 -44 276 -48 276 -80 c 0x10
 276 -118 276 -120 268 -124 c 2
 268 -128 258 -132 242 -140 c 1
 216 -148 l 1
 216 -320 l 1
 211.867 -327.233 204.532 -331.262 197.302 -331.262 c 0
 190.538 -331.262 183.867 -327.734 180 -320 c 1
 180 -318 178 -310 178 -242 c 2
 178 -166 l 1
 96 -200 l 1
 96 -364 l 1xa0
 92 -372 84.5 -376 77.25 -376 c 0
 70 -376 63 -372 60 -364 c 0
 58 -360 58 -350 58 -288 c 0x40
 58 -250 58 -218 56 -218 c 1
 40 -224 l 2
 32 -228 24 -232 20 -232 c 0
 2.0474 -232 -0.289522 -217.27 -0.289522 -200.263 c 0
 -0.289522 -194.276 2.27628e-16 -188.008 0 -182 c 0x80
 0 -144 0 -144 6 -136 c 1
 8 -136 16 -130 32 -124 c 2
 58 -112 l 1
 58 -34 l 2x40
 58 10 58 44 56 44 c 1
 40 38 l 2
 32 36 24 32 20 32 c 1
 12 30 4 36 2 42 c 0
 0 46 0 50 0 80 c 0x80
 0 82.4952 -0.00178609 84.8521 -0.00178609 87.08 c 0
 -0.00178609 132.264 0.732848 124.366 32 140 c 2
 58 150 l 1
 58 232 l 2
 58 304 58 316 60 320 c 0
 63.0997 327.233 70.4695 331.262 77.9733 331.262 c 0
 84.9945 331.262 92.1329 327.734 96 320 c 1
 96 242 l 1
 98 168 l 1
 138 184 l 1
 178 202 l 1x50
 178 280 l 2x20
178 -60 m 1x50
 178 96 l 1x20
 96 64 l 1
 96 -16 l 2
 96 -94 96 -96 100 -96 c 1
 178 -60 l 1x50
EndSplineSet
EndChar
StartChar: accidentals.1
Encoding: 57615 57615 44
Width: 172
GlyphClass: 2
Flags: HMW
VStem: 68 40<-260 -248 -248 -200 -200 -200 -60 -14 -14 16 16 62 62 62 202 248 248 262> 68 108<-260 -64 -200 -64 -90 -64 -98 -14 -98 62 172 199>
Fore
16 32 m 1x80
 1.76401 32 -0.456363 48.1568 -0.456363 63.4072 c 0
 -0.456363 70.3211 1.98682e-08 77.0487 0 82 c 0
 0 116 0 116 2 120 c 0
 4 124 8 128 36 148 c 2
 68 172 l 1x40
 68 248 l 2
 68 266.081 67.9252 279.867 67.9252 290.479 c 0
 67.9252 331.606 69.0483 325.048 80 336 c 1
 82.0667 337.033 84.4004 337.533 86.7942 337.533 c 0
 93.6663 337.533 101.033 333.417 104 326 c 1
 108 322 108 318 108 262 c 2
 108 202 l 1x80
 128 216 l 2
 144 228.8 149.76 232.64 155.52 232.64 c 0
 156.96 232.64 158.4 232.4 160 232 c 1
 164 232 172 228 172 222 c 2
 176 218 176 216 176 182 c 0x40
 176 148 176 148 172 144 c 2
 172 140 166 136 140 116 c 2
 108 92 l 1
 108 -60 l 1x80
 128 -46 l 2
 144 -33.2 149.76 -29.36 155.52 -29.36 c 0
 156.96 -29.36 158.4 -29.6 160 -30 c 1
 164 -32 172 -36 172 -40 c 2
 176 -44 176 -48 176 -80 c 0x40
 176 -116 176 -116 172 -120 c 2
 172 -124 166 -128 140 -148 c 2
 108 -172 l 1
 108 -248 l 2
 108 -312 108 -322 104 -324 c 1
 102 -332 95 -336 87.75 -336 c 0
 80.5 -336 73 -332 70 -324 c 1
 68 -322 68 -318 68 -260 c 2
 68 -200 l 1x80
 48 -216 l 2
 28 -232 24 -232 16 -232 c 0
 12 -232 4 -226 2 -220 c 0
 0 -216 0 -214 0 -180 c 0
 0 -148 0 -146 2 -142 c 0
 4 -138 8 -134 36 -114 c 2
 68 -90 l 1x40
 68 62 l 1
 48 48 l 2
 32 35.2 26.24 31.36 20.48 31.36 c 0
 19.04 31.36 17.6 31.6 16 32 c 1x80
EndSplineSet
EndChar
StartChar: accidentals.3
Encoding: 57616 57616 45
Width: 398
GlyphClass: 2
Flags: HMW
HStem: -144 42G<332 335>
VStem: 68 40<-288 -284 -284 -220 -220 -220 -106 -36 -36 -26 -26 44 44 44 156 224 224 232> 180 40<-260 -256 -256 -188 -188 -188 -32 -4 -4 6 6 76 76 76 226 256 256 291> 294 38<-230 -224 -306 -156 -44 28 28 38 220 284 284 290 290 318>
Fore
294 284 m 2
 294 298.368 293.949 310.426 293.949 320.538 c 0
 293.949 365.526 294.962 372 306 372 c 1
 308.835 373.701 311.83 374.437 314.759 374.437 c 0
 322.161 374.437 329.134 369.732 332 364 c 1
 332 220 l 1
 356 228 l 1
 368 230 380 232 382 232 c 0
 388 232 396 228 400 222 c 1
 400 144 l 1
 398 140 396 136 392 136 c 1
 388 132 336 118 334 118 c 0
 332 118 332 82 332 38 c 2
 332 -44 l 1
 356 -36 l 2
 368 -32 380 -30 382 -30 c 0
 388 -30 396 -36 400 -40 c 1
 400 -120 l 1
 398 -124 396 -128 392 -128 c 1
 388 -130 336 -144 334 -144 c 0
 332 -144 332 -180 332 -224 c 2
 332 -306 l 1
 327.716 -313.497 319.99 -317.553 312.509 -317.553 c 0
 306.02 -317.553 299.716 -314.503 296 -308 c 1
 296 -304 294 -296 294 -230 c 2
 294 -156 l 1
 256 -168 l 1
 220 -176 l 1
 220 -256 l 2
 220 -324 220 -332 218 -336 c 0
 214.284 -342.503 207.98 -345.553 201.692 -345.553 c 0
 194.442 -345.553 187.213 -341.497 184 -334 c 1
 180 -332 180 -326 180 -260 c 2
 180 -188 l 1
 178 -188 162 -192 142 -200 c 1
 108 -208 l 1
 108 -284 l 2
 108 -348 108 -360 104 -364 c 1
 102 -372 95 -376 87.75 -376 c 0
 80.5 -376 73 -372 70 -364 c 0
 68 -360 68 -350 68 -288 c 2
 68 -220 l 1
 44 -226 l 2
 32 -228 20 -232 20 -232 c 1
 2.0474 -232 -0.289522 -217.27 -0.289522 -200.263 c 0
 -0.289522 -194.276 2.27628e-16 -188.008 0 -182 c 0
 0 -152 0 -146 2 -144 c 1
 4 -140 6 -136 10 -134 c 2
 12 -132 66 -116 68 -116 c 1
 68 44 l 1
 44 36 l 1
 20 32 l 1
 2.11061 32 -0.359547 46.6943 -0.359547 62.3781 c 0
 -0.359547 68.3617 9.93411e-09 74.4894 0 80 c 0
 0 84.3269 -0.0312331 88.5491 -0.0312331 92.5808 c 0
 -0.0312331 112.653 0.742942 128 10 128 c 1
 12 132 66 146 68 146 c 1
 68 224 l 2
 68 292 68 304 70 306 c 1
 73.2132 313.497 80.4416 317.553 87.6917 317.553 c 0
 93.9798 317.553 100.284 314.503 104 308 c 0
 106 304 108 296 108 232 c 2
 108 156 l 1
 144 168 l 1
 180 178 l 1
 180 256 l 2
 180 326 182 334 184 336 c 1
 187.867 343.734 194.538 347.262 201.077 347.262 c 0
 208.064 347.262 214.9 343.233 218 336 c 0
 220 332 220 328 220 260 c 0
 220 192 220 188 222 188 c 1
 224 190 240 194 260 200 c 2
 294 208 l 1
 294 284 l 2
294 -54 m 1
 294 108 l 1
 294 108 276 102 256 96 c 2
 220 86 l 1
 220 6 l 2
 220 -70 220 -74 222 -74 c 1
 224 -72 240 -68 260 -64 c 2
 294 -54 l 1
180 -84 m 1
 180 76 l 1
 144 64 l 1
 108 56 l 1
 108 -106 l 1
 114 -104 l 1
 116 -104 134 -98 152 -94 c 2
 180 -84 l 1
EndSplineSet
EndChar
StartChar: accidentals.0
Encoding: 57617 57617 46
Width: 165
GlyphClass: 2
Flags: HMW
VStem: -8 52<356 376 342 376> -4 46 124 50<-376 -356 -376 -350 -376 -258> 128 42<-96 -68>
Fore
44 350 m 2x80
 44 304.298 40.0025 192.044 40 192 c 1
 42 192 66 196 96 202 c 0
 132 208 150 212 152 212 c 0
 158 212 162 208 164 202 c 1
 168 198 l 1
 170 -68 l 2x50
 172 -216 174 -344 174 -356 c 2
 174 -376 l 1x20
 164.586 -379.138 158.469 -382.633 149.51 -382.633 c 0
 143.162 -382.633 135.387 -380.878 124 -376 c 1
 124 -258 l 2
 126 -222 126 -192 126 -192 c 1
 124 -192 100 -196 72 -202 c 0
 36 -208 16 -212 16 -212 c 1
 3.2 -212 1.78644 -201.358 0 -196 c 1
 -4 68 l 2x60
 -4 216 -8 344 -8 356 c 2
 -8 376 l 1x80
 -4 376 l 1
 0 378 4 380 6 380 c 2x40
 9.65974 381.558 13.581 382.182 17.5718 382.182 c 0
 26.8008 382.182 36.4017 378.845 44 376 c 1
 44 350 l 2x80
130 110 m 0
 130 112 130 112 128 112 c 2
 40 96 l 1
 40 94 36 -112 36 -112 c 1
 38 -112 126 -96 128 -96 c 1x10
 128 -94 130 66 130 110 c 0
EndSplineSet
EndChar
StartChar: accidentals.M2
Encoding: 57618 57618 47
Width: 198
GlyphClass: 2
Flags: HMW
VStem: -20 40<112 136 112 112>
Fore
-12 464 m 1
 28.0222 464 24.2654 457.493 28 456 c 1
 28 456 22 172 20 136 c 2
 20 112 l 1
 58.0432 137.362 88.0697 146.681 111.472 146.681 c 0
 138.346 146.681 156.486 134.393 168 120 c 1
 178 112 184 104 188 92 c 1
 197.069 74.9956 200.896 58.9737 200.896 43.9914 c 0
 200.896 -21.3631 128.085 -66.9365 100 -88 c 0
 41.1147 -130.826 28 -153.896 28 -156 c 1
 22 -160 14 -164 8 -164 c 0
 4 -164 -4 -160 -8 -154 c 1
 -16 -148 -16 -166 -20 134 c 0
 -24 284 -26 420 -28 432 c 1
 -28 456 l 1
 -22 460 l 1
 -20 460 -16 462 -12 464 c 1
82 104 m 0
 40.4 104 31.3025 65.0245 30 52 c 0
 30 48 28 24 28 -2 c 0
 28 -46 28 -72 32 -94 c 1
 32 -100 l 1
 44 -90 l 2
 117.19 -25.9586 122.119 11.3267 122.119 30.39 c 0
 122.119 34.9968 122.011 31.5417 122.011 41.907 c 0
 122.011 56.7143 120.886 87.557 96 100 c 1
 92 104 88 104 82 104 c 0
EndSplineSet
EndChar
StartChar: accidentals.M1
Encoding: 57619 57619 48
Width: 198
GlyphClass: 2
Flags: HMW
VStem: 140 44<-144 -94> 148 44
Fore
196 456 m 1x40
 187.045 -144.023 184 -117.768 184 -144 c 1x80
 180.717 -157.133 172.842 -162.956 163.809 -162.956 c 0
 152.875 -162.956 140.243 -154.425 132 -140 c 1
 91.3973 -92.6302 19.0892 -68.4062 -20 0 c 0
 -23.7801 8.82016 -28.8467 26.4946 -28.8467 47.1097 c 0
 -28.8467 70.4999 -22.3243 97.6757 0 120 c 0
 5.89478 125.895 28.7333 146.315 64.4813 146.315 c 0
 87.3781 146.315 115.571 137.938 148 112 c 1
 148 136 l 2
 148 172 142 456 142 456 c 1
 144 458 152 460 156 462 c 1
 162.753 463.126 168.396 463.578 173.105 463.578 c 0
 192.372 463.578 195.991 456.004 196 456 c 1x40
140 52 m 0
 137.71 70.322 120.8 104 92 104 c 0
 74.4 104 48 93.7906 48 38 c 0
 48 22 48 -3.42857 78 -42 c 0
 88 -54 108 -76 126 -90 c 2
 140 -100 l 1
 140 -94 l 2
 142 -72 142 -46 142 -2 c 0
 140 24 140 48 140 52 c 0
EndSplineSet
EndChar
StartChar: accidentals.M4
Encoding: 57620 57620 49
Width: 360
GlyphClass: 2
Flags: HMW
VStem: -20 40<-84 56 -84 -84 112 136 112 112> 138 46 146 46
Fore
142 126 m 1xa0
 136.715 321.554 136 386.8 136 452 c 2
 136 456 l 1
 140 460 l 1
 147.029 462.343 154.059 463.314 161.088 463.314 c 0
 176 462 l 1
 180 460 188 458 190 456 c 1
 190 456 184 172 184 136 c 2
 184 112 l 1xc0
 197.464 125.464 227.088 145.179 265.968 145.179 c 0
 280.187 145.179 295.643 142.543 312 136 c 0
 341.269 120.505 361.645 84.2589 361.645 46.402 c 0
 361.645 40.2832 361.113 34.1222 360 28 c 0
 350.504 -28.9748 291.146 -68.0147 260 -90 c 2
 212 -126 l 1
 212 -128 206 -136 200 -140 c 1
 190.594 -158.812 177.04 -164 172 -164 c 0
 142.137 -164 147.471 -130.67 146 -88 c 0
 144 -58 144 -32 144 -32 c 1
 140 -40 l 1
 80.0232 -99.9768 44.3021 -119.396 26 -156 c 1
 22 -160 14 -164 8 -164 c 0
 4 -164 -4 -160 -8 -154 c 1
 -16 -148 -16 -166 -20 134 c 0
 -24 284 -26 420 -28 432 c 1
 -28 456 l 1
 -22 460 l 1
 -20 460 -16 462 -12 464 c 1
 28.0222 464 24.2654 457.493 28 456 c 1
 28 456 22 174 20 136 c 2
 20 112 l 1
 28 120 l 2
 48.994 138.895 70.4272 146.301 90.0604 146.301 c 0
 107.256 146.301 123.07 140.62 136 132 c 1
 142 126 l 1xa0
92 40 m 0
 92 67.2493 88 92 72 100 c 1
 68.8444 102.367 64.4441 103.489 59.781 103.489 c 0
 52.6224 103.489 44.8444 100.844 40 96 c 1
 32 90 24 72 20 56 c 1
 20 -84 l 1
 22 -92 24 -100 24 -102 c 0
 24 -102.343 24.1177 -102.51 24.3431 -102.51 c 0
 25.4315 -102.51 29.0294 -98.6274 34 -92 c 0
 88.5253 -30.2047 92 20.6822 92 40 c 0
280 40 m 0
 280 67.6136 269.663 93.7346 254 100 c 1
 250.056 102.367 245.177 103.489 239.98 103.489 c 0
 232 103.489 223.267 100.844 216 96 c 0
 194.582 83.149 191.492 53.5001 191.492 30.7289 c 0
 191.492 21.4957 192 13.3933 192 8 c 0
 191 -16 190.5 -34.5 190.5 -50.5 c 0
 190.5 -66.5 191 -80 192 -94 c 2
 192 -100 l 1xa0
 200 -96 l 1
 263.736 -37.5757 271.262 -11.6923 276 12 c 1
 280 20 280 22 280 40 c 0
EndSplineSet
EndChar
StartChar: accidentals.M3
Encoding: 57621 57621 50
Width: 360
GlyphClass: 2
Flags: HMW
VStem: -28 56<451 454> -24 48<250 251> -18 38 136 52<116 132> 140 44<188 216> 146 46
Fore
-136 156 m 1x28
 -136 159.4 -24 220.6 -24 224 c 2
 -24 336 l 2x40
 -26 396 -28 450 -28 452 c 0
 -28 456 -28 456 -22 460 c 1
 -20 460 -16 462 -12 464 c 1
 24.0111 464 20.5514 458.979 28 456 c 1
 28 434 l 2x80
 26 384 24 252 24 250 c 1
 24 250 136 312 138 314 c 1
 138 316 136 344 136 382 c 2
 136 452 l 2x50
 136 456 136 456 140 460 c 1x08
 148.759 463.285 156.426 464.479 162.955 464.479 c 0
 180.072 464.479 189.367 456.271 190 456 c 1
 190 436 l 1
 188 424 188 398 188 378 c 2
 188 344 l 1
 226 364 l 2
 260 384 264 388 270 388 c 0
 280 388 288 384 296 376 c 1
 296 364 l 2
 296 344.469 296.161 346.716 238 314 c 2
 188 284 l 1x10
 186 280 186 252 184 216 c 2
 184 112 l 1x08
 197.464 125.464 227.088 145.179 265.968 145.179 c 0
 280.187 145.179 295.643 142.543 312 136 c 0
 341.269 120.505 361.645 84.2589 361.645 46.402 c 0
 361.645 40.2832 361.113 34.1222 360 28 c 0
 350.504 -28.9748 291.146 -68.0147 260 -90 c 2
 212 -126 l 1
 212 -128 206 -136 200 -140 c 1
 190.594 -158.812 177.04 -164 172 -164 c 0
 142.137 -164 147.471 -130.67 146 -88 c 0x04
 144 -58 144 -32 144 -32 c 1
 140 -40 l 1
 80.0232 -99.9768 44.3021 -119.396 26 -156 c 1
 22 -160 14 -164 8 -164 c 0
 4 -164 -4 -160 -8 -154 c 1
 -16 -148 -16 -156 -18 8 c 0
 -20 92 -20 160 -20 162 c 2
 -20 166 l 1
 -66 140 l 2
 -100 120 -112 114 -116 112 c 1
 -126.763 112 -144 117.2 -144 138 c 0
 -144 153.706 -136.008 156 -136 156 c 1x28
140 252 m 2x08
 140 256 140 256 138 256 c 1
 24 192 l 1
 24 186 l 2x48
 24 184 22 166 22 148 c 2
 20 112 l 1x20
 28 120 l 2
 48.994 138.895 70.4272 146.301 90.0604 146.301 c 0
 107.256 146.301 123.07 140.62 136 132 c 1x90
 142 126 l 1
 142 126 140 154 140 188 c 2
 140 252 l 2x08
92 40 m 0
 92 67.2493 88 92 72 100 c 1
 68.8444 102.367 64.4441 103.489 59.781 103.489 c 0
 52.6224 103.489 44.8444 100.844 40 96 c 1
 32 90 24 72 20 56 c 1
 20 -84 l 1x20
 22 -92 24 -100 24 -102 c 0
 24 -102.343 24.1177 -102.51 24.3431 -102.51 c 0
 25.4315 -102.51 29.0294 -98.6274 34 -92 c 0
 88.5253 -30.2047 92 20.6822 92 40 c 0
280 40 m 0
 280 67.6136 269.663 93.7346 254 100 c 1
 250.056 102.367 245.177 103.489 239.98 103.489 c 0
 232 103.489 223.267 100.844 216 96 c 0
 194.582 83.149 191.492 53.5001 191.492 30.7289 c 0
 191.492 21.4957 192 13.3933 192 8 c 0
 191 -16 190.5 -34.5 190.5 -50.5 c 0
 190.5 -66.5 191 -80 192 -94 c 2
 192 -100 l 1x04
 200 -96 l 1
 263.736 -37.5757 271.262 -11.6923 276 12 c 1
 280 20 280 22 280 40 c 0
EndSplineSet
EndChar
StartChar: accidentals.4
Encoding: 57622 57622 51
Width: 250
GlyphClass: 2
Flags: HMW
HStem: 28 102
VStem: 152 98<-109 -32 -34 0> 152 108<-132 -86>
Fore
96 -4 m 1xc0
 96 4 l 1
 94 4 90 8 88 8 c 1
 70 20 50 26 18 28 c 0
 4 28 2 28 0 32 c 1
 0 36 -10 128 -10 128 c 1
 -8 130 -8 132 -6 132 c 1
 -4 134 -4 136 -2 136 c 0
 0 136 20 132 44 130 c 0
 74 128 90 124 92 124 c 1
 96 122 98 118 98 100 c 0
 101.611 49.4474 120.825 32.2341 124 28 c 1
 134 38 152 56.8 152 100 c 0
 152 118 152 122 158 124 c 1
 161.567 127.567 233.532 134.316 251.899 134.316 c 0
 254.128 134.316 255.567 134.216 256 134 c 2
 256 134 258 132 260 132 c 1xa0
 260 112 250 42 250 32 c 1
 248 28 244 28 232 28 c 0
 200 26 180 20 164 8 c 1
 160 8 156 4 156 4 c 1
 152 0 l 1
 154.849 -2.84853 159.2 -8 164 -8 c 1
 180 -20 196 -24 228 -28 c 0
 244 -28 248 -28 250 -32 c 1xc0
 250 -42 260 -112 260 -132 c 1xa0
 258 -132 256 -134 256 -134 c 2
 255.567 -134.216 254.128 -134.316 251.899 -134.316 c 0
 233.532 -134.316 161.567 -127.567 158 -124 c 1
 152 -122 152 -118 152 -100 c 0
 152 -56.8 133.999 -38.0014 124 -28 c 1
 108.328 -43.6716 99.9309 -72.9677 98 -100 c 0
 98 -118 96 -122 92 -124 c 1
 88.4328 -127.567 18.0589 -134.316 0.0354625 -134.316 c 0
 -2.15114 -134.316 -3.56722 -134.216 -4 -134 c 1
 -7.1474 -134 -8.83518 -133.306 -8.83518 -126.042 c 0
 -8.83518 -119.092 -7.29007 -106.127 -4 -82 c 0
 -4 -56 0 -36 0 -32 c 1
 2 -28 4 -28 24 -28 c 1
 52 -24 72 -20 88 -8 c 1
 90 -8 94 -4 96 -4 c 1xc0
EndSplineSet
EndChar
StartChar: accidentals.rightparen
Encoding: 57623 57623 52
Width: 115
GlyphClass: 2
Flags: HMW
HStem: 224 40G<14 19>
VStem: 61 52
Fore
9 260 m 1
 9 262 14 264 15 264 c 0
 21 264 25 260 34 244 c 0
 90.0334 157.403 115.891 77.2981 115.891 -0.395773 c 0
 115.891 -82.6855 86.8838 -162.27 34 -244 c 0
 25 -260 21 -264 15 -264 c 0
 9 -264 1 -256 1 -250 c 0
 1 -241.364 65.3164 -193.614 65.3164 5.05117 c 0
 65.3164 21.0375 64.8999 38.001 64 56 c 0
 53.1096 197.576 1 244.037 1 250 c 0
 1 254 5 260 9 260 c 1
EndSplineSet
EndChar
StartChar: accidentals.leftparen
Encoding: 57624 57624 53
Width: 115
GlyphClass: 2
Flags: HMW
VStem: 2 50
Fore
95 260 m 1
 97.4853 261.657 99.799 262.627 102.012 262.627 c 0
 105.142 262.627 108.071 260.686 111 256 c 1
 112.717 254.283 113.489 252.513 113.489 250.499 c 0
 113.489 232.329 50.6381 194.28 50.6381 -3.53864 c 0
 50.6381 -19.9056 51.0683 -37.3664 52 -56 c 0
 65.0718 -201.657 115 -240.352 115 -250 c 0
 115 -256 106 -264 102 -264 c 0
 95 -264 91 -260 82 -244 c 0
 25.7484 -155.044 0.0236377 -75.7294 0.0236377 0.742947 c 0
 0.0236377 82.3119 29.2916 160.647 82 244 c 0
 86 252 92 260 95 260 c 1
EndSplineSet
EndChar
StartChar: dots.dot
Encoding: 57625 57625 54
Width: 110
GlyphClass: 2
Flags: HMW
HStem: -56 112
Fore
4 18 m 1
 4 31.5424 22.2703 56.5248 56.4616 56.5248 c 0
 62.4846 56.5248 69.0017 55.7496 76 54 c 0
 92 48 104 36 110 20 c 0
 112 12 112 12 112 0 c 0
 112 -10 112 -12 110 -18 c 0
 104 -36 92 -48 74 -52 c 1
 68 -56 64 -56 56 -56 c 0
 48 -56 44 -56 40 -52 c 2
 20 -48 10 -36 4 -18 c 1
 0 -12 0 -10 0 0 c 0
 0 10 0 12 4 18 c 1
EndSplineSet
EndChar
StartChar: noteheads.sM1
Encoding: 57626 57626 55
Width: 492
GlyphClass: 2
Flags: HMW
HStem: -138 276<-18 -18>
VStem: -40 50<-120 -80 -120 2 80 120> 484 52<-80 -40 -40 -40 40 80 80 80>
Fore
-40 120 m 1
 -36.4416 127.117 -34.2083 136 -24 136 c 0
 -22 136 -18 138 -16 138 c 0
 1.10003 138 7.95978 122.72 10 120 c 1
 10 80 l 1
 12 40 l 1
 43.8967 103.793 145.391 136.556 247.505 136.556 c 0
 343.638 136.556 440.321 107.519 480 48 c 2
 484 40 l 1
 484 80 l 1
 486 120 l 1
 492.531 133.063 501.693 138.155 510.501 138.155 c 0
 521.476 138.155 531.901 130.247 536 120 c 1
 536 -120 l 1
 531.604 -130.99 521.169 -137.149 510.668 -137.149 c 0
 502.059 -137.149 493.406 -133.01 488 -124 c 2
 486 -120 l 1
 484 -80 l 1
 484 -40 l 1
 452.463 -103.074 349.711 -136.536 246.615 -136.536 c 0
 151.465 -136.536 56.0224 -108.034 16 -48 c 2
 12 -40 l 1
 10 -80 l 1
 10 -120 l 1
 3.69467 -132.611 -5.47439 -138.188 -14.5322 -138.188 c 0
 -24.4615 -138.188 -34.2571 -131.486 -40 -120 c 1
 -40 120 l 1
342 -68 m 0
 346.916 -54.481 349.381 -39.8955 349.381 -25.0842 c 0
 349.381 41.1963 300.015 112 200 112 c 1
 163.149 102.787 146.224 65.5885 146.224 26.1187 c 0
 146.224 12.6704 148.189 -1.04158 152 -14 c 0
 169.448 -83.7918 238.181 -112.005 281.753 -112.005 c 0
 288.543 -112.005 294.721 -111.32 300 -110 c 0
 320 -104 334 -88 342 -68 c 0
EndSplineSet
EndChar
StartChar: noteheads.s0
Encoding: 57627 57627 56
Width: 492
GlyphClass: 2
Flags: HMW
HStem: 112 24
VStem: 0 494<-10 10>
Fore
0 0 m 4
 0 77.2238 112.847 138 244.311 138 c 0
 274.278 138 305.214 134.841 336 128 c 4
 400 116 456 84 480 48 c 4
 492 32 494 20 494 0 c 4
 494 -20 492 -32 480 -48 c 4
 456 -84 400 -116 336 -128 c 4
 308 -134 278 -137 247.75 -137 c 0
 217.5 -137 187 -134 158 -128 c 4
 94 -116 40 -84 16 -48 c 4
 4 -32 0 -20 0 0 c 4
342 -68 m 4
 346.916 -54.481 349.381 -39.8955 349.381 -25.0842 c 0
 349.381 41.1963 300.015 112 200 112 c 5
 163.149 102.787 146.224 65.5885 146.224 26.1187 c 0
 146.224 12.6704 148.189 -1.04158 152 -14 c 4
 169.448 -83.7918 238.181 -112.005 281.753 -112.005 c 0
 288.543 -112.005 294.721 -111.32 300 -110 c 4
 320 -104 334 -88 342 -68 c 4
EndSplineSet
EndChar
StartChar: noteheads.s1
Encoding: 57628 57628 57
Width: 345
GlyphClass: 2
Flags: HMW
HStem: 104 32
VStem: 4 340<-88 88>
Fore
232 136 m 2
 268 136 l 2
 269.813 136 272.686 136.157 276.294 136.157 c 0
 293.949 136.157 329.203 132.391 344 88 c 0
 345.79 82.6306 346.682 75.551 346.682 67.2715 c 0
 346.682 29.6643 328.277 -32.6995 292 -72 c 0
 260 -104 200 -126 136 -132 c 0
 115.978 -134.427 98.6457 -135.85 83.6682 -135.85 c 0
 39.518 -135.85 15.8276 -123.483 4 -88 c 0
 2.34772 -83.0431 1.45438 -75.8526 1.45438 -67.1247 c 0
 1.45438 -31.2696 16.5306 30.5306 56 70 c 0
 90.7477 110.539 172.154 131.567 232 136 c 2
312 84 m 1
 303.28 97.0807 292.155 104.39 275.908 104.39 c 0
 246.598 104.39 200.617 80.6041 122 24 c 0
 68 -8 44 -30 36 -44 c 1
 33.8057 -51.6802 32.2132 -59.3603 32.2132 -66.7103 c 0
 32.2132 -72.7585 33.2915 -78.583 36 -84 c 0
 43.4166 -98.8331 57.4338 -107.066 73.9722 -107.066 c 0
 79.733 -107.066 85.7998 -106.067 92 -104 c 0
 116 -94 156 -72 224 -24 c 0
 278 8 302 30 310 44 c 0
 313.303 51.7071 314.788 59.4143 314.788 66.7878 c 0
 314.788 72.8082 313.798 78.6061 312 84 c 1
EndSplineSet
EndChar
StartChar: noteheads.s2
Encoding: 57629 57629 58
Width: 326
GlyphClass: 2
Flags: HMW
VStem: 1 326
Fore
80 88 m 0
 135.066 130.829 188.792 137.03 221.612 137.03 c 0
 234.99 137.03 244.894 136 250 136 c 1
 290 126 315 104 326 72 c 1
 328 60 328 36 328 24 c 1
 303.547 -73.8134 193.395 -137.91 106.807 -137.91 c 0
 57.5183 -137.91 15.865 -117.141 2 -70 c 0
 0.828427 -64.1421 0.343146 -53.4802 0.343146 -43.2405 c 0
 0.343146 -36 0.585786 -28.9706 1 -24 c 1
 12 16 40 56 80 88 c 0
EndSplineSet
EndChar
StartChar: noteheads.s0diamond
Encoding: 57630 57630 59
Width: 492
GlyphClass: 2
Flags: W
HStem: 76.1267 60.2645<211.979 244.305>
Fore
168 100 m 0
 211.315 132.486 223.445 136.391 244.305 136.391 c 0
 250.907 136.391 258.384 136 268 136 c 1
 276 132 290 126 300 120 c 1
 304 116 316 108 326 100 c 0
 372 64 376 62 428 52 c 0
 468 44 484 36 492 20 c 1
 494 12 496 12 496 0 c 0
 496 -12 494 -12 492 -20 c 1
 484 -36 468 -44 428 -52 c 0
 376 -62 372 -64 326 -100 c 0
 295.597 -124.322 279.2 -136 248 -136 c 0
 246.973 -136 245.927 -136.007 244.854 -136.007 c 0
 230.59 -136.007 211.487 -134.789 168 -100 c 0
 124 -64 120 -62 68 -52 c 0
 18.1034 -42.4959 0 -30.9711 0 0 c 0
 0 31.1402 18.2444 42.5227 68 52 c 0
 120 62 124 64 168 100 c 0
230 72 m 1
 222.884 74.8464 216.95 76.1267 211.979 76.1267 c 0
 190.651 76.1267 187.069 52.5533 184 28 c 0
 183.57 19.39 183.324 11.7993 183.324 5.06834 c 0
 183.324 -19.471 186.583 -32.583 196 -42 c 0
 204 -50 218 -58 244 -66 c 0
 261.804 -71.9347 274.825 -75.2605 284.353 -75.2605 c 0
 303.724 -75.2605 308.659 -61.5147 310 -28 c 0
 310.449 -19.0102 310.697 -11.1316 310.697 -4.18266 c 0
 310.697 19.7878 307.753 32.6969 300 42 c 0
 290 52 266 64 230 72 c 1
EndSplineSet
EndChar
StartChar: noteheads.s1diamond
Encoding: 57631 57631 60
Width: 362
GlyphClass: 2
Flags: HMW
VStem: 2 362
Fore
164 108 m 0
 175.301 106.117 185.751 105.302 195.47 105.302 c 0
 257.481 105.302 289.704 138.448 322.922 138.448 c 0
 327.891 138.448 332.883 137.706 338 136 c 0
 352 130 364 114 364 100 c 0
 364 71.021 328.001 28.0012 328 28 c 1
 311.263 -5.47468 319.886 -44.341 308 -80 c 1
 291.557 -104.664 265.226 -110.793 237.593 -110.793 c 0
 210.289 -110.793 181.715 -104.809 160.154 -104.809 c 0
 154.997 -104.809 150.241 -105.152 146 -106 c 0
 103.382 -113.103 80.1544 -136 44 -136 c 0
 28 -136 22 -136 14 -128 c 0
 4.2 -119.6 -0.7 -109.24 -0.7 -98.978 c 0
 -0.7 -94.58 0.2 -90.2 2 -86 c 1
 6.30994 -64.4503 35.9975 -28.0025 36 -28 c 1
 53.6638 7.32755 42.24 38.72 56 80 c 1
 73.0004 105.501 103.7 111.12 128.636 111.12 c 0
 144.318 111.12 157.72 108.897 164 108 c 0
278 76 m 1
 274.098 78.6015 269.885 81.035 262.933 81.035 c 0
 247.684 81.035 219.254 69.3266 152 22 c 0
 92 -16 74 -34 72 -52 c 0
 72 -68 82 -80 98 -80 c 0
 99.0919 -80.1213 100.221 -80.1838 101.393 -80.1838 c 0
 119.544 -80.1838 148.125 -65.2096 212 -22 c 0
 258 8 282 28 288 40 c 0
 290.745 45.4903 292.077 50.9807 292.077 55.9861 c 0
 292.077 65.5677 287.196 73.3726 278 76 c 1
EndSplineSet
EndChar
StartChar: noteheads.s2diamond
Encoding: 57632 57632 61
Width: 366
GlyphClass: 2
Flags: HMW
VStem: 0 368<-104 104>
Fore
184 136 m 0
 227.445 136 236.832 125.909 258.789 125.909 c 0
 267.543 125.909 278.295 127.513 294 132 c 2
 304 132 314 136 318 136 c 0
 322 136 328 138 332 138 c 0
 360.48 134.44 368 113.846 368 100 c 0
 368 76 346.885 59.834 324 40 c 0
 288 8 284 2 260 -52 c 0
 236.796 -104.21 219.07 -136 184 -136 c 0
 139.737 -136 132.88 -126.088 110.04 -126.088 c 0
 100.983 -126.088 89.4126 -127.647 72 -132 c 0
 52 -136 48 -136 40 -136 c 2
 22 -136 l 1
 1.64366 -122.429 -0.0702755 -106.549 -0.0702755 -101.572 c 0
 -0.0702755 -85.0598 2.81697 -78.2414 44 -40 c 0
 82 -8 86 -2 108 52 c 0
 124 88 132 104 148 118 c 1
 160 132 170 136 184 136 c 0
EndSplineSet
EndChar
StartChar: noteheads.s0triangle
Encoding: 57633 57633 62
Width: 576
GlyphClass: 2
Flags: HMW
HStem: -220 402
Fore
28 182 m 0
 33.0596 182.632 36.3193 183.265 39.4866 183.265 c 0
 46.3351 183.265 52.7517 180.308 76 168 c 0
 261.156 81.881 389.541 67.3588 522 60 c 0
 552 60 556 60 560 58 c 0
 571.913 53.5326 578.282 45.739 578.282 37.0957 c 0
 578.282 34.1305 577.533 31.0653 576 28 c 0
 563.393 2.78513 523.284 16.2849 384 -48 c 0
 304 -86 236 -136 170 -200 c 0
 148 -220 148 -220 132 -220 c 0
 110 -218 94 -210 92 -198 c 1
 92 -193.494 102.081 -157.612 102.081 -105.631 c 0
 102.081 -48.9571 90.0976 26.8536 40 102 c 0
 30 116 16 134 8 144 c 0
 1.37528 150.625 -1.60141 156.708 -1.60141 161.995 c 0
 -1.60141 172.423 9.98399 179.748 28 182 c 0
392 18 m 1
 373.753 22.5617 298.041 30.2741 208 56 c 2
 132 82 l 1
 140 68 l 2
 164 16 176 -36 176 -92 c 2
 176 -108 l 1
 188 -98 l 2
 246 -52 312 -12 380 14 c 2
 392 18 l 1
EndSplineSet
EndChar
StartChar: noteheads.d1triangle
Encoding: 57634 57634 63
Width: 416
GlyphClass: 2
Flags: HMW
VStem: 0 416
Fore
72 -104 m 0
 72.2978 -98.0442 72.4404 -92.1823 72.4404 -86.4161 c 0
 72.4404 43.561 -1.01725e-05 124.9 0 136 c 1
 -0.661573 137.985 -0.969528 139.916 -0.969528 141.779 c 0
 -0.969528 155.831 16.553 166 32 166 c 1
 40 164 l 1
 58 154 l 2
 164.041 84.5251 275.586 61.9366 374 58 c 0
 396 56 400 56 404 56 c 1
 412.785 50.1436 418.354 42.1436 418.354 33.5692 c 0
 418.354 30.4308 417.608 27.2154 416 24 c 0
 412 16 406 12 384 4 c 0
 280 -32 194 -92 124 -184 c 0
 115.966 -194.042 105.997 -198.114 96.4384 -198.114 c 0
 85.055 -198.114 74.2545 -192.339 68 -184 c 0
 65.9224 -180.884 65.1453 -178.218 65.1453 -174.978 c 0
 65.1453 -165.354 72 -150.657 72 -104 c 0
276 16 m 1
 268.681 16.0002 152.8 43.5999 108 66 c 0
 104 68 102 68 102 68 c 1
 102 68 104 64 104 60 c 1
 120 22 128 -20 132 -68 c 2
 134 -86 l 1
 144 -76 l 2
 180 -44 228 -10 268 12 c 1
 272 12 276 16 276 16 c 1
EndSplineSet
EndChar
StartChar: noteheads.u1triangle
Encoding: 57635 57635 64
Width: 416
GlyphClass: 2
Flags: HMW
VStem: 0 416
Fore
72 -104 m 0
 72.2978 -98.0442 72.4404 -92.1823 72.4404 -86.4161 c 0
 72.4404 43.561 -1.01725e-05 124.9 0 136 c 1
 -0.661573 137.985 -0.969528 139.916 -0.969528 141.779 c 0
 -0.969528 155.831 16.553 166 32 166 c 1
 40 164 l 1
 58 154 l 2
 164.041 84.5251 275.586 61.9366 374 58 c 0
 396 56 400 56 404 56 c 1
 412.785 50.1436 418.354 42.1436 418.354 33.5692 c 0
 418.354 30.4308 417.608 27.2154 416 24 c 0
 412 16 406 12 384 4 c 0
 280 -32 194 -92 124 -184 c 0
 115.966 -194.042 105.997 -198.114 96.4384 -198.114 c 0
 85.055 -198.114 74.2545 -192.339 68 -184 c 0
 65.9224 -180.884 65.1453 -178.218 65.1453 -174.978 c 0
 65.1453 -165.354 72 -150.657 72 -104 c 0
276 16 m 1
 268.681 16.0002 152.8 43.5999 108 66 c 0
 104 68 102 68 102 68 c 1
 102 68 104 64 104 60 c 1
 120 22 128 -20 132 -68 c 2
 134 -86 l 1
 144 -76 l 2
 180 -44 228 -10 268 12 c 1
 272 12 276 16 276 16 c 1
EndSplineSet
EndChar
StartChar: noteheads.u2triangle
Encoding: 57636 57636 65
Width: 346
GlyphClass: 2
Flags: HMW
HStem: -198 362
VStem: 0 340
Fore
56 -156 m 2
 59.121 -133.113 60.4782 -111.345 60.4782 -90.7805 c 0
 60.4782 46.499 3.8147e-06 130.208 0 136 c 1
 -2 148 4 160 16 164 c 0
 19.4919 165.164 22.4758 165.82 25.3951 165.82 c 0
 32.5081 165.82 39.2379 161.926 52 152 c 0
 147.093 76.7182 269.771 56 320 56 c 2
 332 56 l 1
 342.668 51.2586 348.419 42.302 348.419 32.8776 c 0
 348.419 26.4005 345.703 19.7025 340 14 c 0
 336 10 334 8 320 4 c 0
 232 -34 160 -94 108 -176 c 0
 97.4558 -191.816 91.5442 -198.368 80.7672 -198.368 c 0
 79.2792 -198.368 77.6985 -198.243 76 -198 c 0
 68 -196 56 -188 56 -178 c 2
 56 -156 l 2
EndSplineSet
EndChar
StartChar: noteheads.d2triangle
Encoding: 57637 57637 66
Width: 346
GlyphClass: 2
Flags: HMW
HStem: -198 362
VStem: 0 340
Fore
56 -156 m 2
 59.121 -133.113 60.4782 -111.345 60.4782 -90.7805 c 0
 60.4782 46.499 3.8147e-06 130.208 0 136 c 1
 -2 148 4 160 16 164 c 0
 19.4919 165.164 22.4758 165.82 25.3951 165.82 c 0
 32.5081 165.82 39.2379 161.926 52 152 c 0
 147.093 76.7182 269.771 56 320 56 c 2
 332 56 l 1
 342.668 51.2586 348.419 42.302 348.419 32.8776 c 0
 348.419 26.4005 345.703 19.7025 340 14 c 0
 336 10 334 8 320 4 c 0
 232 -34 160 -94 108 -176 c 0
 97.4558 -191.816 91.5442 -198.368 80.7672 -198.368 c 0
 79.2792 -198.368 77.6985 -198.243 76 -198 c 0
 68 -196 56 -188 56 -178 c 2
 56 -156 l 2
EndSplineSet
EndChar
StartChar: noteheads.s0slash
Encoding: 57638 57638 67
Width: 752
GlyphClass: 2
Flags: HMW
HStem: -262 70<118 260 260 330> 192 72<469 496 496 636>
Fore
316 262 m 1
 316 264 406 264 532 264 c 0
 744 264 748 262 752 260 c 1
 752 258.667 753.778 255.556 753.778 252.444 c 0
 753.778 250.889 753.333 249.333 752 248 c 1
 752 244 444 -260 440 -260 c 1
 440 -262 438 -262 222 -262 c 0
 12 -262 4 -262 4 -260 c 1
 0 -258 0 -252 0 -248 c 1
 2 -248 300 242 310 256 c 0
 312 260 314 260 316 262 c 1
632 184 m 1
 636 192 l 1
 352 192 l 1
 350 188 136 -160 122 -184 c 2
 116 -192 l 1
 400 -192 l 1
 512 -8 l 1
 632 184 l 1
EndSplineSet
EndChar
StartChar: noteheads.s1slash
Encoding: 57639 57639 68
Width: 585
GlyphClass: 2
Flags: HMW
HStem: -262 70<116 176 176 204> 192 72<410 412 352 512 412 468>
Fore
316 262 m 1
 316 264 372 264 448 264 c 0
 576 264 580 262 584 260 c 1
 584 258.667 585.778 255.556 585.778 252.444 c 0
 585.778 250.889 585.333 249.333 584 248 c 1
 584 244 276 -260 272 -260 c 1
 272 -262 270 -262 138 -262 c 0
 8 -262 4 -262 4 -260 c 1
 0 -258 0 -252 0 -248 c 1
 2 -248 300 242 310 256 c 0
 312 260 314 260 316 262 c 1
464 184 m 1
 468 192 l 1
 352 192 l 1
 350 188 136 -160 122 -184 c 2
 116 -192 l 1
 232 -192 l 1
 344 -8 l 1
 464 184 l 1
EndSplineSet
EndChar
StartChar: noteheads.s2slash
Encoding: 57640 57640 69
Width: 426
GlyphClass: 2
Flags: HMW
HStem: 224 40G<356 396>
VStem: 0 428
Fore
316 262 m 1
 316 264 340 264 372 264 c 0
 420 264 424 262 426 260 c 0
 427.414 258.586 428.828 255.172 428.828 251.879 c 0
 428.828 250.515 428.586 249.172 428 248 c 0
 426 244 118 -260 116 -260 c 1
 114 -262 112 -262 60 -262 c 0
 8 -262 4 -262 4 -260 c 1
 0 -258 0 -252 0 -248 c 1
 2 -248 300 242 310 256 c 0
 312 260 314 260 316 262 c 1
EndSplineSet
EndChar
StartChar: noteheads.s0cross
Encoding: 57641 57641 70
Width: 426
GlyphClass: 2
Flags: HMW
VStem: 2 426<86 86>
Fore
94 148 m 2
 96 149 98.5 149.5 100.75 149.5 c 0
 103 149.5 105 149 106 148 c 1
 108 148 132 132 162 112 c 2
 216 76 l 1
 268 112 l 2
 296 132 322 148 324 148 c 1
 326.09 149.045 327.633 149.817 329.629 149.817 c 0
 335.275 149.817 344.538 143.641 380 120 c 0
 404 104 426 88 428 88 c 1
 429 86 429.5 82 429.5 78 c 0
 429.5 74 429 70 428 68 c 1
 426 68 404 52 376 34 c 2
 328 0 l 1
 376 -34 l 2
 404 -52 426 -68 428 -68 c 1
 429 -70 429.5 -74 429.5 -78 c 0
 429.5 -82 429 -86 428 -88 c 1
 426 -88 404 -104 380 -120 c 0
 344.538 -143.641 335.275 -149.817 329.629 -149.817 c 0
 327.633 -149.817 326.09 -149.045 324 -148 c 1
 322 -148 296 -132 268 -112 c 2
 216 -76 l 1
 162 -112 l 2
 132 -132 108 -148 106 -148 c 1
 104.433 -149.045 103.138 -149.817 101.19 -149.817 c 0
 95.6803 -149.817 84.9398 -143.641 48 -120 c 0
 24 -104 4 -88 4 -88 c 1
 2 -86 1 -82 1 -78 c 0
 1 -74 2 -70 4 -68 c 1
 104 0 l 1
 4 68 l 1
 1.65685 70.3431 0.686292 74.7452 0.686292 78.7939 c 0
 0.686292 81.6569 1.17157 84.3431 2 86 c 1
 4 88 88 148 94 148 c 2
220 42 m 1
 210 42 l 1
 156 76 l 2
 128 96 104 112 102 114 c 0
 101.613 114.387 101.294 114.716 100.642 114.716 c 0
 97.9226 114.716 89.4076 109.005 46 78 c 1
 46 74.5243 138.756 13.2436 144 8 c 1
 146 4 146 -4 144 -8 c 1
 135.674 -16.3256 44 -75.0466 44 -78 c 0
 44 -80 100 -116 100 -116 c 1
 210 -40 l 1
 220 -40 l 1
 330 -116 l 1
 332 -116 384 -80 384 -78 c 0
 384 -76 364 -62 336 -44 c 0
 310 -26 288 -10 288 -8 c 2
 284 -4 284 4 288 8 c 2
 288 10 310 26 336 44 c 0
 364 62 384 76 384 78 c 0
 384 80 332 116 330 116 c 1
 276 78 l 1
 220 42 l 1
EndSplineSet
EndChar
StartChar: noteheads.s1cross
Encoding: 57642 57642 71
Width: 376
GlyphClass: 2
Flags: HMW
HStem: -144 288<74 76 76 84 296 304 72 296>
VStem: 2 376<-90 -74 74 90>
Fore
72 144 m 1
 84 144 l 2
 86 144 110 124 138 104 c 2
 190 64 l 1
 242 104 l 2
 272 128 296 144 296 144 c 1
 304 144 l 2
 308 144 376 94 378 90 c 1
 379 89 379.5 85.5 379.5 82 c 0
 379.5 78.5 379 75 378 74 c 0
 376 72 354 56 328 36 c 2
 280 0 l 1
 328 -36 l 2
 354 -56 376 -72 378 -74 c 0
 379 -75 379.5 -78.5 379.5 -82 c 0
 379.5 -85.5 379 -89 378 -90 c 1
 376 -94 308 -144 304 -144 c 2
 296 -144 l 1
 296 -144 272 -128 242 -104 c 2
 190 -64 l 1
 138 -104 l 2
 108 -128 84 -144 84 -144 c 1
 76 -144 l 2
 72 -144 4 -94 2 -90 c 1
 1 -89 0.5 -85.5 0.5 -82 c 0
 0.5 -78.5 1 -75 2 -74 c 0
 4 -72 26 -56 52 -36 c 2
 100 0 l 1
 52 36 l 2
 26 56 4 72 2 74 c 0
 1 75 0.5 78.5 0.5 82 c 0
 0.5 85.5 1 89 2 90 c 0
 4 92 68 140 72 144 c 1
240 8 m 1
 240 13.7234 336 77.0281 336 82 c 1
 336 82 328 88 320 96 c 1
 300 108 l 1
 280.696 90.7166 196.927 32 192 32 c 2
 188 32 l 2
 184 32 166 44 132 70 c 2
 80 108 l 1
 78 108 44 84 44 82 c 1
 67.9925 60.4072 140 12.9801 140 8 c 1
 142 4 142 -4 140 -8 c 1
 140 -13.7234 44 -77.0281 44 -82 c 1
 44 -82 52 -88 60 -96 c 1
 80 -108 l 1
 84.8232 -103.752 182.81 -32 188 -32 c 2
 192 -32 l 2
 196 -32 212 -44 244 -66 c 2
 296 -104 l 1
 300 -108 l 1
 320 -96 l 1
 328 -88 336 -82 336 -82 c 1
 336 -77.057 240 -13.709 240 -8 c 1
 238 -4 238 4 240 8 c 1
EndSplineSet
EndChar
StartChar: noteheads.s2cross
Encoding: 57643 57643 72
Width: 326
GlyphClass: 2
Flags: HMW
HStem: -136 272<30 32 32 44 30 288 288 300>
VStem: 0 330<-109 -102 102 109>
Fore
0 106 m 0
 0 119.225 29.2842 136 30 136 c 2
 31.6906 137.691 33.7385 138.309 35.8416 138.309 c 0
 38.7145 138.309 41.6906 137.155 44 136 c 1
 164 36 l 1
 224 84 l 2
 256 112 284 136 288 136 c 1
 290.309 137.155 292.619 138.309 294.928 138.309 c 0
 300 136 l 1
 312.567 129.717 330 118 330 106 c 0
 330 100 328 98 268 48 c 2
 210 0 l 1
 268 -48 l 2
 328 -98 330 -100 330 -106 c 0
 330 -121.657 300.57 -135.525 300 -136 c 0
 298.309 -137.691 296.619 -138.309 294.928 -138.309 c 0
 288 -136 l 1
 284 -136 256 -112 224 -84 c 2
 164 -36 l 1
 44 -136 l 1
 41.6906 -137.155 39.3812 -138.309 37.0718 -138.309 c 0
 32 -136 l 2
 27.5922 -136 0 -118.556 0 -106 c 0
 0 -100 0 -98 60 -48 c 2
 120 0 l 1
 60 48 l 2
 0 98 0 100 0 106 c 0
EndSplineSet
EndChar
StartChar: noteheads.s2xcircle
Encoding: 57644 57644 73
Width: 388
GlyphClass: 2
Flags: HMW
HStem: 136 36
VStem: 352 38<-10 0 0 10 -10 26 -10 26>
Fore
390 0 m 0
 390 -103.2 300.844 -172 196 -172 c 0
 96.2652 -172 38.2739 -110.822 32 -92 c 1
 10.4453 -67.751 -0.122121 -33.9273 -0.122121 -0.197214 c 0
 -0.122121 33.9856 10.7309 68.0723 32 92 c 1
 55.9583 131.93 108.851 161.609 166 172 c 1
 228 172 l 1
 302.628 158.431 390 104.548 390 0 c 0
216 136 m 1
 210.741 136.376 205.665 136.552 200.762 136.552 c 0
 156.868 136.552 126.777 122.388 102 110 c 1
 100 108 104 104 148 68 c 0
 172 44 196 26 196 26 c 1
 244 68 l 2
 279.947 97.4115 289.196 105.464 289.196 108.517 c 0
 289.196 109.201 288.732 109.634 288 110 c 0
 284 112 266 122 256 124 c 2
 246 128 228 132 216 136 c 1
168 0 m 1
 72 84 l 1
 67.069 84 36.9346 40.7926 36.9346 -3.1127 c 0
 36.9346 -10.7964 37.8575 -18.5014 40 -26 c 0
 55.3077 -71.9231 71.9616 -84 72 -84 c 1
 168 0 l 1
320 -84 m 1
 331.547 -69.5657 340.517 -60.4499 352 -26 c 1
 352 26 l 1
 342.972 53.0845 336.836 64.3558 320 84 c 1
 224 0 l 1
 320 -84 l 1
244 -68 m 0
 220 -44 196 -26 196 -26 c 1
 196 -24 180 -40 148 -68 c 0
 104 -104 100 -108 102 -110 c 1
 103.944 -110 142.857 -137.175 196.72 -137.175 c 0
 220.812 -137.175 247.896 -131.738 276 -116 c 2
 288 -110 l 2
 288.732 -109.634 289.196 -109.201 289.196 -108.517 c 0
 289.196 -105.464 279.947 -97.4115 244 -68 c 0
EndSplineSet
EndChar
StartChar: noteheads.s0do
Encoding: 57645 57645 74
Width: 492
GlyphClass: 2
Flags: HMW
HStem: -136 272<14 260 240 260 240 478>
Fore
496 -112 m 0
 496 -121.272 487.056 -136 478 -136 c 1
 475 -138 361 -139 247 -139 c 0
 133 -139 19 -138 16 -136 c 2
 12 -136 6 -132 4 -124 c 2
 0 -120 0 -120 0 -112 c 0
 0 -108 0 -104 4 -100 c 1
 4 -96 40 -60 118 18 c 0
 228 128 232 134 240 136 c 1
 241.333 137.333 243.556 137.778 246.074 137.778 c 0
 251.111 137.778 257.333 136 260 136 c 1
 264 132 488 -94 492 -100 c 0
 494 -104 496 -108 496 -112 c 0
408 -88 m 1
 248 76 l 1
 186 14 l 2
 152 -20 116 -56 106 -68 c 2
 88 -88 l 1
 248 -88 l 1
 408 -88 l 1
EndSplineSet
EndChar
StartChar: noteheads.d1do
Encoding: 57646 57646 75
Width: 410
GlyphClass: 2
Flags: HMW
HStem: -136 272<196 196 196 396>
Fore
188 132 m 1
 190.4 132 197.408 138.144 207.275 138.144 c 0
 212.208 138.144 217.856 136.608 224 132 c 1
 230 124 408 -96 410 -102 c 0
 412 -108 412 -108 412 -114 c 0
 412 -124 406 -132 396 -136 c 1
 394 -138 300.5 -139 206.75 -139 c 0
 113 -139 19 -138 16 -136 c 0
 8 -132 0 -124 0 -114 c 0
 0 -108 0 -108 4 -102 c 2
 6 -96 184 124 188 132 c 1
272 -10 m 2
 238 32 210 68 208 68 c 1
 208 72 l 1
 80 -86 l 1
 144 -88 l 1
 272 -88 l 1
 334 -86 l 1
 272 -10 l 2
EndSplineSet
EndChar
StartChar: noteheads.s1do
Encoding: 57647 57647 76
Width: 410
GlyphClass: 2
Flags: HMW
HStem: -136 272<196 196 196 396>
Fore
188 132 m 1
 190.4 132 197.408 138.144 207.275 138.144 c 0
 212.208 138.144 217.856 136.608 224 132 c 1
 230 124 408 -96 410 -102 c 0
 412 -108 412 -108 412 -114 c 0
 412 -124 406 -132 396 -136 c 1
 394 -138 300.5 -139 206.75 -139 c 0
 113 -139 19 -138 16 -136 c 0
 8 -132 0 -124 0 -114 c 0
 0 -108 0 -108 4 -102 c 2
 6 -96 184 124 188 132 c 1
272 -10 m 2
 238 32 210 68 208 68 c 1
 208 72 l 1
 80 -86 l 1
 144 -88 l 1
 272 -88 l 1
 334 -86 l 1
 272 -10 l 2
EndSplineSet
EndChar
StartChar: noteheads.d2do
Encoding: 57648 57648 77
Width: 425
GlyphClass: 2
Flags: HMW
HStem: -136 272<206 224 206 408>
Fore
206 136 m 1
 208 137.333 210.222 137.778 212.444 137.778 c 0
 216.889 137.778 221.333 136 224 136 c 1
 228 132 250 108 324 18 c 0
 384 -52 422 -100 424 -102 c 1
 426 -108 426 -108 426 -114 c 1
 424 -124 420 -132 408 -136 c 1
 406 -138 309.5 -139 212.75 -139 c 0
 116 -139 19 -138 16 -136 c 0
 8 -132 0 -124 0 -114 c 0
 0 -108 0 -108 4 -102 c 2
 6 -96 196 132 200 134 c 2
 202 136 204 136 206 136 c 1
EndSplineSet
EndChar
StartChar: noteheads.s2do
Encoding: 57649 57649 78
Width: 425
GlyphClass: 2
Flags: HMW
HStem: -136 272<206 224 206 408>
Fore
206 136 m 1
 208 137.333 210.222 137.778 212.444 137.778 c 0
 216.889 137.778 221.333 136 224 136 c 1
 228 132 250 108 324 18 c 0
 384 -52 422 -100 424 -102 c 1
 426 -108 426 -108 426 -114 c 1
 424 -124 420 -132 408 -136 c 1
 406 -138 309.5 -139 212.75 -139 c 0
 116 -139 19 -138 16 -136 c 0
 8 -132 0 -124 0 -114 c 0
 0 -108 0 -108 4 -102 c 2
 6 -96 196 132 200 134 c 2
 202 136 204 136 206 136 c 1
EndSplineSet
EndChar
StartChar: noteheads.s0re
Encoding: 57650 57650 79
Width: 492
GlyphClass: 2
Flags: HMW
VStem: 0 52<72 88 48 120> 444 50<50 62 62 72 50 88 50 88>
Fore
0 120 m 1
 6.3976 126.398 7.55078 136 16 136 c 1
 19 138 133 139 247 139 c 0
 361 139 475 138 478 136 c 2
 484 136 488 132 492 124 c 1
 496 120 l 1
 494 72 l 2
 494 28 494 24 492 16 c 0
 478.637 -57.4976 407.717 -122.254 284 -136 c 0
 273.963 -137.434 262.108 -138.241 249.034 -138.241 c 0
 163.483 -138.241 25.7601 -103.681 4 16 c 1
 0 24 0 28 0 72 c 2
 0 120 l 1
444 28 m 1
 444 88 l 1
 52 88 l 1
 52 62 l 2
 52 32 52 24 56 8 c 1
 76 -40 132 -76 212 -84 c 1
 217.614 -85.604 229.064 -86.8042 244.02 -86.8042 c 0
 305.203 -86.8042 425.057 -66.7162 444 28 c 1
EndSplineSet
EndChar
StartChar: noteheads.u1re
Encoding: 57651 57651 80
Width: 410
GlyphClass: 2
Flags: HMW
HStem: -136 272<168 208 168 168 208 244>
VStem: 0 52<74 88 45 120> 362 50<62 80 80 88 88 88>
Fore
0 120 m 1
 6.3976 126.398 7.55078 136 16 136 c 1
 19 138 113 139 206.75 139 c 0
 300.5 139 394 138 396 136 c 2
 407.826 136 412 120 412 120 c 2
 412 28 l 2
 404 -54 336 -118 244 -136 c 1
 168 -136 l 1
 90 -120 30 -72 8 -6 c 0
 0 16 0 20 0 74 c 2
 0 120 l 1
362 62 m 2
 362 88 l 1
 52 88 l 1
 52 62 l 2
 52 28 54 12 64 -8 c 0
 90.0653 -60.1306 147.234 -85.993 204.845 -85.993 c 0
 268.438 -85.993 332.57 -54.4801 356 8 c 0
 360 22 362 32 362 62 c 2
EndSplineSet
EndChar
StartChar: noteheads.d1re
Encoding: 57652 57652 81
Width: 410
GlyphClass: 2
Flags: HMW
HStem: -136 272<168 208 168 168 208 244>
VStem: 0 52<74 88 45 120> 362 50<62 80 80 88 88 88>
Fore
0 120 m 1
 6.3976 126.398 7.55078 136 16 136 c 1
 19 138 113 139 206.75 139 c 0
 300.5 139 394 138 396 136 c 2
 407.826 136 412 120 412 120 c 2
 412 28 l 2
 404 -54 336 -118 244 -136 c 1
 168 -136 l 1
 90 -120 30 -72 8 -6 c 0
 0 16 0 20 0 74 c 2
 0 120 l 1
362 62 m 2
 362 88 l 1
 52 88 l 1
 52 62 l 2
 52 28 54 12 64 -8 c 0
 90.0653 -60.1306 147.234 -85.993 204.845 -85.993 c 0
 268.438 -85.993 332.57 -54.4801 356 8 c 0
 360 22 362 32 362 62 c 2
EndSplineSet
EndChar
StartChar: noteheads.u2re
Encoding: 57653 57653 82
Width: 425
GlyphClass: 2
Flags: HMW
HStem: -136 272<180 248>
Fore
0 120 m 1
 6.3976 126.398 7.55078 136 16 136 c 1
 19 138 116 139 212.75 139 c 0
 309.5 139 406 138 408 136 c 2
 418.8 136 422.005 127.989 426 120 c 1
 426 80 l 2
 426 6.98781 417.153 -34.2762 376 -72 c 0
 329.206 -121.719 267.944 -137.915 214.408 -137.915 c 0
 167.182 -137.915 125.967 -125.312 106 -112 c 1
 46 -84 8 -32 0 28 c 2
 0 120 l 1
EndSplineSet
EndChar
StartChar: noteheads.d2re
Encoding: 57654 57654 83
Width: 425
GlyphClass: 2
Flags: HMW
HStem: -136 272<180 248>
Fore
0 120 m 1
 6.3976 126.398 7.55078 136 16 136 c 1
 19 138 116 139 212.75 139 c 0
 309.5 139 406 138 408 136 c 2
 418.8 136 422.005 127.989 426 120 c 1
 426 80 l 2
 426 6.98781 417.153 -34.2762 376 -72 c 0
 329.206 -121.719 267.944 -137.915 214.408 -137.915 c 0
 167.182 -137.915 125.967 -125.312 106 -112 c 1
 46 -84 8 -32 0 28 c 2
 0 120 l 1
EndSplineSet
EndChar
StartChar: noteheads.s0mi
Encoding: 57655 57655 84
Width: 492
GlyphClass: 2
Flags: HMW
VStem: 4 492<-2 2 -2 12 -2 12>
Fore
488 -20 m 1
 480.001 -20 265.9 -138 248 -138 c 0
 244 -138 240 -136 212 -124 c 0
 132 -84 10 -20 8 -20 c 1
 8 -18 4 -14 4 -12 c 2
 2 -8 1 -4 1 0 c 0
 1 4 2 8 4 12 c 2
 4 14 8 18 8 20 c 1
 10 20 132 84 212 124 c 0
 240 136 244 138 248 138 c 0
 265.71 138 479.957 20 488 20 c 1
 488 15.2685 496 8.9797 496 0 c 0
 496 -9.16433 488 -15.0789 488 -20 c 1
398 -8 m 1
 286 50 l 1
 232 76 l 1
 96 8 l 1
 96 6 260 -76 262 -76 c 0
 264 -76 398 -8 398 -8 c 1
EndSplineSet
EndChar
StartChar: noteheads.s1mi
Encoding: 57656 57656 85
Width: 438
GlyphClass: 2
Flags: HMW
HStem: -136 274<214 221 219 221 219 224>
VStem: 0 440<-2 2>
Fore
212 136 m 0
 214 136 218 138 220 138 c 0
 222 138 226 136 228 136 c 0
 232 136 428 20 432 20 c 1
 432 16 436 14 436 12 c 1
 440 8 440 6 440 0 c 0
 440 -6 440 -8 436 -12 c 1
 436 -14 432 -16 432 -20 c 1
 330 -80 l 2
 256 -120 228 -136 224 -136 c 1
 223 -137 221.5 -137.5 220 -137.5 c 0
 218.5 -137.5 217 -137 216 -136 c 1
 212 -136 184 -120 110 -80 c 2
 8 -20 l 1
 8 -16 4 -14 4 -12 c 1
 0 -8 0 -6 0 0 c 0
 0 6 0 8 4 12 c 1
 4 14 8 16 8 20 c 1
 12 20 208 136 212 136 c 0
352 -8 m 1
 260 44 l 1
 208 76 l 1
 88 8 l 1
 232 -76 l 1
 292 -40 l 1
 352 -8 l 1
EndSplineSet
EndChar
StartChar: noteheads.s2mi
Encoding: 57657 57657 86
Width: 452
GlyphClass: 2
Flags: W
Fore
220 136 m 1
 220 136 224 138 228 138 c 1
 228 138 232 136 236 136 c 0
 240 136 444 20 446 20 c 1
 448 16 448 14 452 12 c 1
 452 8 454 6 454 0 c 0
 454 -6 452 -8 452 -12 c 1
 448 -14 448 -16 446 -20 c 1
 444 -20 396 -48 340 -80 c 0
 268 -118 236 -136 232 -136 c 2
 230 -137 228 -137.5 226.25 -137.5 c 0
 224.5 -137.5 223 -137 222 -136 c 1
 220 -136 184 -118 114 -80 c 2
 8 -20 l 1
 8 -16 4 -14 4 -12 c 1
 0 -8 0 -6 0 0 c 0
 0 6 0 8 4 12 c 1
 4 14 8 16 8 20 c 1
 12 20 214 136 220 136 c 1
EndSplineSet
EndChar
StartChar: noteheads.d0fa
Encoding: 57658 57658 87
Width: 492
GlyphClass: 2
Flags: HMW
VStem: 444 52<-38 2 2 8 8 88 88 88>
Fore
16 136 m 2
 19 138 133 139 247 139 c 0
 361 139 475 138 478 136 c 2
 484 136 488 132 492 124 c 1
 496 120 l 1
 496 2 l 2
 496 -25.1158 496.091 -46.3055 496.091 -63.0069 c 0
 496.091 -123.206 494.907 -125.093 484 -136 c 1
 479.381 -137.155 474.762 -138.309 470.913 -138.309 c 0
 468.096 -138.309 465.691 -137.691 464 -136 c 1
 456 -136 12 90 8 92 c 1
 4 96 0 104 0 112 c 0
 0 120 0 120 4 124 c 2
 6 132 12 136 16 136 c 2
444 -72 m 1
 444 88 l 1
 288 88 l 2
 160 88 132 88 136 86 c 1
 136 84 192 56 258 24 c 2
 412 -54 l 1
 444 -72 l 1
EndSplineSet
EndChar
StartChar: noteheads.u0fa
Encoding: 57659 57659 88
Width: 492
GlyphClass: 2
Flags: HMW
VStem: 0 52<-88 -8 -8 0 0 72>
Fore
0 120 m 1
 6.3976 126.398 7.55078 136 16 136 c 0
 20 136 24 138 28 138 c 1
 32 136 36 136 60 124 c 0
 264 20 484 -92 486 -92 c 1
 492 -96 496 -104 496 -112 c 0
 496 -121.272 487.056 -136 478 -136 c 1
 475 -138 361 -139 247 -139 c 0
 133 -139 19 -138 16 -136 c 2
 12 -136 6 -132 4 -124 c 1
 0 -120 l 1
 0 120 l 1
238 -24 m 2
 84 54 l 1
 52 72 l 1
 52 -88 l 1
 208 -88 l 2
 336 -88 362 -88 360 -86 c 1
 360 -84 304 -56 238 -24 c 2
EndSplineSet
EndChar
StartChar: noteheads.d1fa
Encoding: 57660 57660 89
Width: 410
GlyphClass: 2
Flags: HMW
HStem: -136 272
VStem: 362 50<12 88 88 88>
Fore
396 136 m 2
 407.826 136 412 120 412 120 c 2
 412 -120 l 1
 408.917 -130.79 398.707 -138.016 387.778 -138.016 c 0
 384.526 -138.016 381.21 -137.376 378 -136 c 1
 372 -132 14 88 8 92 c 1
 4 96 0 104 0 112 c 0
 0 120 0 120 4 124 c 2
 6 132 12 136 16 136 c 2
 19 138 113 139 206.75 139 c 0
 300.5 139 394 138 396 136 c 2
362 12 m 2
 362 88 l 1
 240 88 l 2
 168 88 116 88 116 86 c 1
 118 84 360 -66 360 -66 c 1
 362 -66 362 -32 362 12 c 2
EndSplineSet
EndChar
StartChar: noteheads.u1fa
Encoding: 57661 57661 90
Width: 410
GlyphClass: 2
Flags: HMW
VStem: 0 52<-88 -10 -10 0 0 66>
Fore
0 120 m 1
 6.3976 126.398 7.55078 136 16 136 c 1
 19.3812 137.691 22.4051 138.309 25.2228 138.309 c 0
 29.0718 138.309 32.5359 137.155 36 136 c 1
 40 132 400 -88 404 -92 c 1
 410 -96 412 -104 412 -112 c 0
 412 -133.206 400.638 -136 396 -136 c 2
 394 -138 300.5 -139 206.75 -139 c 0
 113 -139 19 -138 16 -136 c 2
 12 -136 6 -132 4 -124 c 1
 0 -120 l 1
 0 120 l 1
296 -86 m 1
 52 66 l 1
 52 -88 l 1
 174 -88 l 2
 244 -88 296 -88 296 -86 c 1
EndSplineSet
EndChar
StartChar: noteheads.u2fa
Encoding: 57662 57662 91
Width: 425
GlyphClass: 2
Flags: HMW
HStem: -136 272
Fore
408 136 m 2
 418.8 136 422.005 127.989 426 120 c 1
 426 2 l 2
 426 -76 426 -116 424 -120 c 0
 420.917 -130.79 410.707 -138.016 400.693 -138.016 c 0
 397.714 -138.016 394.752 -137.376 392 -136 c 0
 384 -132 14 88 8 92 c 1
 4 96 0 104 0 112 c 0
 0 120 0 120 4 124 c 2
 6 132 12 136 16 136 c 2
 19 138 116 139 212.75 139 c 0
 309.5 139 406 138 408 136 c 2
EndSplineSet
EndChar
StartChar: noteheads.d2fa
Encoding: 57663 57663 92
Width: 425
GlyphClass: 2
Flags: W
Fore
0 120 m 1
 6.3976 126.398 7.55078 136 16 136 c 1
 19.3812 137.691 22.4051 138.309 25.2228 138.309 c 0
 29.0718 138.309 32.5359 137.155 36 136 c 1
 42 132 412 -88 416 -92 c 1
 424 -96 426 -104 426 -112 c 0
 426 -120 424 -120 424 -124 c 1
 420 -132 416 -136 408 -136 c 1
 406 -138 309.5 -139 212.75 -139 c 0
 116 -139 19 -138 16 -136 c 2
 12 -136 6 -132 4 -124 c 1
 0 -120 l 1
 0 120 l 1
EndSplineSet
EndChar
StartChar: noteheads.s0la
Encoding: 57664 57664 93
Width: 492
GlyphClass: 2
Flags: HMW
VStem: 0 52<-88 0 -88 0 0 88> 444 52<-88 0 0 88 88 88>
Fore
0 120 m 1
 6.3976 126.398 7.55078 136 16 136 c 1
 19 138 133 139 247 139 c 0
 361 139 475 138 478 136 c 2
 484 136 488 132 492 124 c 1
 496 120 l 1
 496 -120 l 1
 487.95 -128.05 487.093 -136 478 -136 c 2
 475 -138 361 -139 247 -139 c 0
 133 -139 19 -138 16 -136 c 2
 12 -136 6 -132 4 -124 c 1
 0 -120 l 1
 0 120 l 1
444 -88 m 1
 444 88 l 1
 52 88 l 1
 52 -88 l 1
 444 -88 l 1
EndSplineSet
EndChar
StartChar: noteheads.s1la
Encoding: 57665 57665 94
Width: 410
GlyphClass: 2
Flags: HMW
VStem: 0 52<-88 0 -88 0 0 88> 362 50<-88 0 0 88 88 88>
Fore
0 120 m 1
 6.3976 126.398 7.55078 136 16 136 c 1
 19 138 113 139 206.75 139 c 0
 300.5 139 394 138 396 136 c 2
 407.826 136 412 120 412 120 c 2
 412 -120 l 1
 408.442 -127.117 406.208 -136 396 -136 c 2
 394 -138 300.5 -139 206.75 -139 c 0
 113 -139 19 -138 16 -136 c 2
 12 -136 6 -132 4 -124 c 1
 0 -120 l 1
 0 120 l 1
362 -88 m 1
 362 88 l 1
 52 88 l 1
 52 -88 l 1
 362 -88 l 1
EndSplineSet
EndChar
StartChar: noteheads.s2la
Encoding: 57666 57666 95
Width: 425
GlyphClass: 2
Flags: HMW
HStem: -136 272<14 408 16 408>
Fore
0 120 m 1
 6.3976 126.398 7.55078 136 16 136 c 1
 19 138 116 139 212.75 139 c 0
 309.5 139 406 138 408 136 c 2
 418.8 136 422.005 127.989 426 120 c 1
 426 -120 l 1
 422 -128 418.8 -136 408 -136 c 2
 406 -138 309.5 -139 212.75 -139 c 0
 116 -139 19 -138 16 -136 c 2
 12 -136 6 -132 4 -124 c 1
 0 -120 l 1
 0 120 l 1
EndSplineSet
EndChar
StartChar: noteheads.s0ti
Encoding: 57667 57667 96
Width: 492
GlyphClass: 2
Flags: HMW
HStem: -136 272<236 260>
VStem: 0 494<38 38>
Fore
0 38 m 1
 22.8308 72.2462 112.961 130.306 224 136 c 0
 228 136.667 235.556 136.889 244.37 136.889 c 0
 262 136.889 284.667 136 294 136 c 1
 398.056 120.698 485.823 62.531 494 38 c 0
 494.5 35.5 494.75 33.125 494.75 30.8438 c 0
 494.75 24 492.5 18 488 12 c 1
 484 10 266 -132 260 -136 c 1
 255 -138 251 -139 247.25 -139 c 0
 243.5 -139 240 -138 236 -136 c 0
 228 -132 12 10 8 12 c 1
 0 20 0 28 0 38 c 1
412 40 m 1
 363.776 71.2441 306.445 87.3034 248.496 87.3034 c 0
 191.581 87.3034 134.068 71.8118 84 40 c 1
 74.583 36.861 71.3243 33.722 71.3243 32.5161 c 0
 71.3243 32.1853 71.5695 32 72 32 c 1
 74 30 246 -80 248 -80 c 1
 248 -80 420 30 424 32 c 1
 424 32 422 36 412 40 c 1
EndSplineSet
EndChar
StartChar: noteheads.u1ti
Encoding: 57668 57668 97
Width: 410
GlyphClass: 2
Flags: W
HStem: 87.7191 48.2809<177.897 268.62>
Fore
246 136 m 1
 340.594 119.691 412 56.2371 412 31.4236 c 0
 412 15.3902 411.432 19.7169 314 -60 c 0
 256 -104 220 -136 216 -136 c 2
 213 -138 210 -139 206.75 -139 c 0
 203.5 -139 200 -138 196 -136 c 1
 194 -136 156 -104 100 -60 c 0
 12 12 4 16 4 20 c 1
 0 24 0 26 0 32 c 0
 0 40 4 48 18 60 c 0
 89.737 128.618 164.276 136.804 211.093 136.804 c 0
 225.764 136.804 237.713 136 246 136 c 1
348 34 m 1
 325.334 56.6665 261.929 87.7191 205.778 87.7191 c 0
 198.355 87.7191 191.059 87.1764 184 86 c 0
 152 82 116 70 88 52 c 0
 76 44 64 36 64 34 c 0
 64 32 208 -80 208 -80 c 1
 252 -44 348 32 348 34 c 1
EndSplineSet
EndChar
StartChar: noteheads.d1ti
Encoding: 57669 57669 98
Width: 410
GlyphClass: 2
Flags: W
HStem: 87.7191 48.2809<177.897 268.62>
Fore
246 136 m 1
 340.594 119.691 412 56.2371 412 31.4236 c 0
 412 15.3902 411.432 19.7169 314 -60 c 0
 256 -104 220 -136 216 -136 c 2
 213 -138 210 -139 206.75 -139 c 0
 203.5 -139 200 -138 196 -136 c 1
 194 -136 156 -104 100 -60 c 0
 12 12 4 16 4 20 c 1
 0 24 0 26 0 32 c 0
 0 40 4 48 18 60 c 0
 89.737 128.618 164.276 136.804 211.093 136.804 c 0
 225.764 136.804 237.713 136 246 136 c 1
348 34 m 1
 325.334 56.6665 261.929 87.7191 205.778 87.7191 c 0
 198.355 87.7191 191.059 87.1764 184 86 c 0
 152 82 116 70 88 52 c 0
 76 44 64 36 64 34 c 0
 64 32 208 -80 208 -80 c 1
 252 -44 348 32 348 34 c 1
EndSplineSet
EndChar
StartChar: noteheads.u2ti
Encoding: 57670 57670 99
Width: 425
GlyphClass: 2
Flags: HMW
HStem: -136 272<202 224>
Fore
252 136 m 1
 359.145 118.142 420.915 52.3408 426 32 c 1
 426 26 426 24 424 20 c 1
 414.338 10.3379 234.707 -130.647 224 -136 c 0
 222 -137 218 -137.5 213.75 -137.5 c 0
 209.5 -137.5 205 -137 202 -136 c 1
 194.455 -128.455 4 9.92039 4 20 c 1
 0 24 0 26 0 32 c 0
 0 40 4 44 16 56 c 0
 85.0444 128.046 169.583 136.966 217.904 136.966 c 0
 233.806 136.966 245.786 136 252 136 c 1
EndSplineSet
EndChar
StartChar: noteheads.d2ti
Encoding: 57671 57671 100
Width: 425
GlyphClass: 2
Flags: HMW
HStem: -136 272<202 224>
Fore
252 136 m 1
 359.145 118.142 420.915 52.3408 426 32 c 1
 426 26 426 24 424 20 c 1
 414.338 10.3379 234.707 -130.647 224 -136 c 0
 222 -137 218 -137.5 213.75 -137.5 c 0
 209.5 -137.5 205 -137 202 -136 c 1
 194.455 -128.455 4 9.92039 4 20 c 1
 0 24 0 26 0 32 c 0
 0 40 4 44 16 56 c 0
 85.0444 128.046 169.583 136.966 217.904 136.966 c 0
 233.806 136.966 245.786 136 252 136 c 1
EndSplineSet
EndChar
StartChar: scripts.ufermata
Encoding: 57672 57672 101
Width: 328
GlyphClass: 2
Flags: HMW
HStem: -16 378
Fore
-240 228 m 0
 -171.744 321.283 -84.8134 363.157 -0.187214 363.157 c 0
 72.7257 363.157 143.928 332.072 200 276 c 0
 254 220 296 144 320 54 c 0
 328 28 332 0 332 -4 c 0
 330.5 -13 322.25 -17.5 314 -17.5 c 0
 311.25 -17.5 308.5 -17 306 -16 c 0
 298 -12 296 -8 292 8 c 0
 276 88 236 152 180 198 c 0
 148 222 112 240 76 252 c 0
 52.6242 258.679 28.203 261.873 3.60914 261.873 c 0
 -30.7152 261.873 -65.3758 255.652 -98 244 c 0
 -112 240 -140 224 -156 216 c 0
 -226 168 -272 96 -292 8 c 0
 -296 -8 -298 -12 -306 -16 c 0
 -308.343 -17.1716 -310.858 -17.6569 -313.343 -17.6569 c 0
 -319.343 -17.6569 -325.172 -14.8284 -328 -12 c 0
 -330 -10 -331 -8 -331 -4 c 0
 -331 0 -330 6 -328 16 c 0
 -312 96 -280 172 -240 228 c 0
-64 62 m 0
 -58.7884 95.8755 -29.1606 114.137 0.827321 114.137 c 0
 24.0677 114.137 47.5244 103.169 60 80 c 1
 64 69 66 58.5 66 48 c 0
 66 37.5 64 27 60 16 c 0
 48.3485 -7.30303 24.4788 -19.7454 0.254236 -19.7454 c 0
 -17.103 -19.7454 -34.6424 -13.3576 -48 0 c 0
 -59.913 11.913 -66.2823 28.261 -66.2823 44.9163 c 0
 -66.2823 50.6303 -65.5326 56.3804 -64 62 c 0
EndSplineSet
EndChar
StartChar: scripts.dfermata
Encoding: 57673 57673 102
Width: 328
GlyphClass: 2
Flags: W
HStem: -363.529 102.273<-61.7924 43.4678>
Fore
-64 -34 m 0
 -58.7884 -0.124509 -29.1606 18.1372 0.827322 18.1372 c 0
 24.0677 18.1372 47.5244 7.16902 60 -16 c 1
 64 -27 66 -37.5 66 -48 c 0
 66 -58.5 64 -69 60 -80 c 0
 48.3485 -103.303 24.4788 -115.745 0.254236 -115.745 c 0
 -17.103 -115.745 -34.6424 -109.358 -48 -96 c 0
 -59.913 -84.087 -66.2823 -67.739 -66.2823 -51.0837 c 0
 -66.2823 -45.3697 -65.5326 -39.6196 -64 -34 c 0
-332 4 m 0
 -332 13.1305 -322.791 18.2985 -314.496 18.2985 c 0
 -311.348 18.2985 -308.331 17.5543 -306 16 c 0
 -298 12 -296 8 -292 -8 c 0
 -272 -96 -226 -168 -156 -216 c 0
 -142.947 -222.527 -85.4079 -261.256 -2.6975 -261.256 c 0
 13.906 -261.256 31.524 -259.695 50 -256 c 0
 126.059 -244.299 258.528 -178.707 292 -8 c 0
 296 8 298 12 306 16 c 0
 308.343 17.1716 310.858 17.6569 313.343 17.6569 c 0
 319.343 17.6569 325.172 14.8284 328 12 c 0
 330 10 331 8 331 4 c 0
 331 0 330 -6 328 -16 c 0
 292.823 -191.883 189.947 -336.908 36 -360 c 0
 28.8469 -361.788 16.3609 -363.529 0.116142 -363.529 c 0
 -47.5058 -363.529 -127.43 -348.57 -200 -276 c 0
 -304.18 -167.962 -332 -13.9779 -332 4 c 0
EndSplineSet
EndChar
StartChar: scripts.ushortfermata
Encoding: 57674 57674 103
Width: 250
GlyphClass: 2
Flags: HMW
HStem: 0 42G<-238 -229 192 220>
Fore
168 8 m 1
 162.544 8 -20.5438 428 -26 428 c 1
 -216 8 l 1
 -220 4 -226 0 -232 0 c 0
 -242 0 -252 12 -250 20 c 1
 -248 24 -18 538 -14 544 c 1
 -12 544 -10 548 -8 548 c 0
 -4 548 -2 550 0 550 c 0
 4 550 12 548 14 544 c 0
 18 538 248 24 250 20 c 1
 252 12 246 4 240 2 c 0
 236 0 232 0 208 0 c 0
 176 0 172 0 168 8 c 1
-40 132 m 0
 -35.0289 133.42 -29.9779 134.092 -24.9513 134.092 c 0
 8.82268 134.092 41.5 103.778 41.5 66.6109 c 0
 41.5 56.7439 39.197 46.394 34 36 c 0
 23.5136 12.697 0.130286 0.254566 -23.8912 0.254566 c 0
 -41.103 0.254566 -58.6424 6.64242 -72 20 c 0
 -80 28 -88 40 -90 52 c 0
 -91.1076 56.984 -91.6401 61.968 -91.6401 66.8777 c 0
 -91.6401 97.4313 -71.016 125.108 -40 132 c 0
EndSplineSet
EndChar
StartChar: scripts.dshortfermata
Encoding: 57675 57675 104
Width: 250
GlyphClass: 2
Flags: HMW
HStem: -40 40G<-219 -191 229 238>
Fore
-168 -8 m 1
 -162.544 -8 20.5438 -428 26 -428 c 1
 216 -8 l 1
 220 -4 226 0 232 0 c 0
 242 0 252 -12 250 -20 c 1
 248 -24 18 -538 14 -544 c 0
 12 -548 4 -550 0 -550 c 0
 -4 -550 -12 -548 -14 -544 c 0
 -18 -538 -248 -24 -250 -20 c 1
 -252 -12 -246 -4 -240 -2 c 0
 -236 0 -232 0 -206 0 c 0
 -176 0 -172 0 -168 -8 c 1
8 -2 m 0
 13.4492 -0.978268 18.756 -0.490451 23.8802 -0.490451 c 0
 62.9872 -0.490451 91.4598 -28.9033 91.4598 -65.2378 c 0
 91.4598 -75.6674 89.1138 -86.7496 84 -98 c 0
 72.3485 -121.303 48.4788 -133.745 24.2542 -133.745 c 0
 6.89699 -133.745 -10.6424 -127.358 -24 -114 c 0
 -32 -106 -38 -92 -40 -80 c 0
 -41.1131 -74.9909 -41.6455 -70.0593 -41.6455 -65.2535 c 0
 -41.6455 -35.5209 -21.2692 -10.6086 8 -2 c 0
EndSplineSet
EndChar
StartChar: scripts.ulongfermata
Encoding: 57676 57676 105
Width: 310
GlyphClass: 2
Flags: HMW
HStem: 0 42G<290 296> 276 100<-274 0 -274 -274 0 274>
VStem: -312 38<192 276> 274 38<144 194 194 276 276 276>
Fore
-308 372 m 1
 -306 376 l 1
 308 376 l 1
 308 372 l 1
 312 370 l 1
 312 14 l 1
 308 6 300 0 292 0 c 0
 288 0 282 4 280 6 c 0
 274 12 274 4 274 144 c 2
 274 276 l 1
 -274 276 l 1
 -274 144 l 2
 -274 20 -274 16 -276 12 c 0
 -280 4 -287 0 -293.75 0 c 0
 -300.5 0 -307 4 -310 12 c 0
 -312 16 -312 36 -312 192 c 2
 -312 368 l 1
 -308 372 l 1
-16 132 m 0
 -10.73 133.405 -5.39825 134.07 -0.113217 134.07 c 0
 24.6872 134.07 48.4593 119.433 60 98 c 1
 64.1433 86.6059 66.0016 75.9731 66.0016 66.231 c 0
 66.0016 25.4034 33.3637 0.221424 -0.502882 0.221424 c 0
 -17.3129 0.221424 -34.4256 6.42555 -48 20 c 0
 -56 28 -64 40 -64 52 c 1
 -65.1802 57.3107 -65.751 62.6215 -65.751 67.8423 c 0
 -65.751 98.0121 -46.6893 125.18 -16 132 c 0
EndSplineSet
EndChar
StartChar: scripts.dlongfermata
Encoding: 57677 57677 106
Width: 310
GlyphClass: 2
Flags: HMW
HStem: -376 100<-274 0 -274 0 -306 0> -40 40G<290 296>
VStem: -312 38<-276 -192 -192 -144 -276 -114> 274 38<-276 -194 -194 -144 -144 -74>
Fore
-306 -376 m 1
 -307.301 -372.634 -309.551 -370.217 -312 -368 c 1
 -312 -192 l 2
 -312 -36 -312 -16 -310 -12 c 0
 -305.979 -3.95874 -299.581 -0.710857 -293.344 -0.710857 c 0
 -285.886 -0.710857 -278.658 -5.35466 -276 -12 c 0
 -274 -16 -274 -20 -274 -144 c 2
 -274 -276 l 1
 274 -276 l 1
 274 -144 l 2
 274 -4 274 -12 280 -6 c 0
 282 -4 288 0 292 0 c 0
 300 0 308 -6 312 -14 c 1
 312 -370 l 1
 308 -372 l 1
 308 -374 l 1
 0 -376 l 1
 -306 -376 l 1
-64 -80 m 1
 -65.2275 -74.4762 -65.8037 -69.1715 -65.8037 -64.1085 c 0
 -65.8037 -25.0707 -31.5505 -0.396041 2.51141 -0.396041 c 0
 25.1128 -0.396041 47.6299 -11.2599 60 -36 c 0
 64 -46 66 -56 66 -66.25 c 0
 66 -76.5 64 -87 60 -98 c 0
 48.3485 -121.303 24.4788 -133.745 0.254236 -133.745 c 0
 -17.103 -133.745 -34.6424 -127.358 -48 -114 c 0
 -56 -106 -64 -92 -64 -80 c 1
EndSplineSet
EndChar
StartChar: scripts.uverylongfermata
Encoding: 57678 57678 107
Width: 372
GlyphClass: 2
Flags: HMW
HStem: 0 42G<-6 6 230 236 354 360> 150 74<-212 0 -212 -212 0 212> 276 124<-336 0 -336 -336 0 336>
VStem: -376 40<204 276> -250 38<118 150> 212 38<84 120 120 150 150 150> 336 40<144 206 206 276 276 276>
Fore
-376 394 m 1
 -372.634 395.301 -370.217 397.551 -368 400 c 1
 370 400 l 1
 372 396 l 1
 376 396 l 1
 376 206 l 2
 376 148.676 376.517 107.166 376.517 77.1524 c 0
 376.517 8.48572 373.809 -2.54313e-06 356 0 c 0
 352 0 344 4 342 6 c 0
 336 12 336 4 336 144 c 2
 336 276 l 1
 -336 276 l 1
 -336 144 l 2
 -336 32 -336 16 -340 12 c 1
 -342 4 -349 0 -356 0 c 0
 -363 0 -370 4 -372 12 c 1
 -376 16 -376 36 -376 204 c 2
 -376 394 l 1
-250 220 m 1
 -244 224 l 1
 244 224 l 1
 250 220 l 1
 250 120 l 2
 250 48 250 16 248 14 c 2
 248 6 240 0 232 0 c 0
 228 0 220 4 216 6 c 1
 212 12 212 12 212 84 c 2
 212 150 l 1
 -212 150 l 1
 -212 84 l 2
 -212 24 -212 16 -214 12 c 0
 -217 4 -224 0 -231 0 c 0
 -238 0 -245 4 -248 12 c 0
 -250 16 -250 28 -250 118 c 2
 -250 220 l 1
60 60 m 0
 60 30.1523 34.875 0 0 0 c 0
 -33.2018 0 -61.1544 29.1556 -61.1544 62.3653 c 0
 -61.1544 66.2024 -60.7813 70.0935 -60 74 c 0
 -53.1829 98.9961 -33.0194 120.685 -0.632526 120.685 c 0
 5.77015 120.685 12.6506 119.837 20 118 c 1
 44 108 60 86 60 60 c 0
EndSplineSet
EndChar
StartChar: scripts.dverylongfermata
Encoding: 57679 57679 108
Width: 372
GlyphClass: 2
Flags: HMW
HStem: -400 124<-336 0 -336 0 -368 0 0 336> -224 74<-212 0 -212 0 -244 0 0 212> -40 40G<-12 -8 230 236 354 360>
VStem: -376 40<-276 -204 -204 -144 -276 -120> -250 38<-150 -118 -118 -84 -150 -72> 212 38<-150 -120 -220 -84 -220 -48> 336 40<-276 -206 -396 -144>
Fore
-368 -400 m 1
 -370.238 -397.572 -372.61 -395.277 -376 -394 c 1
 -376 -204 l 2
 -376 -36 -376 -16 -372 -12 c 1
 -372 -4.99815 -365.036 -0.959721 -357.465 -0.959721 c 0
 -350.516 -0.959721 -343.055 -4.36264 -340 -12 c 1
 -336 -16 -336 -20 -336 -144 c 2
 -336 -276 l 1
 336 -276 l 1
 336 -144 l 2
 336 -4 336 -12 342 -6 c 0
 344 -4 352 0 356 0 c 0
 364 0 372 -6 374 -14 c 1
 376 -16 376 -74 376 -206 c 2
 376 -396 l 1
 372 -396 l 1
 370 -400 l 1
 -368 -400 l 1
-244 -224 m 1
 -250 -220 l 1
 -250 -118 l 2
 -250 -89.1664 -250.226 -67.7756 -250.226 -51.8113 c 0
 -250.226 -10.7015 -248.726 -5.57537 -238 -2 c 0
 -228 2 -218 -2 -214 -12 c 0
 -212 -16 -212 -20 -212 -84 c 2
 -212 -150 l 1
 212 -150 l 1
 212 -84 l 2
 212 -12 212 -12 216 -6 c 1
 220 -4 228 0 232 0 c 0
 240 0 248 -6 248 -14 c 2
 250 -16 250 -48 250 -120 c 2
 250 -220 l 1
 244 -224 l 1
 -244 -224 l 1
60 -60 m 0
 60 -78.7617 48 -120 0 -120 c 0
 -39.7192 -120 -60.4876 -90.7458 -60.4876 -60.8235 c 0
 -60.4876 -34.756 -44.7256 -8.18139 -12 0 c 1
 53.8734 0 60 -45.8438 60 -60 c 0
EndSplineSet
EndChar
StartChar: scripts.thumb
Encoding: 57680 57680 109
Width: 98
GlyphClass: 2
Flags: HMW
HStem: 96 28<-11 0 0 2>
VStem: -24 48<-169 -158> -20 40<-128 -126>
Fore
24 -158 m 1xc0
 24 -160.075 24.0079 -162.095 24.0079 -164.055 c 0
 24.0079 -185.663 23.0494 -200 0 -200 c 0
 -22.5374 -200 -24.0352 -184.789 -24.0352 -166.555 c 0
 -24.0352 -163.76 -24 -160.893 -24 -158 c 1xc0
 -22 -146 -22 -132 -20 -128 c 1
 -20 -124 -20 -122 -22 -122 c 0
 -36.4784 -122 -84.5228 -98.8632 -96 -30 c 0
 -98.0801 -21.6797 -99.191 -11.8414 -99.191 -1.21385 c 0
 -99.191 46.8289 -76.4896 111.002 -18 124 c 1
 0 124 l 2
 48 124 84 88 96 30 c 0
 98.2482 21.0073 99.3585 11.0463 99.3585 0.640184 c 0
 99.3585 -40.9128 81.6545 -89.5637 48 -112 c 0
 40 -116 26 -122 22 -122 c 0
 20 -122 20 -124 20 -128 c 1xa0
 22 -132 22 -146 24 -158 c 1xc0
46 0 m 0
 46 95.0503 15.5211 91.493 2 96 c 1
 -39.0159 96 -47.0609 41.8144 -47.0609 1.70883 c 0
 -47.0609 -19.4803 -44.8152 -36.7391 -44 -40 c 0
 -36.2879 -93.9848 -12.7627 -94 0 -94 c 0
 27.6 -94 46 -79.0094 46 0 c 0
EndSplineSet
EndChar
StartChar: scripts.sforzato
Encoding: 57681 57681 110
Width: 222
GlyphClass: 2
Flags: HMW
VStem: -224 440<-16 114>
Fore
-224 98 m 1
 -224 102.205 -224.84 105.611 -224.84 108.843 c 0
 -224.84 113.604 -223.017 117.989 -214 124 c 1
 -206 124 l 2
 -204 124 -110 100 2 72 c 2
 208 20 l 1
 210 20 214 18 216 16 c 1
 222 14 225 7 225 0 c 0
 225 -7 222 -14 216 -16 c 1
 214 -18 210 -20 208 -20 c 1
 -204 -124 l 2
 -205.033 -124.129 -206.033 -124.192 -206.999 -124.192 c 0
 -218.418 -124.192 -225.019 -115.459 -225.019 -105.125 c 0
 -225.019 -102.804 -224.686 -100.402 -224 -98 c 1
 -220 -94 -218 -92 -212 -88 c 1
 -208 -88 -152 -72 -84 -56 c 2
 40 -24 l 1
 108 -12 l 2
 146 -6 176 0 176 0 c 1
 176 0 146 6 108 12 c 2
 40 24 l 1
 -84 56 l 2
 -152 72 -208 88 -212 88 c 1
 -218 92 -220 94 -224 98 c 1
EndSplineSet
EndChar
StartChar: scripts.espr
Encoding: 57682 57682 111
Width: 472
GlyphClass: 2
Flags: W
Fore
-50 -124 m 1
 -57.6875 -124 -452.312 -20 -460 -20 c 1
 -460 -20 -464 -18 -466 -16 c 1
 -472 -14 -475 -7 -475 0 c 0
 -475 7 -472 14 -466 16 c 1
 -464 18 -460 20 -460 20 c 1
 -456 20 -62 122 -56 124 c 0
 -53.3231 124.669 -50.9706 124.964 -48.8764 124.964 c 0
 -40.5653 124.964 -36.3212 120.32 -32 116 c 1
 -28 104 -32 96 -40 90 c 0
 -42 88 -100 74 -168 56 c 2
 -292 24 l 1
 -362 12 l 2
 -400 6 -430 0 -430 0 c 1
 -430 0 -400 -6 -362 -12 c 2
 -292 -24 l 1
 -168 -56 l 2
 -35.8277 -90.9868 -39.3642 -85.2716 -32 -100 c 0
 -30.7823 -102.435 -30.2236 -104.953 -30.2236 -107.403 c 0
 -30.2236 -116.241 -37.4956 -124.192 -47.3294 -124.192 c 0
 -48.2006 -124.192 -49.0919 -124.13 -50 -124 c 1
460 -20 m 1
 452.312 -20 57.6875 -124 50 -124 c 1
 48.9715 -124.147 47.9812 -124.217 47.0298 -124.217 c 0
 36.3147 -124.217 30.5258 -115.293 30.5258 -106.3 c 0
 30.5258 -99.7743 33.574 -93.213 40 -90 c 1
 42 -88 100 -74 168 -56 c 2
 294 -24 l 1
 362 -12 l 2
 400 -6 430 0 430 0 c 1
 430 0 400 6 362 12 c 2
 294 24 l 1
 168 56 l 2
 36.5877 90.7856 36 87.859 36 94 c 1
 32.1255 97.8745 29.919 102.583 29.919 107.048 c 0
 29.919 109.498 30.583 111.875 32 114 c 1
 34 120 36 120 40 124 c 1
 48 124 l 2
 52 124 144 100 256 72 c 0
 364 44 456 20 460 20 c 1
 460 20 464 18 466 16 c 1
 472 14 475 7 475 0 c 0
 475 -7 472 -14 466 -16 c 1
 464 -18 460 -20 460 -20 c 1
EndSplineSet
EndChar
StartChar: scripts.staccato
Encoding: 57683 57683 112
Width: 48
GlyphClass: 2
Flags: HMW
HStem: -48 96<-10 -10>
VStem: -48 98
Fore
-12 48 m 0
 -7.79255 49.0519 -3.61967 49.5505 0.454987 49.5505 c 0
 27.3703 49.5505 50 27.7925 50 0 c 0
 50 -32.2956 25.0465 -48.7596 0.15166 -48.7596 c 0
 -21.208 -48.7596 -42.5245 -36.6396 -48 -12 c 0
 -49.3941 -7.46929 -50.0593 -2.87784 -50.0593 1.64733 c 0
 -50.0593 23.0904 -35.1208 43.0455 -12 48 c 0
EndSplineSet
EndChar
StartChar: scripts.ustaccatissimo
Encoding: 57684 57684 113
Width: 48
GlyphClass: 2
Flags: HMW
HStem: -12 262
VStem: -48 96<224 224>
Fore
-48 224 m 0
 -39.0441 241.912 -19.2823 251.29 0.460293 251.29 c 0
 19.6263 251.29 38.7742 242.452 48 224 c 0
 50.227 219.546 51.9029 217.296 51.9029 210.297 c 0
 51.9029 198.438 47.0922 172.945 32 100 c 0
 8.16082 -11.2495 14.2527 -12 0 -12 c 0
 -4 -12 -8 -10 -10 -6 c 1
 -12 -4 -20 44 -32 100 c 0
 -47.0922 172.945 -51.9029 198.438 -51.9029 210.297 c 0
 -51.9029 217.296 -50.227 219.546 -48 224 c 0
EndSplineSet
EndChar
StartChar: scripts.dstaccatissimo
Encoding: 57685 57685 114
Width: 48
GlyphClass: 2
Flags: HMW
HStem: -244 256
VStem: -48 100
Fore
-6 12 m 1
 0 12 l 2
 4 12 8 10 10 6 c 1
 11.9351 4.06485 52 -199.866 52 -210 c 0
 48.8227 -237.007 24.6888 -250.346 0.400967 -250.346 c 0
 -19.3722 -250.346 -39.2474 -241.505 -48 -224 c 0
 -50.227 -219.546 -51.9029 -217.296 -51.9029 -210.297 c 0
 -51.9029 -198.438 -47.0922 -172.945 -32 -100 c 0
 -20 -44 -12 4 -10 6 c 1
 -10 8 -8 10 -6 12 c 1
EndSplineSet
EndChar
StartChar: scripts.tenuto
Encoding: 57686 57686 115
Width: 148
GlyphClass: 2
Flags: HMW
HStem: -20 40<-136 0 -136 2 0 2 2 136>
Fore
-136 -20 m 1
 -140.478 -15.5223 -149.766 -10.5416 -149.766 -0.281656 c 0
 -149.766 2.15879 -149.241 4.89791 -148 8 c 1
 -148 12 -140 20 -136 20 c 2
 136 20 l 1
 143.902 16.0488 150 8.66115 150 0 c 0
 150 -8 146 -12 140 -16 c 1
 136 -20 l 1
 -136 -20 l 1
EndSplineSet
EndChar
StartChar: scripts.uportato
Encoding: 57687 57687 116
Width: 148
GlyphClass: 2
Flags: HMW
HStem: -18 36<-136 0 -136 0 0 136>
VStem: -148 288
Fore
-40 176 m 0
 -34.613 194.855 -16.8807 206.004 0.871383 206.004 c 0
 16.9516 206.004 33.0481 196.856 40 176 c 0
 40.9377 172.483 41.3808 168.967 41.3808 165.515 c 0
 41.3808 143.462 23.2984 124.038 0.569226 124.038 c 0
 -3.49742 124.038 -7.71281 124.66 -12 126 c 0
 -30.1864 130.96 -41.5393 148.22 -41.5393 165.353 c 0
 -41.5393 168.946 -41.0401 172.533 -40 176 c 0
-140 16 m 1
 -136 18 l 1
 136 18 l 1
 145.48 13.2601 149.204 6.59028 149.204 0.195678 c 0
 149.204 -6.22405 145.45 -12.3664 140 -16 c 2
 136 -18 l 1
 -136 -18 l 1
 -140.859 -15.5704 -150.26 -11.3424 -150.26 -0.328928 c 0
 -150.26 2.60212 -149.594 6.01376 -148 10 c 1
 -144 12 -142 16 -140 16 c 1
EndSplineSet
EndChar
StartChar: scripts.dportato
Encoding: 57688 57688 117
Width: 148
GlyphClass: 2
Flags: HMW
HStem: -18 36<-136 0 -136 0 0 136>
VStem: -148 288
Fore
-148 -10 m 1
 -149.139 -7.15355 -150.1 -3.64912 -150.1 -0.00888342 c 0
 -150.1 6.58183 -146.949 13.6178 -136 18 c 1
 136 18 l 1
 145.48 13.2601 149.204 6.59028 149.204 0.195678 c 0
 149.204 -6.22405 145.45 -12.3664 140 -16 c 2
 136 -18 l 1
 -136 -18 l 1
 -140 -16 l 1
 -142 -16 -144 -12 -148 -10 c 1
-40 -152 m 0
 -34.1394 -134.418 -17.2742 -124.931 -0.179498 -124.931 c 0
 16.1164 -124.931 32.6209 -133.552 40 -152 c 0
 40.9377 -155.751 41.3808 -159.474 41.3808 -163.109 c 0
 41.3808 -186.345 23.2736 -205.957 0.522406 -205.957 c 0
 -3.52977 -205.957 -7.72926 -205.335 -12 -204 c 0
 -30.1864 -197.387 -41.5393 -182.573 -41.5393 -164.079 c 0
 -41.5393 -160.2 -41.0401 -156.16 -40 -152 c 0
EndSplineSet
EndChar
StartChar: scripts.umarcato
Encoding: 57689 57689 118
Width: 122
GlyphClass: 2
Flags: HMW
HStem: 0 42G<-116 -112 62 96> 236 40G<-1 1>
VStem: -124 248<10 12 10 12>
Fore
-124 12 m 0
 -124 16.5125 -12.5125 272 -8 272 c 1
 -4 274 -2 276 0 276 c 0
 2 276 4 274 8 272 c 1
 11.7 272 124 20.3 124 12 c 0
 124 1.27566 117.25 -0.228827 101.934 -0.228827 c 0
 95.9615 -0.228827 88.686 -4.96705e-09 80 0 c 0
 44 0 42 0 40 2 c 1
 36 4 32 12 0 80 c 2
 -32 156 l 1
 -36 152 l 1
 -70 76 l 2
 -100 12 -104 4 -106 2 c 0
 -108 0 -112 0 -112 0 c 1
 -120 0 -124 6 -124 12 c 0
EndSplineSet
EndChar
StartChar: scripts.dmarcato
Encoding: 57690 57690 119
Width: 122
GlyphClass: 2
Flags: HMW
HStem: -272 272<-96 -8 -96 8>
VStem: -124 248<-12 -10>
Fore
-124 -12 m 0
 -124 -1.27566 -117.25 0.228827 -101.934 0.228827 c 0
 -95.9615 0.228827 -88.686 4.96705e-09 -80 0 c 0
 -44 0 -42 0 -40 -2 c 1
 -36 -4 -32 -12 0 -80 c 2
 34 -156 l 1
 70 -76 l 2
 100 -12 104 -4 106 -2 c 0
 108 0 112 0 112 0 c 1
 120 0 124 -6 124 -12 c 0
 124 -16.5125 12.5125 -272 8 -272 c 1
 6 -274 3 -275 0 -275 c 0
 -3 -275 -6 -274 -8 -272 c 1
 -11.7 -272 -124 -20.3 -124 -12 c 0
EndSplineSet
EndChar
StartChar: scripts.open
Encoding: 57691 57691 120
Width: 98
GlyphClass: 2
Flags: HMW
HStem: -124 28<-10 6 -10 24>
VStem: -96 192<-30 30>
Fore
-18 124 m 1
 0 124 l 2
 48 124 84 88 96 30 c 0
 98 22 99 11 99 0 c 0
 99 -11 98 -22 96 -30 c 0
 86 -88 48 -124 0 -124 c 0
 -48 -124 -86 -88 -96 -30 c 0
 -98.0801 -21.6797 -99.191 -11.8414 -99.191 -1.21385 c 0
 -99.191 46.8289 -76.4896 111.002 -18 124 c 1
12 92 m 1
 7.71281 93.6077 3.28203 94.3538 -1.13844 94.3538 c 0
 -13.2154 94.3538 -25.2154 88.7846 -34 80 c 0
 -48.6509 64.2221 -56.6384 32.5204 -56.6384 0.314796 c 0
 -56.6384 -47.2922 -39.1846 -96 0 -96 c 0
 38.5249 -96 56.7592 -47.7972 56.7592 -0.148363 c 0
 56.7592 43.7185 41.3047 87.1159 12 92 c 1
EndSplineSet
EndChar
StartChar: scripts.stopped
Encoding: 57692 57692 121
Width: 136
GlyphClass: 2
Flags: HMW
HStem: -24 50<-120 -24 -120 -24 -72 -24 26 72 72 90>
VStem: -24 50<-90 -72 -90 -72 -72 -24 -90 -24 26 72>
Fore
140 0 m 0
 140 -9.6 131.36 -20.88 122 -24 c 1
 26 -24 l 1
 26 -72 l 2
 26 -108 26 -118 24 -120 c 2
 24 -128 20 -132 12 -136 c 1
 -12 -136 l 1
 -18 -132 -22 -128 -24 -120 c 1
 -24 -24 l 1
 -120 -24 l 1
 -128 -22 -132 -18 -136 -12 c 1
 -136 12 l 1
 -132 20 -128 24 -120 24 c 2
 -118 26 -108 26 -72 26 c 2
 -24 26 l 1
 -24 122 l 1
 -17.587 134.826 -9.43247 138.849 -1.8837 138.849 c 0
 9.13323 138.849 18.86 130.28 20 128 c 1
 26 124 26 122 26 72 c 2
 26 26 l 1
 72 26 l 2
 108 26 120 26 122 24 c 2
 131.244 24 140 8.96763 140 0 c 0
EndSplineSet
EndChar
StartChar: scripts.upbow
Encoding: 57693 57693 122
Width: 160
GlyphClass: 2
Flags: HMW
HStem: 0 42G<-4 4>
VStem: -164 328<502 504 501 505>
Fore
146 520 m 0
 149.942 520 164 512.511 164 502 c 0
 164 498.495 15.2975 6.59505 14 4 c 1
 12 2 8 0 0 0 c 0
 -8 0 -12 2 -14 4 c 1
 -14.1447 4.28934 -164 497.671 -164 504 c 0
 -164 506 -160 512 -156 516 c 1
 -156 516 -154 516 -152 518 c 1
 -152 520 -148 520 -146 520 c 0
 -142 520 -134 516 -132 512 c 2
 -84 360 l 1
 -40 212 l 1
 0 52 l 1
 40 212 l 1
 84 360 l 1
 132 512 l 2
 134 516 140 520 146 520 c 0
EndSplineSet
EndChar
StartChar: scripts.downbow
Encoding: 57694 57694 123
Width: 186
GlyphClass: 2
Flags: HMW
HStem: 0 42G<-176 -168 168 176> 200 132<-156 0 -156 -156 0 156>
VStem: -188 32<168 200> 156 32<106 170 170 200 200 200>
Fore
-188 328 m 1
 -180 332 l 1
 182 332 l 1
 188 328 l 1
 188 170 l 2
 188 122.52 188.529 87.9626 188.529 62.9371 c 0
 188.529 10.7099 186.225 -3.8147e-06 172 0 c 0
 157.718 0 155.667 13.4802 155.667 50.0144 c 0
 155.667 64.7283 156 83.1817 156 106 c 2
 156 200 l 1
 -156 200 l 1
 -156 106 l 2
 -156 82.6577 -155.638 63.883 -155.638 49.0065 c 0
 -155.638 13.232 -157.733 1.27157e-06 -172 0 c 0
 -186.381 0 -188.215 7.25992 -188.215 74.9824 c 0
 -188.215 98.1808 -188 128.474 -188 168 c 2
 -188 328 l 1
EndSplineSet
EndChar
StartChar: scripts.reverseturn
Encoding: 57695 57695 124
Width: 270
GlyphClass: 2
Flags: HMW
HStem: -132 264
VStem: -272 28<-24 4> 244 28<-4 24>
Fore
-270 28 m 0
 -254.098 102.208 -202.383 132.485 -158.693 132.485 c 0
 -122.347 132.485 -91.5548 111.532 -91.5548 77.488 c 0
 -91.5548 70.2286 -92.955 62.3738 -96 54 c 0
 -100 46 -110 36 -118 32 c 0
 -125.071 29.1716 -135.142 26.3431 -144.678 26.3431 c 0
 -148.627 26.3431 -152.485 26.8284 -156 28 c 1
 -172 30 -184 40 -190 52 c 0
 -194 58 -196 58 -204 56 c 1
 -228 46 -240 28 -244 4 c 1
 -244 -20 -228 -44 -200 -52 c 1
 -180 -52 l 1
 -156 -52 l 1
 -132 -44 -112 -34 -88 -16 c 0
 -76 -6 -72 -2 -42 26 c 0
 14 80 38 100 68 114 c 0
 91.5688 125.784 115.138 131.83 138.399 131.83 c 0
 158.564 131.83 178.497 127.287 198 118 c 0
 236 100 262 66 272 24 c 1
 272 12 272 -16 270 -28 c 0
 256 -88 216 -128 164 -132 c 0
 142 -132 120 -126 106 -112 c 0
 95.9565 -101.956 91.4294 -90.3369 91.4294 -77.6358 c 0
 91.4294 -70.1032 93.0218 -62.1902 96 -54 c 0
 100 -46 110 -36 118 -32 c 0
 125.071 -29.1716 135.142 -26.3431 144.678 -26.3431 c 0
 148.627 -26.3431 152.485 -26.8284 156 -28 c 1
 172 -30 184 -40 190 -52 c 0
 194 -58 196 -58 204 -56 c 1
 228 -46 240 -28 244 -4 c 1
 244 20 228 44 200 52 c 1
 180 52 l 1
 156 52 l 1
 132 44 112 34 88 16 c 0
 76 6 72 2 44 -26 c 0
 -14 -80 -38 -100 -68 -114 c 0
 -91.5688 -125.784 -115.138 -131.83 -138.399 -131.83 c 0
 -158.564 -131.83 -178.497 -127.287 -198 -118 c 0
 -236 -100 -262 -66 -272 -24 c 1
 -272 -12 -272 16 -270 28 c 0
EndSplineSet
EndChar
StartChar: scripts.turn
Encoding: 57696 57696 125
Width: 270
GlyphClass: 2
Flags: HMW
HStem: -132 262<-158 144>
Fore
272 -24 m 1
 257.411 -85.2735 207.522 -132 132 -132 c 0
 48.8962 -132 -30.8348 -31.6377 -88 16 c 0
 -112 34 -132 44 -156 52 c 1
 -200 52 l 1
 -227.797 43.6608 -243.038 22.7654 -243.038 -0.618162 c 0
 -243.038 -10.8832 -240.101 -21.6277 -234 -32 c 0
 -228 -42 -216 -50 -204 -56 c 1
 -202.035 -56.4913 -200.332 -56.7172 -198.836 -56.7172 c 0
 -183.268 -56.7172 -190.07 -32.2588 -156 -28 c 1
 -152.829 -26.9429 -148.704 -26.336 -144.067 -26.336 c 0
 -128.181 -26.336 -106.271 -33.4574 -96 -54 c 0
 -93.0234 -62.1856 -91.6498 -69.8963 -91.6498 -77.0446 c 0
 -91.6498 -110.376 -121.514 -131.478 -157.987 -131.478 c 0
 -166.402 -131.478 -175.168 -130.355 -184 -128 c 0
 -228 -118 -260 -80 -270 -28 c 0
 -272 -16 -272 12 -272 24 c 1
 -253.547 101.505 -188.266 131.792 -134.223 131.792 c 0
 -126.532 131.792 -119.069 131.178 -112 130 c 0
 -84 124 -52 108 -20 82 c 2
 44 26 l 2
 80.6161 -10.6161 103.849 -34.6165 156 -52 c 1
 200 -52 l 1
 227.797 -43.6608 243.038 -22.7654 243.038 0.618162 c 0
 243.038 10.8832 240.101 21.6277 234 32 c 0
 228 42 216 50 204 56 c 1
 202.035 56.4913 200.332 56.7172 198.836 56.7172 c 0
 183.268 56.7172 190.07 32.2588 156 28 c 1
 152.829 26.9429 148.704 26.336 144.067 26.336 c 0
 128.181 26.336 106.271 33.4574 96 54 c 0
 93.0234 62.1856 91.6498 69.8963 91.6498 77.0446 c 0
 91.6498 110.376 121.514 131.478 157.987 131.478 c 0
 166.402 131.478 175.168 130.355 184 128 c 0
 228 118 260 80 270 28 c 0
 272 16 272 -12 272 -24 c 1
EndSplineSet
EndChar
StartChar: scripts.trill
Encoding: 57697 57697 126
Width: 210
GlyphClass: 2
Flags: HMW
HStem: 2 42G<44 59> 236 40G
VStem: -180 80<72 79 62 82>
Fore
52 2 m 0
 21.1096 2 16.52 -5.16008 8 -8 c 1
 8 -6 20 56 36 130 c 0
 56.3198 237.405 61.8934 263.705 61.8934 273.11 c 0
 61.8934 276.665 61.0972 277.806 60 280 c 0
 54.1436 288.785 42.9282 294.354 31.8461 294.354 c 0
 27.7898 294.354 23.7513 293.608 20 292 c 1
 16 292 -4 280 -28 268 c 2
 -70 244 l 1
 -72 228 l 1
 -76 212 l 1
 -68 202 l 2
 -37.519 164.987 -25.9582 130.962 -25.9582 101.476 c 0
 -25.9582 43.5546 -70.5654 3.14487 -104 -8 c 0
 -109.164 -9.03276 -114.407 -9.61576 -119.602 -9.61576 c 0
 -149.229 -9.61576 -177.276 9.34912 -180 72 c 0
 -180 92 -180 104 -168 152 c 0
 -164 176 -160 196 -160 196 c 1
 -163.516 196 -220.162 171.786 -263.726 171.786 c 0
 -270.943 171.786 -277.802 172.45 -284 174 c 0
 -304 180 -318 192 -320 212 c 1
 -321.072 216.287 -321.569 220.718 -321.569 225.215 c 0
 -321.569 237.503 -317.856 250.287 -312 262 c 1
 -286.525 293.844 -252.71 302.932 -223.87 302.932 c 0
 -206.455 302.932 -190.854 299.618 -180 296 c 1
 -172 292 -152 284 -148 280 c 1
 -144 278 l 1
 -122 392 l 2
 -108 456 -100 508 -98 508 c 2
 -92 508 l 1
 -84 504 -82 504 -76 504 c 0
 -60 506 -48 512 -32 520 c 1
 -28 524 -20 530 -16 534 c 1
 -12 536 -10 540 -10 540 c 1
 -36 406 l 1
 -64 272 l 1
 -60 276 l 1
 -20.3919 295.804 4.24178 313.414 48 328 c 1
 58.3625 329.295 67.4968 329.917 75.6163 329.917 c 0
 103.504 329.917 119.419 322.581 132 310 c 1
 140 304 l 1
 157.142 321.142 183.994 331.752 209.379 331.752 c 0
 238.416 331.752 265.533 317.87 274 284 c 0
 275.528 278.652 276.18 271.554 276.18 263.931 c 0
 276.18 251.597 274.472 237.889 272 228 c 0
 260 192 236 172 208 172 c 1
 184.476 176.277 173.673 196.799 173.673 219.132 c 0
 173.673 249.853 194.115 284 230 284 c 1
 238 286 l 1
 225.2 298.8 223.6 300 220 300 c 2
 214 303.333 207.111 304.889 200 304.889 c 0
 185.778 304.889 170.667 298.667 160 288 c 0
 148 276 148 286 118 132 c 0
 104 56 92 -8 90 -8 c 1
 87.8869 -5.88699 74.8 2 52 2 c 0
-150 248 m 1
 -175.218 273.218 -217.969 276.328 -228 278 c 1
 -236 278 -244 276 -248 276 c 0
 -262 276 -276 268 -284 258 c 0
 -292.285 248.334 -296.757 236.762 -296.757 225.915 c 0
 -296.757 221.052 -295.858 216.334 -294 212 c 0
 -290 204 -284 200 -272 198 c 0
 -269.255 197.657 -266.098 197.49 -262.599 197.49 c 0
 -245.706 197.49 -220.853 201.373 -196 208 c 0
 -186 212 -160 224 -156 224 c 1
 -152 236 l 1
 -150 248 l 1
-74 164 m 0
 -78.2539 170.806 -80.3363 175.441 -81.9408 175.441 c 0
 -84.108 175.441 -85.4031 166.984 -90 144 c 0
 -100 96 -100 88 -100 70 c 0
 -100 56 -100 52 -98 48 c 1
 -96.6667 42.6667 -91.7778 39.1111 -85.7037 39.1111 c 0
 -82.6667 39.1111 -79.3333 40 -76 42 c 1
 -65.076 44.731 -50.8119 68.0909 -50.8119 98.6419 c 0
 -50.8119 118.607 -56.9035 141.643 -74 164 c 0
EndSplineSet
EndChar
StartChar: scripts.upedalheel
Encoding: 57698 57698 127
Width: 122
GlyphClass: 2
Flags: HMW
HStem: -120 284
VStem: -124 36<34 72 72 156> 88 36<70 72 72 152 152 152>
Fore
-112 164 m 1
 -109.856 165.072 -107.426 165.569 -104.939 165.569 c 0
 -98.1436 165.569 -90.9282 161.856 -88 156 c 1
 -88 72 l 2
 -88 -4 -88 -8 -84 -18 c 1
 -84 -35.317 -63.1953 -64.4024 -48 -72 c 1
 -33.347 -82.1444 -17.1173 -86.7772 -1.11354 -86.7772 c 0
 38.1802 -86.7772 76.1118 -58.8488 86 -16 c 1
 88 -12 88 20 88 70 c 2
 88 152 l 1
 90.9282 160.785 98.1436 166.354 104.939 166.354 c 0
 107.426 166.354 109.856 165.608 112 164 c 1
 118 164 120 160 124 156 c 1
 124 72 l 2
 124 -16 124 -20 120 -38 c 0
 99.6005 -95.7985 48.5061 -124.317 -1.47133 -124.317 c 0
 -47.6092 -124.317 -92.7952 -100.012 -112 -52 c 1
 -120 -40 -120 -32 -124 -18 c 0
 -125 -11 -125.5 30.5 -125.5 71.25 c 0
 -125.5 112 -125 152 -124 156 c 1
 -120 160 -118 164 -112 164 c 1
EndSplineSet
EndChar
StartChar: scripts.dpedalheel
Encoding: 57699 57699 128
Width: 122
GlyphClass: 2
Flags: HMW
HStem: -168 292
VStem: -124 36<-156 -72 -156 18> 88 36<-115 -70 -70 -45>
Fore
-52 112 m 0
 -38.0768 120.354 -22.8835 124.929 -3.43283 124.929 c 0
 8.02923 124.929 20.9697 123.34 36 120 c 1
 44.2235 115.888 101.549 97.9671 120 38 c 0
 124 20 124 16 124 -72 c 0
 124 -158 124 -156 120 -160 c 0
 116 -164 110 -168 106 -168 c 0
 98 -168 90 -160 88 -152 c 1
 88 -70 l 2
 88 -20 88 12 86 16 c 1
 75.4731 61.6167 36.3534 86.061 -2.25019 86.061 c 0
 -24.0886 86.061 -45.7619 78.2381 -62 62 c 0
 -86.1515 33.8232 -88.0682 14.8282 -88.0682 -38.117 c 0
 -88.0682 -48.1062 -88 -59.304 -88 -72 c 2
 -88 -156 l 1
 -92 -164 -99 -168 -106 -168 c 0
 -113 -168 -120 -164 -124 -156 c 1
 -125 -152 -125.5 -112 -125.5 -71.25 c 0
 -125.5 -30.5 -125 11 -124 18 c 0
 -119.365 34.2231 -112.695 85.988 -52 112 c 0
EndSplineSet
EndChar
StartChar: scripts.upedaltoe
Encoding: 57700 57700 129
Width: 122
GlyphClass: 2
Flags: HMW
HStem: 8 364<-112 16 -112 -16>
Fore
-124 356 m 1
 -124 360.4 -121.6 372 -112 372 c 1
 -110 374 -108 375 -106 375 c 0
 -100 372 l 2
 -96 372 -92 368 -90 364 c 1
 -88 364 -74 316 -56 260 c 2
 -24 156 l 1
 -12 104 l 2
 -6 78 0 56 0 56 c 1
 0 56 6 78 12 104 c 2
 24 156 l 1
 56 260 l 2
 74 316 88 364 90 364 c 1
 92 368 96 372 100 372 c 1
 102.144 373.072 104.574 373.569 107.061 373.569 c 0
 113.856 373.569 121.072 369.856 124 364 c 1
 124 356 l 1
 72 186 l 2
 44 94 20 18 20 16 c 1
 16 8 l 1
 14.4623 3.387 7.4502 -1.25546 -0.224631 -1.25546 c 0
 -7.64766 -1.25546 -15.6906 3.08736 -20 16 c 1
 -20 18 -44 94 -72 186 c 2
 -124 356 l 1
EndSplineSet
EndChar
StartChar: scripts.dpedaltoe
Encoding: 57701 57701 130
Width: 122
GlyphClass: 2
Flags: HMW
HStem: -372 372<-100 4>
Fore
-20 -16 m 0
 -20 -14.1125 -18.1187 0 0 0 c 0
 13.0396 0 15.9266 -7.8565 20 -16 c 1
 20 -18 44 -94 72 -186 c 2
 124 -356 l 1
 124 -364 l 1
 119.867 -371.233 112.532 -375.262 105.578 -375.262 c 0
 99.072 -375.262 92.9003 -371.734 90 -364 c 2
 88 -364 74 -316 56 -258 c 2
 24 -156 l 1
 12 -104 l 2
 6 -78 0 -56 0 -56 c 1
 0 -56 -6 -78 -12 -104 c 2
 -24 -156 l 1
 -56 -258 l 2
 -74 -316 -88 -364 -90 -364 c 1
 -92 -368 -96 -372 -100 -372 c 1
 -102.144 -373.072 -104.574 -373.569 -107.061 -373.569 c 0
 -113.856 -373.569 -121.072 -369.856 -124 -364 c 1
 -124 -356 l 1
 -72 -186 l 2
 -44 -94 -20 -18 -20 -16 c 0
EndSplineSet
EndChar
StartChar: scripts.flageolet
Encoding: 57702 57702 131
Width: 130
GlyphClass: 2
Flags: HMW
HStem: 112 20
VStem: -132 20<-9 9 -9 26 -9 26>
Fore
-132 26 m 1
 -106.696 108.237 -47.3516 128.108 -24 132 c 1
 28 132 l 1
 90.5423 111.153 115.972 78.0912 132 26 c 1
 132 -26 l 1
 111.824 -91.572 75.8507 -116.661 26 -132 c 1
 -26 -132 l 1
 -91.572 -111.824 -116.661 -75.8507 -132 -26 c 1
 -132 26 l 1
80 78 m 0
 52.1547 103.061 24.1219 113.339 -1.7179 113.339 c 0
 -46.5695 113.339 -84.8136 82.3728 -104 44 c 1
 -108 28 -112 18 -112 0 c 0
 -112 -18 -108 -28 -104 -44 c 0
 -92 -74 -62 -100 -30 -108 c 0
 -19.5 -110.5 -9.125 -111.75 0.96875 -111.75 c 0
 31.25 -111.75 59 -100.5 80 -78 c 0
 96 -64 104 -46 108 -24 c 1
 110 -18 111 -9 111 0 c 0
 111 9 110 18 108 24 c 1
 104 46 96 64 80 78 c 0
EndSplineSet
EndChar
StartChar: scripts.segno
Encoding: 57703 57703 132
Width: 500
GlyphClass: 2
Flags: W
HStem: -375.169 30.3426<295.197 368.965> -80 59.6995<63.7382 94.0284> 20 59.6995<407.738 438.028> 344.827 30.1571<131.035 204.803>
VStem: 2 77.1819<188 262.574> 173.383 111.617<201.333 263.056> 215 111.617<-263.056 -201.333> 420.818 77.1819<-252 -197.48>
Fore
300 24 m 1xfd
 374.625 -18.6429 478.533 -82.1741 498 -186 c 1
 498 -252 l 1
 494 -260 494 -268 490 -274 c 1
 466.304 -342.933 411.314 -375.169 356.67 -375.169 c 0
 294.351 -375.169 232.483 -333.241 218 -256 c 0
 216 -250 215 -240.5 215 -231.25 c 0
 215 -222 216 -213 218 -208 c 1
 223.125 -179.815 244.806 -166.414 267.421 -166.414 c 0
 295.074 -166.414 324.123 -186.451 326 -224 c 0
 326.417 -227.131 326.617 -230.218 326.617 -233.25 c 0xfb
 326.617 -259.274 311.913 -281.252 294 -292 c 1
 290 -292 288 -294 288 -294 c 1
 285.366 -296.634 309.084 -344.827 355.374 -344.827 c 0
 358.793 -344.827 362.336 -344.564 366 -344 c 0
 374 -342 390 -336 396 -328 c 1
 409.707 -317.035 420.818 -293.36 420.818 -262.574 c 0
 420.818 -212.502 391.425 -143.617 296 -80 c 0
 282 -70 252 -52 250 -52 c 1
 62 -372 l 2
 60 -376 58 -376 30 -376 c 2
 0 -374 l 1
 204 -28 l 1
 204 -28 202 -24 200 -24 c 1
 186 -16 158 0 146 10 c 0
 60 64 14 122 2 188 c 1
 2 252 l 1
 23.3195 337.278 82.6906 374.984 141.574 374.984 c 0
 205.019 374.984 267.898 331.208 282 256 c 0
 284 250 285 240.5 285 231.25 c 0
 285 222 284 213 282 208 c 1
 276.875 179.815 255.194 166.414 232.579 166.414 c 0
 204.926 166.414 175.877 186.451 174 224 c 0
 173.583 227.131 173.383 230.218 173.383 233.25 c 0
 173.383 259.274 188.087 281.252 206 292 c 1
 210 292 212 294 212 294 c 1
 214.634 296.634 190.916 344.827 144.626 344.827 c 0
 141.207 344.827 137.664 344.564 134 344 c 0
 126 342 110 336 104 328 c 1
 90.2932 317.035 79.1819 293.36 79.1819 262.574 c 0
 79.1819 212.502 108.575 143.617 204 80 c 0
 218 70 248 52 250 52 c 1
 438 372 l 2
 440 376 442 376 470 376 c 2
 500 376 l 1
 398 200 l 1
 296 28 l 1
 296 28 298 24 300 24 c 1xfd
398 66 m 1
 400.803 74.4099 410.512 79.6995 421.346 79.6995 c 0
 431.493 79.6995 442.627 75.0602 450 64 c 1
 451.155 59.3812 452.309 53.4291 452.309 47.6832 c 0
 452.309 43.4769 451.691 39.3812 450 36 c 1
 434.843 20.8428 430.501 19.9861 424.431 19.9861 c 0
 423.657 19.9861 422.856 20 422 20 c 0
 414 20 414 20 410 24 c 1
 399.333 29.3333 392.222 40 392.222 50.6667 c 0
 392.222 56 394 61.3333 398 66 c 1
54 -34 m 1
 56.8033 -25.5901 66.512 -20.3005 77.3463 -20.3005 c 0
 87.4928 -20.3005 98.6265 -24.9398 106 -36 c 1
 107.155 -40.6188 108.309 -46.5709 108.309 -52.3168 c 0
 108.309 -56.5231 107.691 -60.6188 106 -64 c 1
 90.8428 -79.1572 86.5007 -80.0139 80.4311 -80.0139 c 0
 79.6574 -80.0139 78.8557 -80 78 -80 c 0
 70 -80 70 -80 66 -76 c 1
 55.3333 -70.6667 48.2222 -60 48.2222 -49.3333 c 0
 48.2222 -44 50 -38.6667 54 -34 c 1
EndSplineSet
EndChar
StartChar: scripts.coda
Encoding: 57704 57704 133
Width: 435
GlyphClass: 2
Flags: HMWO
HStem: -16 32<30 100 55 100 175 214 214 251 284 321 321 360 435 480> 216 32<294 294>
VStem: 104 72<-40 -34 36 40 -40 51> 251 32<-296 -248 -220 -116 -116 -16 16 116 116 220 248 296> 360 72<-40 -34 -50 -16 -50 -16 36 40 40 51>
CounterMasks: 1 00
Fore
104 36 m 1
 104 99.8647 140.038 228.385 244 248 c 1
 251 248 l 1
 251 296 l 2
 251 344 254 344 255 348 c 1
 255 348 260 350 260 352 c 1
 261.172 352.586 262.6 352.828 264.136 352.828 c 0
 267.843 352.828 272.172 351.414 275 350 c 0
 284 346 284 346 284 296 c 2
 284 248 l 1
 291 248 l 1
 382.497 230.736 431 119.257 431 36 c 1
 434 30 434 24 435 20 c 1
 435 16 l 1
 480 16 l 2
 520 16 525 16 528 12 c 1
 534 10 535 8 535 0 c 0
 535 -8 534 -10 528 -12 c 1
 525 -16 520 -16 480 -16 c 2
 435 -16 l 1
 435 -20 l 1
 434 -24 434 -30 431 -34 c 1
 431 -112.745 387.62 -229.77 291 -248 c 1
 284 -248 l 1
 284 -296 l 2
 284 -339.75 283.895 -352 268 -352 c 0
 252.38 -352 250.924 -339.418 250.924 -314.808 c 0
 250.924 -309.168 251 -302.897 251 -296 c 2
 251 -248 l 1
 244 -248 l 1
 154.533 -231.119 104 -123.28 104 -34 c 1
 101 -30 101 -24 100 -20 c 1
 100 -16 l 1
 55 -16 l 2
 5 -16 5 -16 1 -8 c 1
 0.118424 -4.4737 -0.30586 -1.44828 -0.30586 1.1457 c 0
 -0.30586 14.3735 10.7272 16.3822 28.4163 16.3822 c 0
 36.1322 16.3822 45.1145 16 55 16 c 2
 100 16 l 1
 100 20 l 1
 101 24 101 30 104 36 c 1
251 16 m 1
 251 220 l 1
 248 220 235 214 231 212 c 0
 194 192 178 142 175 40 c 2
 175 16 l 1
 251 16 l 1
360 40 m 2
 360 111.859 348.895 199.109 294 216 c 1
 290 216 285 218 284 220 c 1
 284 16 l 1
 360 16 l 1
 360 40 l 2
251 -220 m 1
 251 -16 l 1
 175 -16 l 1
 175 -40 l 2
 180.18 -174.676 201.54 -202.797 251 -220 c 1
284 -220 m 1
 332.69 -203.77 356.602 -172.515 360 -40 c 2
 360 -16 l 1
 284 -16 l 1
 284 -220 l 1
EndSplineSet
EndChar
StartChar: scripts.varcoda
Encoding: 57705 57705 134
Width: 505
GlyphClass: 2
Flags: HMW
HStem: -250 30<172 205 205 236 165 205 269 301 301 332> -16 32<16 85 41 85 172 205 205 236 269 301 301 332 421 465> 220 30<172 205 172 172 205 236 269 301 301 332>
VStem: 85 88<-130 -116 -116 -16 16 118 118 130 130 220> 236 32<-296 -250 -220 -116 -116 -16 16 118 118 220 250 296> 332 88<-220 -130 -130 -116 -116 -16 16 118 118 130 130 220 220 220>
CounterMasks: 1 00
Fore
85 244 m 1
 92 250 l 1
 236 250 l 1
 236 296 l 2
 236 344 239 344 241 348 c 1
 241 348 245 350 245 352 c 1
 246.172 352.586 247.601 352.828 249.161 352.828 c 0
 252.929 352.828 257.464 351.414 261 350 c 0
 269 346 269 346 269 296 c 2
 269 250 l 1
 415 250 l 1
 416.071 247.071 418.93 245.93 421 244 c 1
 421 16 l 1
 465 16 l 2
 505 16 511 16 512 12 c 1
 519 10 521 8 521 0 c 0
 521 -8 519 -10 512 -12 c 1
 511 -16 505 -16 465 -16 c 2
 421 -16 l 1
 421 -244 l 1
 412 -250 l 1
 269 -250 l 1
 269 -296 l 2
 269 -303.035 269.076 -309.394 269.076 -315.083 c 0
 269.076 -339.91 267.62 -352 252 -352 c 0
 245 -352 242 -350 241 -344 c 1
 236 -342 236 -336 236 -296 c 2
 236 -250 l 1
 165 -250 l 1
 91 -248 l 1
 89 -248 l 1
 86 -244 l 1
 85 -130 l 1
 85 -16 l 1
 41 -16 l 2
 -9 -16 -9 -16 -14 -8 c 1
 -14.8508 -4.59696 -15.2583 -1.65905 -15.2583 0.875681 c 0
 -15.2583 14.3337 -3.76992 16.4261 13.8635 16.4261 c 0
 21.8212 16.4261 31.0304 16 41 16 c 2
 85 16 l 1
 85 244 l 1
236 16 m 1
 236 220 l 1
 172 220 l 1
 172 16 l 1
 236 16 l 1
332 16 m 1
 332 220 l 1
 269 220 l 1
 269 16 l 1
 332 16 l 1
236 -220 m 1
 236 -16 l 1
 172 -16 l 1
 172 -220 l 1
 236 -220 l 1
332 -220 m 1
 332 -16 l 1
 269 -16 l 1
 269 -220 l 1
 332 -220 l 1
EndSplineSet
EndChar
StartChar: scripts.rcomma
Encoding: 57706 57706 135
Width: 122
GlyphClass: 2
Flags: HMW
HStem: -152 308
VStem: -2 114
Fore
48 156 m 1
 52 156 64 156 70 154 c 0
 92 146 112 100 112 60 c 0
 112 -36.1373 20.0169 -149.983 20 -150 c 1
 17.1716 -151.414 12.3431 -152.828 8.34315 -152.828 c 0
 6.68629 -152.828 5.17157 -152.586 4 -152 c 1
 0.734014 -148.734 -2.53197 -145.468 -2.53197 -141.113 c 0
 -2.53197 -140.135 -2.36701 -139.101 -2 -138 c 1
 -2 -126.361 50.3332 -62.9768 50.3332 12.7142 c 0
 50.3332 39.5166 43.7712 67.8622 26 96 c 0
 20 106 18 112 18 122 c 0
 20 138 32 152 48 156 c 1
EndSplineSet
EndChar
StartChar: scripts.lcomma
Encoding: 57707 57707 136
Width: 0
GlyphClass: 2
Flags: HMW
HStem: -156 308<-62 -18>
VStem: -108 112
Fore
-18 -122 m 1
 -19.4966 -132.476 -25.6 -156 -56 -156 c 0
 -76.3533 -156 -92.5965 -144.211 -108 -98 c 0
 -111.368 -85.7895 -113.053 -73.1357 -113.053 -59.9081 c 0
 -113.053 -10.3047 -89.3684 47.3684 -42 120 c 0
 -26 144 -22 150 -20 152 c 1
 -8.97646 152 4 151.373 4 136 c 1
 -0.377734 127.245 -50.0558 62.6078 -50.0558 -12.4757 c 0
 -50.0558 -39.6663 -43.5408 -68.227 -26 -96 c 0
 -20 -106 -18 -112 -18 -122 c 1
EndSplineSet
EndChar
StartChar: scripts.rvarcomma
Encoding: 57708 57708 137
Width: 60
GlyphClass: 2
Flags: HMW
HStem: -162 350
VStem: -74 174
Fore
64 188 m 2
 85.0269 188 100 168.322 100 152 c 2
 100 142 l 1
 72 88 l 2
 -24 -108 -50 -160 -54 -162 c 1
 -56.2053 -164.205 -58.9509 -165.06 -61.7404 -165.06 c 0
 -66.5404 -165.06 -71.4702 -162.53 -74 -160 c 1
 -75.4796 -158.027 -76.5944 -157.027 -76.5944 -154.091 c 0
 -76.5944 -145.121 -66.1901 -118.077 -24 10 c 0
 36.1503 194.747 26.543 175.271 52 188 c 1
 64 188 l 2
EndSplineSet
EndChar
StartChar: scripts.lvarcomma
Encoding: 57709 57709 138
Width: 60
GlyphClass: 2
Flags: HMW
HStem: -188 352<-65 56>
VStem: -100 174
Fore
56 164 m 1
 57.6077 164.536 59.359 164.785 61.1384 164.785 c 0
 66 164.785 71.0718 162.928 74 160 c 1
 75.4796 158.027 76.5944 157.027 76.5944 154.091 c 0
 76.5944 145.121 66.1901 118.077 24 -10 c 0
 -4 -96 -28 -168 -30 -172 c 1
 -44.3634 -186.363 -53.7832 -188.23 -57.7948 -188.23 c 0
 -59.2039 -188.23 -59.9457 -188 -60 -188 c 0
 -70 -188 -72 -188 -76 -184 c 1
 -86.5245 -184 -103.035 -159.177 -100 -144 c 1
 -98 -140 48 154 52 160 c 1
 56 164 l 1
EndSplineSet
EndChar
StartChar: scripts.arpeggio
Encoding: 57710 57710 139
Width: 198
GlyphClass: 2
Flags: HMW
HStem: -56 360<44 152>
VStem: -2 202
Fore
36 284 m 1
 35.6394 285.443 35.4674 286.905 35.4674 288.355 c 0
 35.4674 297.472 42.2668 306.091 51.7356 306.091 c 0
 54.3196 306.091 57.1024 305.449 60 304 c 1
 62 300 94 276 130 244 c 0
 191.996 193.733 200.649 186.983 200.649 179.059 c 0
 200.649 177.525 200.324 175.947 200 174 c 1
 200 160 l 1
 176.102 124.153 129.35 104.05 120 76 c 1
 114 66 111 55 111 43.75 c 0
 111 32.5 114 21 120 10 c 0
 129.308 -13.2697 164 -20.8719 164 -42 c 0
 164 -48 156 -56 148 -56 c 0
 146 -56 144 -56 140 -52 c 1
 138 -52 106 -26 70 4 c 0
 22.4478 44.759 -2.35248 61.1949 -2.35248 78.3879 c 0
 -2.35248 91.8149 12.7731 105.704 44 132 c 0
 56 144 68 156 72 158 c 1
 84.9227 175.23 89.6254 191.23 89.6254 205.392 c 0
 89.6254 243.255 56.0129 267.987 56 268 c 1
 44 276 38 280 36 284 c 1
EndSplineSet
EndChar
StartChar: scripts.trill_element
Encoding: 57711 57711 140
Width: 250
GlyphClass: 3
Flags: HMW
VStem: -54 360
Fore
68 200 m 2
 69.6906 201.691 72.453 202.309 75.5322 202.309 c 0
 79.7385 202.309 84.5359 201.155 88 200 c 1
 124.486 175.676 146.66 128.447 172 120 c 1
 184.917 113.541 196.682 111.01 207.205 111.01 c 0
 243.27 111.01 264.743 140.743 268 144 c 1
 282 164 284 164 292 164 c 0
 300 164 306 156 306 148 c 0
 306 146 304 144 304 140 c 1
 300 138 276 106 244 70 c 0
 204.419 22.2296 188.84 -2.33262 171.729 -2.33262 c 0
 158.257 -2.33262 143.834 12.8913 116 44 c 0
 103.642 58.8298 79.9466 90.24 45.14 90.24 c 0
 34.4689 90.24 22.7534 87.2877 10 80 c 0
 -4.29932 74.2803 -19.8913 50.1087 -34 36 c 1
 -35.4959 35.5726 -36.969 35.3735 -38.3997 35.3735 c 0
 -47.9317 35.3735 -55.5838 44.2094 -55.5838 53.2229 c 0
 -55.5838 55.5181 -55.0876 57.8247 -54 60 c 0
 -52 64 60 196 62 196 c 1
 64 198 66 200 68 200 c 2
EndSplineSet
EndChar
StartChar: scripts.arpeggio.arrow.M1
Encoding: 57712 57712 141
Width: 198
GlyphClass: 2
Flags: HMW
HStem: 0 42G<98 102>
VStem: -60 320<196 202>
Fore
44 304 m 1
 46.3431 306.343 49.3726 307.314 52.2843 307.314 c 0
 54.3431 307.314 56.3431 306.828 58 306 c 1
 60 304 152 208 156 200 c 2
 168 176 l 1
 168 168 l 1
 199.283 180.658 240.814 208 256 208 c 1
 260 204 260 200 260 196 c 1
 258.578 194.578 177 108.857 150 78 c 0
 110.284 29.4587 110 0 100 0 c 0
 96 0 96 0 92 12 c 0
 74 52 54 78 -12 144 c 0
 -36 170 -54 190 -58 196 c 1
 -60 196 -60 200 -60 200 c 1
 -60 204 -56 208 -52 208 c 1
 -52 208 -32 200 -8 188 c 2
 44 162 l 1
 58 178 l 2
 79.0955 201.732 87.3595 212.993 87.3595 226.083 c 0
 87.3595 229.218 86.8854 232.458 86 236 c 1
 84 240 70 256 52 270 c 0
 44 276 40 282 38 284 c 1
 34 292 38 302 44 304 c 1
EndSplineSet
EndChar
StartChar: scripts.arpeggio.arrow.1
Encoding: 57713 57713 142
Width: 198
GlyphClass: 2
Flags: HMW
VStem: -60 320<48 52>
Fore
96 248 m 1
 96 250 100 250 100 250 c 1
 104 250 104 248 108 238 c 0
 126 198 146 172 212 106 c 0
 256 58.333 260 52.0824 260 48 c 0
 260 46 256 42 252 42 c 1
 208 64 l 2
 184.916 73.6183 165.578 83.2108 156 88 c 1
 142 72 l 2
 126 54 120 46 116 36 c 1
 112 30 112 20 114 16 c 1
 118.41 -1.63904 164 -27.5682 164 -40 c 0
 164 -49.8745 155.875 -57.0405 148.539 -57.0405 c 0
 146.959 -57.0405 145.417 -56.7085 144 -56 c 1
 140 -56 50 42 44 50 c 0
 40 56 36 64 32 76 c 1
 32 82 l 1
 -24 56 l 2
 -44.3198 45.8401 -49.8934 43.0533 -52.951 43.0533 c 0
 -54.1066 43.0533 -54.9028 43.4514 -56 44 c 1
 -60 44 -60 48 -60 52 c 1
 -35.4158 88.8763 62.1532 165.383 92 240 c 1
 92 244 96 248 96 248 c 1
EndSplineSet
EndChar
StartChar: scripts.trilelement
Encoding: 57714 57714 143
Width: 102
GlyphClass: 2
Flags: HMW
HStem: -124 248<-42 36>
VStem: -120 240<-12 12>
Fore
-42 124 m 2
 -34 124 l 2
 -33.4286 124 -32.8898 124.007 -32.3721 124.007 c 0
 -23.8302 124.007 -21.0286 122.229 28 60 c 2
 80 0 l 1
 84 4 l 1
 88 12 l 1
 90 8 l 1
 120 -12 l 1
 120 -12 48 -118 48 -120 c 1
 44 -124 38 -124 34 -124 c 0
 33.4286 -124 32.8898 -124.007 32.3721 -124.007 c 0
 23.8302 -124.007 21.0286 -122.229 -28 -60 c 2
 -80 0 l 1
 -84 -4 l 1
 -88 -12 l 1
 -90 -8 l 1
 -120 12 l 1
 -120 12 -48 118 -48 120 c 1
 -46 120 -44 124 -42 124 c 2
EndSplineSet
EndChar
StartChar: scripts.prall
Encoding: 57715 57715 144
Width: 206
GlyphClass: 2
Flags: HMW
HStem: -124 248<-146 -68>
Fore
-146 124 m 1
 -138 124 l 2
 -137.429 124 -136.89 124.007 -136.372 124.007 c 0
 -127.83 124.007 -125.029 122.229 -76 60 c 2
 -24 0 l 1
 16 58 l 2
 36 92 56 118 56 120 c 1
 58 122 64 124 70 124 c 0
 70.5714 124 71.1102 124.007 71.6279 124.007 c 0
 80.1698 124.007 82.9714 122.229 132 60 c 2
 184 0 l 1
 198 20 l 1
 204 32 212 44 216 48 c 1
 219.351 53.0263 224.807 55.2456 230.311 55.2456 c 0
 237.947 55.2456 245.675 50.9737 248 44 c 1
 250.343 40.4853 251.314 36.9706 251.314 33.8579 c 0
 251.314 31.6569 250.828 29.6569 250 28 c 0
 248 24 156 -116 152 -120 c 0
 150 -122 144 -124 138 -124 c 0
 137.429 -124 136.89 -124.007 136.372 -124.007 c 0
 127.83 -124.007 125.029 -122.229 76 -60 c 2
 24 0 l 1
 -16 -58 l 2
 -36 -92 -56 -118 -56 -120 c 1
 -58 -122 -64 -124 -70 -124 c 0
 -70.5714 -124 -71.1102 -124.007 -71.6279 -124.007 c 0
 -80.1698 -124.007 -82.9714 -122.229 -132 -60 c 2
 -184 0 l 1
 -198 -20 l 1
 -204 -32 -212 -44 -216 -46 c 1
 -219.757 -52.2621 -225.239 -54.9458 -230.742 -54.9458 c 0
 -240.706 -54.9458 -250.741 -46.1484 -250.741 -33.8638 c 0
 -250.741 -31.9845 -250.506 -30.0235 -250 -28 c 1
 -248 -24 -156 116 -152 120 c 1
 -152 120 -148 122 -146 124 c 1
EndSplineSet
EndChar
StartChar: scripts.mordent
Encoding: 57716 57716 145
Width: 206
GlyphClass: 2
Flags: HMW
HStem: -166 330
VStem: -20 40<-152 -110 -110 -78 -152 -68 -152 -68 68 76 76 110 110 152>
Fore
-24 0 m 1
 -20 6 l 1
 -20 152 l 1
 -15.5184 160.963 -7.09317 165.837 1.06105 165.837 c 0
 7.60987 165.837 13.9839 162.693 18 156 c 2
 20 152 l 1
 20 68 l 1
 38 92 l 1
 56 120 l 1
 60 124 66 124 70 124 c 0
 70.5714 124 71.1102 124.007 71.6279 124.007 c 0
 80.1698 124.007 82.9714 122.229 132 60 c 2
 184 0 l 1
 198 20 l 1
 204 32 212 44 216 48 c 1
 219.782 53.0427 224.862 55.2338 229.968 55.2338 c 0
 240.297 55.2338 250.732 46.2644 250.732 33.7957 c 0
 250.732 31.9356 250.499 29.9977 250 28 c 1
 248 24 156 -116 152 -120 c 0
 150 -122 144 -124 138 -124 c 0
 137.429 -124 136.89 -124.007 136.372 -124.007 c 0
 127.83 -124.007 125.029 -122.229 76 -60 c 2
 24 0 l 1
 22 -4 20 -12 20 -78 c 2
 20 -152 l 1
 14.24 -163.52 8 -166 0 -166 c 0
 -8 -166 -12 -164 -16 -156 c 1
 -20 -152 l 1
 -20 -68 l 1
 -56 -120 l 1
 -60 -124 -64 -124 -70 -124 c 0
 -70.5714 -124 -71.1102 -124.007 -71.6279 -124.007 c 0
 -80.1698 -124.007 -82.9714 -122.229 -132 -60 c 2
 -184 0 l 1
 -198 -20 l 1
 -204 -32 -212 -44 -216 -46 c 1
 -219.757 -52.2621 -225.239 -54.9458 -230.742 -54.9458 c 0
 -240.706 -54.9458 -250.741 -46.1484 -250.741 -33.8638 c 0
 -250.741 -31.9845 -250.506 -30.0235 -250 -28 c 1
 -248 -24 -156 116 -152 120 c 0
 -150 122 -144 124 -138 124 c 0
 -137.429 124 -136.89 124.007 -136.372 124.007 c 0
 -127.83 124.007 -125.029 122.229 -76 60 c 2
 -24 0 l 1
EndSplineSet
EndChar
StartChar: scripts.prallprall
Encoding: 57717 57717 146
Width: 310
GlyphClass: 2
Flags: HMW
HStem: -124 248<-250 -171>
Fore
-250 124 m 1
 -242 124 l 2
 -241.429 124 -240.89 124.007 -240.372 124.007 c 0
 -231.83 124.007 -229.029 122.229 -180 60 c 2
 -128 0 l 1
 -88 58 l 2
 -68 92 -48 118 -48 120 c 1
 -46 122 -40 124 -34 124 c 0
 -33.4286 124 -32.8898 124.007 -32.3721 124.007 c 0
 -23.8302 124.007 -21.0286 122.229 28 60 c 2
 80 0 l 1
 120 58 l 2
 140 92 160 118 160 120 c 1
 162 122 168 124 174 124 c 0
 174.571 124 175.11 124.007 175.628 124.007 c 0
 184.17 124.007 186.971 122.229 236 60 c 2
 288 0 l 1
 302 20 l 1
 308 32 316 44 320 48 c 1
 323.351 53.0263 328.807 55.2456 334.311 55.2456 c 0
 341.947 55.2456 349.675 50.9737 352 44 c 1
 354.343 40.4853 355.314 36.9706 355.314 33.8579 c 0
 355.314 31.6569 354.828 29.6569 354 28 c 0
 352 24 260 -116 256 -120 c 0
 254 -122 248 -124 242 -124 c 0
 241.429 -124 240.89 -124.007 240.372 -124.007 c 0
 231.83 -124.007 229.029 -122.229 180 -60 c 2
 128 0 l 1
 88 -58 l 2
 68 -92 48 -118 48 -120 c 1
 46 -122 40 -124 34 -124 c 0
 33.4286 -124 32.8898 -124.007 32.3721 -124.007 c 0
 23.8302 -124.007 21.0286 -122.229 -28 -60 c 2
 -80 0 l 1
 -120 -58 l 2
 -140 -92 -160 -118 -160 -120 c 1
 -162 -122 -168 -124 -174 -124 c 0
 -174.571 -124 -175.11 -124.007 -175.628 -124.007 c 0
 -184.17 -124.007 -186.971 -122.229 -236 -60 c 2
 -288 0 l 1
 -302 -20 l 1
 -308 -32 -316 -44 -320 -46 c 1
 -323.757 -52.2624 -329.239 -54.9463 -334.743 -54.9463 c 0
 -344.707 -54.9463 -354.741 -46.1496 -354.741 -33.8647 c 0
 -354.741 -31.9851 -354.506 -30.0239 -354 -28 c 1
 -352 -24 -260 116 -256 120 c 1
 -256 120 -252 122 -250 124 c 1
EndSplineSet
EndChar
StartChar: scripts.prallmordent
Encoding: 57718 57718 147
Width: 310
GlyphClass: 2
Flags: HMW
HStem: -166 330
VStem: 84 40<-152 -110 -110 -78 -152 -68 -152 -68 68 76 76 110 110 152>
Fore
80 0 m 1
 84 6 l 1
 84 152 l 1
 88.4817 160.963 96.9068 165.837 105.061 165.837 c 0
 111.61 165.837 117.984 162.693 122 156 c 2
 124 152 l 1
 124 68 l 1
 142 92 l 1
 160 120 l 1
 164 124 170 124 174 124 c 0
 174.571 124 175.11 124.007 175.628 124.007 c 0
 184.17 124.007 186.971 122.229 236 60 c 2
 288 0 l 1
 302 20 l 1
 308 32 316 44 320 48 c 1
 323.782 53.0427 328.862 55.2338 333.968 55.2338 c 0
 344.297 55.2338 354.732 46.2644 354.732 33.7957 c 0
 354.732 31.9356 354.499 29.9977 354 28 c 1
 352 24 260 -116 256 -120 c 0
 254 -122 248 -124 242 -124 c 0
 241.429 -124 240.89 -124.007 240.372 -124.007 c 0
 231.83 -124.007 229.029 -122.229 180 -60 c 2
 128 0 l 1
 126 -4 124 -12 124 -78 c 2
 124 -152 l 1
 118.24 -163.52 112 -166 104 -166 c 0
 96 -166 92 -164 88 -156 c 1
 84 -152 l 1
 84 -68 l 1
 48 -120 l 1
 44 -124 40 -124 34 -124 c 0
 33.4286 -124 32.8898 -124.007 32.3721 -124.007 c 0
 23.8302 -124.007 21.0286 -122.229 -28 -60 c 2
 -80 0 l 1
 -120 -58 l 2
 -140 -92 -160 -118 -160 -120 c 1
 -162 -122 -168 -124 -174 -124 c 0
 -174.571 -124 -175.11 -124.007 -175.628 -124.007 c 0
 -184.17 -124.007 -186.971 -122.229 -236 -60 c 2
 -288 0 l 1
 -302 -20 l 1
 -308 -32 -316 -44 -320 -46 c 1
 -323.548 -52.2095 -329.457 -54.8779 -335.284 -54.8779 c 0
 -342.594 -54.8779 -349.774 -50.6776 -352 -44 c 1
 -354.343 -40.4853 -355.314 -36.9706 -355.314 -33.8579 c 0
 -355.314 -31.6569 -354.828 -29.6569 -354 -28 c 0
 -352 -24 -260 116 -256 120 c 0
 -254 122 -248 124 -242 124 c 0
 -241.429 124 -240.89 124.007 -240.372 124.007 c 0
 -231.83 124.007 -229.029 122.229 -180 60 c 2
 -128 0 l 1
 -88 58 l 2
 -68 92 -48 118 -48 120 c 1
 -46 122 -40 124 -34 124 c 0
 -33.4286 124 -32.8898 124.007 -32.3721 124.007 c 0
 -23.8302 124.007 -21.0286 122.229 28 60 c 2
 80 0 l 1
EndSplineSet
EndChar
StartChar: scripts.upprall
Encoding: 57719 57719 148
Width: 310
GlyphClass: 2
Flags: HMW
HStem: -304 428<-339 -242>
VStem: -392 40<-190 -148>
Fore
-250 124 m 1
 -242 124 l 2
 -241.429 124 -240.89 124.007 -240.372 124.007 c 0
 -231.83 124.007 -229.029 122.229 -180 60 c 2
 -128 0 l 1
 -88 58 l 2
 -68 92 -48 118 -48 120 c 1
 -46 122 -40 124 -34 124 c 0
 -33.4286 124 -32.8898 124.007 -32.3721 124.007 c 0
 -23.8302 124.007 -21.0286 122.229 28 60 c 2
 80 0 l 1
 120 58 l 2
 140 92 160 118 160 120 c 1
 162 122 168 124 174 124 c 0
 174.571 124 175.11 124.007 175.628 124.007 c 0
 184.17 124.007 186.971 122.229 236 60 c 2
 288 0 l 1
 302 20 l 1
 308 32 316 44 320 48 c 1
 323.351 53.0263 328.807 55.2456 334.311 55.2456 c 0
 341.947 55.2456 349.675 50.9737 352 44 c 1
 354.343 40.4853 355.314 36.9706 355.314 33.8579 c 0
 355.314 31.6569 354.828 29.6569 354 28 c 0
 352 24 260 -116 256 -120 c 0
 254 -122 248 -124 242 -124 c 0
 241.429 -124 240.89 -124.007 240.372 -124.007 c 0
 231.83 -124.007 229.029 -122.229 180 -60 c 2
 128 0 l 1
 88 -58 l 2
 68 -92 48 -118 48 -120 c 1
 46 -122 40 -124 34 -124 c 0
 33.4286 -124 32.8898 -124.007 32.3721 -124.007 c 0
 23.8302 -124.007 21.0286 -122.229 -28 -60 c 2
 -80 0 l 1
 -120 -58 l 2
 -140 -92 -160 -118 -160 -120 c 1
 -162 -122 -168 -124 -174 -124 c 0
 -174.571 -124 -175.11 -124.007 -175.628 -124.007 c 0
 -184.17 -124.007 -186.971 -122.229 -236 -60 c 2
 -288 0 l 1
 -292 -8 l 1
 -297.516 -13.5164 -343.547 -74.3794 -350 -126 c 0
 -352 -142 -352 -176 -352 -190 c 1
 -346 -220 -336 -242 -320 -268 c 0
 -316 -276 -316 -280 -314 -284 c 1
 -314 -292 -316 -296 -324 -300 c 1
 -328 -304 -328 -304 -334 -304 c 0
 -344 -304 -348 -302 -356 -290 c 0
 -387.417 -242.875 -392 -194.982 -392 -160 c 0
 -392 -81.5782 -363.162 -40.6274 -326 16 c 2
 -276 92 l 2
 -266 104 -258 118 -256 120 c 2
 -256 120 -252 122 -250 124 c 1
EndSplineSet
EndChar
StartChar: scripts.upmordent
Encoding: 57720 57720 149
Width: 310
GlyphClass: 2
Flags: HMW
HStem: -304 468
VStem: -392 40<-190 -148> 84 40<-152 -110 -110 -78 -152 -68 -152 -68 68 76 76 110 110 152>
Fore
80 0 m 1
 84 6 l 1
 84 152 l 1
 88.4817 160.963 96.9068 165.837 105.061 165.837 c 0
 111.61 165.837 117.984 162.693 122 156 c 2
 124 152 l 1
 124 68 l 1
 142 92 l 1
 160 120 l 1
 164 124 170 124 174 124 c 0
 174.571 124 175.11 124.007 175.628 124.007 c 0
 184.17 124.007 186.971 122.229 236 60 c 2
 288 0 l 1
 302 20 l 1
 308 32 316 44 320 48 c 1
 323.782 53.0427 328.862 55.2338 333.968 55.2338 c 0
 344.297 55.2338 354.732 46.2644 354.732 33.7957 c 0
 354.732 31.9356 354.499 29.9977 354 28 c 1
 352 24 260 -116 256 -120 c 0
 254 -122 248 -124 242 -124 c 0
 241.429 -124 240.89 -124.007 240.372 -124.007 c 0
 231.83 -124.007 229.029 -122.229 180 -60 c 2
 128 0 l 1
 126 -4 124 -12 124 -78 c 2
 124 -152 l 1
 118.24 -163.52 112 -166 104 -166 c 0
 96 -166 92 -164 88 -156 c 1
 84 -152 l 1
 84 -68 l 1
 48 -120 l 1
 44 -124 40 -124 34 -124 c 0
 33.4286 -124 32.8898 -124.007 32.3721 -124.007 c 0
 23.8302 -124.007 21.0286 -122.229 -28 -60 c 2
 -80 0 l 1
 -120 -58 l 2
 -140 -92 -160 -118 -160 -120 c 1
 -162 -122 -168 -124 -174 -124 c 0
 -174.571 -124 -175.11 -124.007 -175.628 -124.007 c 0
 -184.17 -124.007 -186.971 -122.229 -236 -60 c 2
 -288 0 l 1
 -292 -8 l 1
 -297.516 -13.5164 -343.547 -74.3794 -350 -126 c 0
 -352 -142 -352 -176 -352 -190 c 1
 -346 -220 -336 -242 -320 -268 c 0
 -316 -276 -316 -280 -314 -284 c 1
 -314 -292 -316 -296 -324 -300 c 1
 -328 -304 -328 -304 -334 -304 c 0
 -344 -304 -348 -302 -356 -290 c 0
 -387.417 -242.875 -392 -194.982 -392 -160 c 0
 -392 -48.3152 -323.821 8.31296 -276 92 c 2
 -256 120 l 1
 -252 124 -246 124 -242 124 c 0
 -241.429 124 -240.89 124.007 -240.372 124.007 c 0
 -231.83 124.007 -229.029 122.229 -180 60 c 2
 -128 0 l 1
 -88 58 l 2
 -68 92 -48 118 -48 120 c 1
 -46 122 -40 124 -34 124 c 0
 -33.4286 124 -32.8898 124.007 -32.3721 124.007 c 0
 -23.8302 124.007 -21.0286 122.229 28 60 c 2
 80 0 l 1
EndSplineSet
EndChar
StartChar: scripts.pralldown
Encoding: 57721 57721 150
Width: 310
GlyphClass: 2
Flags: HMW
VStem: 352 40<-190 -148>
Fore
-184 124 m 1
 -181.856 124.536 -179.426 124.785 -176.939 124.785 c 0
 -170.144 124.785 -162.928 122.928 -160 120 c 1
 -160 118 -140 92 -120 58 c 2
 -80 0 l 1
 -28 60 l 2
 21.0286 122.229 23.8302 124.007 32.3721 124.007 c 0
 32.8898 124.007 33.4286 124 34 124 c 0
 40 124 46 122 48 120 c 1
 48 118 68 92 88 58 c 2
 128 0 l 1
 180 60 l 2
 229.029 122.229 231.83 124.007 240.372 124.007 c 0
 240.89 124.007 241.429 124 242 124 c 0
 246 124 252 124 256 120 c 1
 276 92 l 2
 322.578 10.4878 392 -48.1389 392 -160 c 0
 392 -202.44 384.431 -247.354 356 -290 c 0
 348 -302 344 -304 334 -304 c 0
 328 -304 328 -304 324 -300 c 1
 316 -296 314 -292 314 -284 c 1
 316 -280 316 -276 320 -268 c 0
 336 -242 346 -220 352 -190 c 1
 352 -181.156 352.157 -172.5 352.157 -163.943 c 0
 352.157 -135.898 350.466 -108.933 336 -80 c 1
 326.942 -52.827 292.002 -8.00192 292 -8 c 1
 288 0 l 1
 236 -60 l 2
 186.971 -122.229 184.17 -124.007 175.628 -124.007 c 0
 175.11 -124.007 174.571 -124 174 -124 c 0
 168 -124 162 -122 160 -120 c 1
 160 -118 140 -92 120 -58 c 2
 80 0 l 1
 28 -60 l 2
 -21.0286 -122.229 -23.8302 -124.007 -32.3721 -124.007 c 0
 -32.8898 -124.007 -33.4286 -124 -34 -124 c 0
 -40 -124 -46 -122 -48 -120 c 1
 -48 -118 -68 -92 -88 -58 c 2
 -128 0 l 1
 -180 -60 l 2
 -229.029 -122.229 -231.83 -124.007 -240.372 -124.007 c 0
 -240.89 -124.007 -241.429 -124 -242 -124 c 0
 -248 -124 -254 -122 -256 -120 c 0
 -260 -116 -352 24 -354 28 c 0
 -354.828 29.6569 -355.314 31.6569 -355.314 33.8579 c 0
 -355.314 36.9706 -354.343 40.4853 -352 44 c 1
 -349.675 50.9737 -341.947 55.2456 -334.311 55.2456 c 0
 -328.807 55.2456 -323.351 53.0263 -320 48 c 1
 -316 44 -308 32 -302 20 c 1
 -288 0 l 1
 -236 60 l 2
 -196 112 -186 122 -184 124 c 1
EndSplineSet
EndChar
StartChar: scripts.downprall
Encoding: 57722 57722 151
Width: 310
GlyphClass: 2
Flags: HMW
HStem: -124 358
Fore
-344 234 m 0
 -340.904 235.857 -337.425 236.757 -333.978 236.757 c 0
 -326.29 236.757 -318.762 232.285 -316 224 c 1
 -314.395 220.79 -313.702 217.888 -313.702 215.128 c 0
 -313.702 204.474 -324.026 195.947 -332 180 c 0
 -347.499 149.002 -352.669 118.605 -352.669 92.0286 c 0
 -352.669 40.96 -333.579 4 -332 4 c 1
 -296 62 l 2
 -250.853 123.565 -259.503 124 -242 124 c 0
 -241.429 124 -240.89 124.007 -240.372 124.007 c 0
 -231.83 124.007 -229.029 122.229 -180 60 c 2
 -128 0 l 1
 -88 58 l 2
 -68 92 -48 118 -48 120 c 1
 -46 122 -40 124 -34 124 c 0
 -33.4286 124 -32.8898 124.007 -32.3721 124.007 c 0
 -23.8302 124.007 -21.0286 122.229 28 60 c 2
 80 0 l 1
 120 58 l 2
 140 92 160 118 160 120 c 1
 162 122 168 124 174 124 c 0
 174.571 124 175.11 124.007 175.628 124.007 c 0
 184.17 124.007 186.971 122.229 236 60 c 2
 288 0 l 1
 302 20 l 1
 308 32 316 44 320 48 c 1
 323.782 53.0427 328.862 55.2338 333.968 55.2338 c 0
 344.297 55.2338 354.732 46.2644 354.732 33.7957 c 0
 354.732 31.9356 354.499 29.9977 354 28 c 1
 352 24 260 -116 256 -120 c 0
 254 -122 248 -124 242 -124 c 0
 241.429 -124 240.89 -124.007 240.372 -124.007 c 0
 231.83 -124.007 229.029 -122.229 180 -60 c 2
 128 0 l 1
 88 -58 l 2
 68 -92 48 -118 48 -120 c 1
 46 -122 40 -124 34 -124 c 0
 33.4286 -124 32.8898 -124.007 32.3721 -124.007 c 0
 23.8302 -124.007 21.0286 -122.229 -28 -60 c 2
 -80 0 l 1
 -120 -58 l 2
 -140 -92 -160 -118 -160 -120 c 1
 -162 -122 -168 -124 -174 -124 c 0
 -174.571 -124 -175.11 -124.007 -175.628 -124.007 c 0
 -184.17 -124.007 -186.971 -122.229 -236 -60 c 2
 -288 0 l 1
 -302 -20 l 2
 -320 -48 -320 -50 -326 -52 c 1
 -329.694 -53.8472 -332.994 -54.7085 -336.007 -54.7085 c 0
 -349.123 -54.7085 -356.808 -38.3834 -368 -16 c 0
 -385.968 19.9366 -392.567 55.5472 -392.567 88.1469 c 0
 -392.567 167.74 -353.232 229.384 -344 234 c 0
EndSplineSet
EndChar
StartChar: scripts.downmordent
Encoding: 57723 57723 152
Width: 310
GlyphClass: 2
Flags: HMW
VStem: 84 40<-152 -110 -110 -78 -152 -68 -152 -68 68 80 80 110 110 152>
Fore
124 -152 m 1
 118.24 -163.52 112 -166 104 -166 c 0
 96 -166 92 -164 88 -156 c 1
 84 -152 l 1
 84 -68 l 1
 48 -120 l 1
 44 -124 40 -124 34 -124 c 0
 33.4286 -124 32.8898 -124.007 32.3721 -124.007 c 0
 23.8302 -124.007 21.0286 -122.229 -28 -60 c 2
 -80 0 l 1
 -120 -58 l 2
 -140 -92 -160 -118 -160 -120 c 1
 -162 -122 -168 -124 -174 -124 c 0
 -174.571 -124 -175.11 -124.007 -175.628 -124.007 c 0
 -184.17 -124.007 -186.971 -122.229 -236 -60 c 2
 -288 0 l 1
 -302 -20 l 2
 -320 -48 -320 -50 -326 -52 c 1
 -329.694 -53.8472 -332.994 -54.7085 -336.007 -54.7085 c 0
 -349.123 -54.7085 -356.808 -38.3834 -368 -16 c 0
 -385.968 19.9366 -392.567 55.5472 -392.567 88.1469 c 0
 -392.567 167.74 -353.232 229.384 -344 234 c 0
 -340.904 235.857 -337.425 236.757 -333.978 236.757 c 0
 -326.29 236.757 -318.762 232.285 -316 224 c 1
 -314.395 220.79 -313.702 217.888 -313.702 215.128 c 0
 -313.702 204.474 -324.026 195.947 -332 180 c 0
 -347.499 149.002 -352.669 118.605 -352.669 92.0286 c 0
 -352.669 40.96 -333.579 4 -332 4 c 1
 -296 62 l 2
 -250.853 123.565 -259.503 124 -242 124 c 0
 -241.429 124 -240.89 124.007 -240.372 124.007 c 0
 -231.83 124.007 -229.029 122.229 -180 60 c 2
 -128 0 l 1
 -88 58 l 2
 -68 92 -48 118 -48 120 c 1
 -46 122 -40 124 -34 124 c 0
 -33.4286 124 -32.8898 124.007 -32.3721 124.007 c 0
 -23.8302 124.007 -21.0286 122.229 28 60 c 2
 80 0 l 1
 84 6 l 1
 84 152 l 1
 92.6142 160.614 92 168 104 168 c 0
 116 168 120.4 156.8 124 152 c 1
 124 68 l 1
 142 92 l 1
 160 120 l 1
 164 124 170 124 174 124 c 0
 174.571 124 175.11 124.007 175.628 124.007 c 0
 184.17 124.007 186.971 122.229 236 60 c 2
 288 0 l 1
 302 20 l 1
 308 32 316 44 320 48 c 1
 323.782 53.0427 328.862 55.2338 333.968 55.2338 c 0
 344.297 55.2338 354.732 46.2644 354.732 33.7957 c 0
 354.732 31.9356 354.499 29.9977 354 28 c 1
 352 24 260 -116 256 -120 c 0
 254 -122 248 -124 242 -124 c 0
 241.429 -124 240.89 -124.007 240.372 -124.007 c 0
 231.83 -124.007 229.029 -122.229 180 -60 c 2
 128 0 l 1
 126 -4 124 -12 124 -78 c 2
 124 -152 l 1
EndSplineSet
EndChar
StartChar: scripts.prallup
Encoding: 57724 57724 153
Width: 310
GlyphClass: 2
Flags: HMW
HStem: -124 360
Fore
328 236 m 1
 329.889 236.472 331.777 236.721 333.666 236.721 c 0
 352 228 l 1
 382.54 174.556 392.861 127.709 392.861 88.292 c 0
 392.861 16.6821 358.795 -30.4093 350 -48 c 1
 344 -56 334 -56 326 -52 c 1
 320 -50 320 -48 302 -20 c 2
 288 0 l 1
 236 -60 l 2
 186.971 -122.229 184.17 -124.007 175.628 -124.007 c 0
 175.11 -124.007 174.571 -124 174 -124 c 0
 168 -124 162 -122 160 -120 c 1
 160 -118 140 -92 120 -58 c 2
 80 0 l 1
 28 -60 l 2
 -21.0286 -122.229 -23.8302 -124.007 -32.3721 -124.007 c 0
 -32.8898 -124.007 -33.4286 -124 -34 -124 c 0
 -40 -124 -46 -122 -48 -120 c 1
 -48 -118 -68 -92 -88 -58 c 2
 -128 0 l 1
 -180 -60 l 2
 -229.029 -122.229 -231.83 -124.007 -240.372 -124.007 c 0
 -240.89 -124.007 -241.429 -124 -242 -124 c 0
 -248 -124 -254 -122 -256 -120 c 0
 -260 -116 -352 24 -354 28 c 0
 -354.828 29.6569 -355.314 31.6569 -355.314 33.8579 c 0
 -355.314 36.9706 -354.343 40.4853 -352 44 c 1
 -349.675 50.9737 -341.947 55.2456 -334.311 55.2456 c 0
 -328.807 55.2456 -323.351 53.0263 -320 48 c 1
 -316 44 -308 32 -302 20 c 1
 -288 0 l 1
 -236 60 l 2
 -186.971 122.229 -184.17 124.007 -175.628 124.007 c 0
 -175.11 124.007 -174.571 124 -174 124 c 0
 -168 124 -162 122 -160 120 c 1
 -160 118 -140 92 -120 58 c 2
 -80 0 l 1
 -28 60 l 2
 21.0286 122.229 23.8302 124.007 32.3721 124.007 c 0
 32.8898 124.007 33.4286 124 34 124 c 0
 40 124 46 122 48 120 c 1
 48 118 68 92 88 58 c 2
 128 0 l 1
 180 60 l 2
 229.029 122.229 231.83 124.007 240.372 124.007 c 0
 240.89 124.007 241.429 124 242 124 c 0
 259.503 124 252.449 121.387 296 62 c 2
 332 4 l 1
 332.984 4 352.872 38.7059 352.872 89.6865 c 0
 352.872 121.59 345.083 159.867 320 200 c 0
 316.858 206.284 314.725 212.292 314.725 217.779 c 0
 314.725 224.911 318.328 231.164 328 236 c 1
EndSplineSet
EndChar
StartChar: scripts.lineprall
Encoding: 57725 57725 154
Width: 310
GlyphClass: 2
Flags: HMW
VStem: -356 42<252 295>
Fore
-344 484 m 1
 -341.32 485.072 -338.641 485.569 -336 485.569 c 0
 -328.785 485.569 -321.856 481.856 -316 476 c 1
 -314 472 l 1
 -314 252 l 1
 -312 34 l 1
 -286 76 l 2
 -255.455 123.999 -254.816 124 -242 124 c 0
 -241.429 124 -240.89 124.007 -240.372 124.007 c 0
 -231.83 124.007 -229.029 122.229 -180 60 c 2
 -128 0 l 1
 -88 58 l 2
 -68 92 -48 118 -48 120 c 1
 -46 122 -40 124 -34 124 c 0
 -33.4286 124 -32.8898 124.007 -32.3721 124.007 c 0
 -23.8302 124.007 -21.0286 122.229 28 60 c 2
 80 0 l 1
 120 58 l 2
 140 92 160 118 160 120 c 1
 162 122 168 124 174 124 c 0
 174.571 124 175.11 124.007 175.628 124.007 c 0
 184.17 124.007 186.971 122.229 236 60 c 2
 288 0 l 1
 302 20 l 1
 308 32 316 44 320 48 c 1
 323.782 53.0427 328.862 55.2338 333.968 55.2338 c 0
 344.297 55.2338 354.732 46.2644 354.732 33.7957 c 0
 354.732 31.9356 354.499 29.9977 354 28 c 1
 352 24 260 -116 256 -120 c 0
 254 -122 248 -124 242 -124 c 0
 241.429 -124 240.89 -124.007 240.372 -124.007 c 0
 231.83 -124.007 229.029 -122.229 180 -60 c 2
 128 0 l 1
 88 -58 l 2
 68 -92 48 -118 48 -120 c 1
 46 -122 40 -124 34 -124 c 0
 33.4286 -124 32.8898 -124.007 32.3721 -124.007 c 0
 23.8302 -124.007 21.0286 -122.229 -28 -60 c 2
 -80 0 l 1
 -120 -58 l 2
 -140 -92 -160 -118 -160 -120 c 1
 -162 -122 -168 -124 -174 -124 c 0
 -174.571 -124 -175.11 -124.007 -175.628 -124.007 c 0
 -184.17 -124.007 -186.971 -122.229 -236 -60 c 2
 -288 0 l 1
 -302 -20 l 1
 -308 -32 -316 -44 -320 -46 c 1
 -323.548 -52.2095 -329.457 -54.8779 -335.284 -54.8779 c 0
 -342.594 -54.8779 -349.774 -50.6776 -352 -44 c 1
 -356 -40 -356 -30 -356 214 c 0
 -356 376 -356 468 -354 472 c 0
 -352 476 -348 480 -344 484 c 1
EndSplineSet
EndChar
StartChar: scripts.caesura
Encoding: 57726 57726 155
Width: 500
GlyphClass: 2
Flags: HMW
VStem: 100 62<268 278>
Fore
99.9846 272.66 m 0
 99.9846 286.317 101.088 303.635 122 312 c 1
 159.078 312 162.117 291.098 162.117 280.681 c 0
 162.117 278.639 162 277 162 276 c 0
 162 256 156 204 148 168 c 0
 132 64 96 -48 44 -168 c 0
 36.8609 -186.562 30.7863 -200.171 20.0399 -200.171 c 0
 17.6189 -200.171 14.9608 -199.48 12 -198 c 1
 4.3531 -195.451 1.23238 -191.126 1.23238 -184.484 c 0
 1.23238 -178.404 3.84767 -170.381 8 -160 c 0
 92.7633 50.2129 99.9846 272.581 99.9846 272.66 c 0
272 312 m 1
 308.694 312 312.195 290.425 312.195 280.575 c 0
 312.195 226.095 295.047 69.7129 196 -168 c 0
 184 -194 184 -196 176 -198 c 1
 174.214 -198.893 171.205 -199.711 167.865 -199.711 c 0
 161.975 -199.711 155.056 -197.167 152 -188 c 1
 150.343 -186.343 149.373 -184.686 149.373 -181.892 c 0
 149.373 -177.941 151.314 -171.716 156 -160 c 0
 208 -36 236 92 248 268 c 2
 252 286 252 288 252 294 c 1
 256 304 264 308 272 312 c 1
EndSplineSet
EndChar
StartChar: flags.u3
Encoding: 57727 57727 156
Width: 222
GlyphClass: 2
Flags: HMW
HStem: -40 40G<-34 -16 -16 0 0 0>
VStem: -34 34<-250 -124 -19 -6 -6 0>
Fore
148 -752 m 0
 139.48 -752 124 -740.935 124 -730 c 0
 124 -721.714 156.306 -662.477 164 -574 c 0
 166.664 -562.013 167.914 -549.948 167.914 -537.845 c 0
 167.914 -442.931 91.0236 -345.713 16 -266 c 2
 0 -250 l 1
 -34 -250 l 1
 -34 0 l 1
 0 0 l 1
 0 -6 l 2
 0 -177.704 186.901 -332.11 204 -486 c 0
 207.09 -501.966 208.413 -519.421 208.413 -537.481 c 0
 208.413 -630.381 173.415 -739.293 164 -744 c 1
 160 -748 152 -752 148 -752 c 0
EndSplineSet
EndChar
StartChar: flags.u4
Encoding: 57728 57728 157
Width: 222
GlyphClass: 2
Flags: HMW
HStem: -40 40G<-34 -16 -16 0 0 0>
VStem: -34 34<-500 -464 -464 -426 -222 -218 -218 -212 -12 0> 160 44<-468 -460 -476 -442 -476 -442> 166 40
Fore
-34 -500 m 1xe0
 -34 0 l 1
 0 0 l 1
 0 -12 l 2
 7.50453 -87.0453 27.3597 -126.004 102 -236 c 2
 138 -288 l 2
 180 -356 200 -408 204 -460 c 0
 204 -492 198 -524 184 -552 c 1
 184 -558 180 -564 180 -564 c 1
 180 -573.705 197.85 -592.948 208 -664 c 0
 208.862 -670.035 209.315 -677.314 209.315 -685.623 c 0
 209.315 -726.108 198.563 -791.068 172 -856 c 0
 167.067 -865.866 161.132 -877.507 148.463 -877.507 c 0
 145.927 -877.507 143.122 -877.041 140 -876 c 1
 132 -872 128 -868 126 -864 c 1
 121.222 -844.887 166.856 -775.055 166.856 -692.12 c 0
 166.856 -661.881 160.789 -629.9 144 -598 c 0
 119.485 -545.468 81.3113 -505.311 8 -432 c 1
 0 -426 l 1
 0 -500 l 1
 -34 -500 l 1xe0
152 -518 m 1
 157.108 -510.338 160 -508 160 -468 c 2
 160 -442 l 1
 148 -392 122 -344 68 -284 c 2
 64 -276 44 -256 28 -240 c 2
 0 -212 l 1
 0 -218 l 2
 0 -290.995 30.5754 -339.382 108 -452 c 0
 120 -472 136 -496 144 -504 c 1
 152 -518 l 1
EndSplineSet
EndChar
StartChar: flags.u5
Encoding: 57729 57729 158
Width: 206
GlyphClass: 2
Flags: HMW
HStem: -40 40G<-34 -16 -16 0 0 0>
VStem: -34 34<-750 -698 -698 -648 -452 -438 -438 -430 -226 -219 -12 0> 148 44<-508 -440> 152 40<-480 -462> 166 42
Fore
-34 -750 m 1xe0
 -34 0 l 1
 0 0 l 1
 0 -12 l 2
 4 -68 24 -120 68 -194 c 2
 98 -240 l 2
 130.54 -289.766 175.736 -353.26 192 -440 c 1
 192 -504 l 1xe0
 188 -518 184 -532 180 -544 c 2
 176 -556 l 1
 180 -568 l 1
 186.868 -581.736 202.447 -616.603 202.447 -666.992 c 0
 202.447 -694.888 197.672 -727.541 184 -764 c 1
 180 -768 180 -772 180 -772 c 1
 186 -784 l 2
 201.816 -817.39 208.368 -847.691 208.368 -881.689 c 0
 208.368 -886.383 208.243 -891.147 208 -896 c 0xc8
 208 -979.411 171.267 -1064.37 156 -1072 c 1
 153.216 -1072.93 150.57 -1073.33 148.083 -1073.33 c 0
 136.404 -1073.33 128.25 -1064.5 126 -1060 c 1
 124 -1052 124 -1048 128 -1036 c 1
 147.862 -999.888 166.194 -947.348 166.194 -894.466 c 0
 166.194 -866.261 160.979 -837.959 148 -812 c 0
 132 -778 108 -748 72 -712 c 2
 12 -656 l 1
 0 -648 l 1
 0 -750 l 1
 -34 -750 l 1xe0
152 -480 m 1xd0
 152 -380 59.0615 -278.444 16 -230 c 1
 8 -224 4 -216 2 -214 c 0
 1.45142 -213.451 1.0533 -213.053 0.764392 -213.053 c 0
 0 -213.053 0 -215.84 0 -226 c 0
 2.01645 -270.362 16.7126 -334.891 104 -444 c 2
 138 -494 l 2
 142 -500 146 -508 148 -508 c 1xe0
 148 -506 150 -490 152 -480 c 1xd0
152 -620 m 0xd0
 121.544 -528.633 2.01271 -432 2 -432 c 1
 0 -430 l 1
 0 -438 l 2
 0 -540.973 101.755 -650.632 148 -720 c 0xe0
 149.586 -722.379 150.543 -724.128 151.37 -724.128 c 0
 152.629 -724.128 153.586 -720.072 156 -708 c 0
 159.339 -695.477 160.936 -682.955 160.936 -670.577 c 0
 160.936 -653.303 157.826 -636.312 152 -620 c 0xd0
EndSplineSet
EndChar
StartChar: flags.u6
Encoding: 57730 57730 159
Width: 206
GlyphClass: 2
Flags: HMW
HStem: -40 40G<-34 -16 -16 0 0 0>
VStem: -34 34<-1000 -944 -944 -888 -698 -674 -674 -664 -478 -448 -448 -438 -244 -224 -224 -212 -12 0>
Fore
192 -448 m 1
 192 -565.622 175.658 -554.73 174 -568 c 1
 178 -578 l 2
 185.049 -594.447 202.479 -631.389 202.479 -681.653 c 0
 202.479 -710.5 196.738 -743.734 180 -780 c 1
 176 -796 l 1
 180 -806 l 2
 191.001 -830.203 203.164 -875.28 203.164 -908.174 c 0
 203.164 -913.872 202.799 -919.205 202 -924 c 0
 198.463 -966.438 168.007 -997.99 168 -998 c 1
 176 -1012 l 2
 191.688 -1043.38 208.552 -1084.84 208.552 -1142.26 c 0
 208.552 -1185.58 198.951 -1237.99 172 -1302 c 0
 166.831 -1311.05 161.49 -1323.52 148.474 -1323.52 c 0
 145.955 -1323.52 143.148 -1323.05 140 -1322 c 0
 129.565 -1319.39 124.999 -1313.04 124.999 -1303.6 c 0
 124.999 -1299.08 126.047 -1293.86 128 -1288 c 1
 144.322 -1260.8 166.206 -1198.14 166.206 -1136.45 c 0
 166.206 -1125.53 165.522 -1114.65 164 -1104 c 0
 156 -1064 132 -1024 92 -976 c 0
 76 -960 44 -924 20 -904 c 2
 0 -888 l 1
 0 -1000 l 1
 -34 -1000 l 1
 -34 0 l 1
 0 0 l 1
 0 -12 l 2
 4 -68 24 -120 68 -192 c 0
 72 -200 84 -220 96 -238 c 2
 140 -312 l 2
 168 -362 184 -404 192 -448 c 1
152 -488 m 1
 152 -361.793 17.222 -238.444 8 -220 c 1
 0 -212 l 1
 0 -224 l 2
 0 -264 10 -302 32 -344 c 0
 46 -374 64 -400 104 -460 c 2
 136 -504 l 1
 140 -512 146 -518 146 -516 c 1
 148 -516 150 -500 152 -488 c 1
160 -668 m 0
 145.324 -557.928 4.00236 -442.001 4 -442 c 1
 0 -438 l 1
 0 -448 l 2
 0 -506 20 -560 68 -630 c 2
 98 -676 l 2
 110 -692 126 -714 134 -726 c 2
 148 -748 l 1
 155.681 -732.637 160.792 -708.619 160.792 -684.267 c 0
 160.792 -678.831 160.538 -673.377 160 -668 c 0
126 -804 m 0
 93.114 -753.176 72.4039 -732.404 8 -668 c 1
 0 -664 l 1
 0 -674 l 2
 0 -792.243 101.157 -891.261 134 -946 c 0
 140 -954 144 -960 146 -960 c 0
 146.912 -960 160.48 -940.304 160.48 -905.717 c 0
 160.48 -879.608 152.747 -845.013 126 -804 c 0
EndSplineSet
EndChar
StartChar: flags.d3
Encoding: 57731 57731 160
Width: 266
GlyphClass: 2
Flags: HMW
HStem: 0 42G<-34 -16 -34 -34 -16 0>
VStem: -34 34<0 4 0 124 248 249> 228 40<524 536>
Fore
268 524 m 0
 268.165 520.369 268.246 516.768 268.246 513.197 c 0
 268.246 307.85 1.01725e-05 200.654 0 4 c 2
 0 0 l 1
 -34 0 l 1
 -34 250 l 1
 -16 250 l 2
 0.360889 250 0.0911515 247.934 0.0982986 247.934 c 0
 2.98412 247.934 68.6623 290.574 98 316 c 0
 182 380 224 444 228 508 c 0
 228 564 210 632 176 690 c 1
 174.232 694.421 173.441 698.532 173.441 702.242 c 0
 173.441 712.659 179.672 719.918 188 722 c 1
 190 724 194 724 196 724 c 0
 202 724 210 720 212 716 c 1
 216 712 232 680 240 662 c 0
 258 616 268 572 268 524 c 0
EndSplineSet
EndChar
StartChar: flags.ugrace
Encoding: 57732 57732 161
Width: 206
GlyphClass: 2
Flags: HMW
HStem: -564 336
VStem: -172 404
Fore
200 -228 m 1
 203.439 -226.28 206.938 -225.507 210.322 -225.507 c 0
 223.235 -225.507 234.493 -236.765 234.493 -249.678 c 0
 234.493 -253.062 233.72 -256.561 232 -260 c 1
 222.439 -269.561 -129.406 -556.703 -144 -564 c 0
 -146.305 -565.152 -148.793 -565.685 -151.321 -565.685 c 0
 -162.656 -565.685 -174.791 -554.967 -174.791 -541.314 c 0
 -174.791 -537.7 -173.94 -533.881 -172 -530 c 1
 -167.762 -517.285 196.324 -228 200 -228 c 1
EndSplineSet
EndChar
StartChar: flags.dgrace
Encoding: 57733 57733 162
Width: 266
GlyphClass: 2
Flags: W
Fore
-220 516 m 1
 -216.795 528.82 -204.693 537.47 -194.599 537.47 c 0
 -192.244 537.47 -189.998 536.999 -188 536 c 1
 -182 536 280 268 284 266 c 0
 290 262 294 254 294 248 c 0
 294 236 284 224 272 224 c 2
 262 224 l 1
 256 226 -206 492 -210 496 c 1
 -212 496 -216 500 -216 504 c 1
 -220 508 -220 508 -220 516 c 1
EndSplineSet
EndChar
StartChar: flags.d4
Encoding: 57734 57734 163
Width: 266
GlyphClass: 2
Flags: HMW
HStem: 0 42G<-34 -16 -34 -34 -16 0> 460 40G<-34 -16 -16 0 0 0>
VStem: -34 34<0 4 200 218 218 244 424 462 462 500> 212 44<429 440 440 446 429 450>
Fore
232 548 m 1
 232 537.695 251.953 506.71 256 446 c 0
 256 263.126 45.8699 207.48 4 40 c 0
 2 28 0 14 0 4 c 2
 0 0 l 1
 -34 0 l 1
 -34 500 l 1
 0 500 l 1
 0 424 l 1
 23.1607 441.371 226.694 528.926 226.694 662.697 c 0
 226.694 679.732 223.394 697.516 216 716 c 0
 214.271 721.187 213.52 725.689 213.52 729.578 c 0
 213.52 745.932 226.802 751.441 236.497 751.441 c 0
 239.516 751.441 242.186 750.907 244 750 c 0
 252 746 256 744 260 726 c 0
 264 710 268 688 268 672 c 0
 268.166 668.69 268.249 665.406 268.249 662.148 c 0
 268.249 626.041 258.014 593.021 236 560 c 1
 234 552 232 548 232 548 c 1
212 440 m 2
 212 487.324 200.017 503.983 200 504 c 1
 200 508 l 1
 188 496 l 2
 102.671 410.671 14.0932 347.35 0 244 c 2
 0 200 l 1
 12 208 l 2
 161.077 290.249 201.478 364.649 212 412 c 1
 212 440 l 2
EndSplineSet
EndChar
StartChar: flags.d5
Encoding: 57735 57735 164
Width: 266
GlyphClass: 2
Flags: HMW
HStem: 0 42G<-34 -16 -34 -34 -16 0>
VStem: -34 34<0 12 210 228 436 452 660 704 704 750>
Fore
268 886 m 0
 268 813.342 234.219 783.097 232 772 c 1
 232 768 l 1
 244.153 743.694 261.567 706.066 261.567 660.125 c 0
 261.567 628.76 253.45 593.521 230 556 c 2
 224 548 l 1
 228 538 l 2
 242.313 510.268 248.309 483.059 248.309 456.811 c 0
 248.309 365.305 175.429 285.491 128 236 c 2
 76 172 l 2
 26 112 4 64 0 12 c 2
 0 0 l 1
 -34 0 l 1
 -34 750 l 1
 0 750 l 1
 0 660 l 1
 22 670 l 2
 102.176 710.088 226.866 782.591 226.866 886.309 c 0
 226.866 903.364 223.495 921.263 216 940 c 0
 212 950 212 954 216 960 c 1
 218 968 220 970 228 972 c 1
 230.536 973.691 233.072 974.309 235.608 974.309 c 0
 246 972 l 1
 260.396 964.802 268 926.324 268 886 c 0
220 656 m 0
 220 694.703 204 724.132 204 732 c 1
 200 734 l 1
 131.311 651.643 0 575.032 0 452 c 2
 0 436 l 1
 16 444 l 2
 80 476 126 508 160 540 c 0
 186.362 571.635 214.49 600.901 220 656 c 0
200 424 m 0
 201.683 429.471 205.663 441.53 205.663 459.051 c 0
 205.663 472.375 203.362 488.856 196 508 c 1
 128 442 l 2
 77.5429 387.939 19.9077 339.538 4 260 c 1
 0 250 0 244 0 228 c 2
 0 210 l 1
 18 222 l 2
 126 294 184 360 200 424 c 0
EndSplineSet
EndChar
StartChar: flags.d6
Encoding: 57736 57736 165
Width: 266
GlyphClass: 2
Flags: HMW
HStem: 0 42G<-34 -16 -34 -34 -16 0>
VStem: -34 34<0 14 204 226 424 444 650 672 876 936 936 1000> 188 40<468 502 502 512 512 524 524 524>
Fore
228 456 m 1
 200.473 290.837 8.20384 186.281 0 14 c 2
 0 0 l 1
 -34 0 l 1
 -34 1000 l 1
 0 1000 l 1
 0 876 l 1
 4 876 l 1
 107.57 893.262 206.776 935.106 224 1004 c 0
 226.531 1010.33 227.435 1017.55 227.435 1025.03 c 0
 227.435 1043.73 221.776 1064 221.776 1075.66 c 0
 221.776 1079.49 222.385 1082.38 224 1084 c 1
 226 1092 228 1096 236 1096 c 1
 238.964 1097.98 242.138 1098.85 245.245 1098.85 c 0
 254.947 1098.85 264 1090.31 264 1080 c 1
 266.928 1059.5 268.785 1034.72 268.785 1016.63 c 0
 268.785 1010.01 268.536 1004.29 268 1000 c 1
 264 988 260 974 254 964 c 2
 248 954 l 1
 252 944 l 1
 252 940 256 930 256 922 c 2
 258.978 903.386 260.571 886.712 260.571 871.36 c 0
 260.571 845.473 256.043 823.342 246 802 c 2
 242 792 l 1
 244 774 l 2
 250.787 734.977 253.551 706.766 253.551 684.892 c 0
 253.551 638.221 240.964 620.408 228 588 c 1
 228 456 l 1
162 756 m 0
 210.027 799.661 218.406 848.017 218.406 878.325 c 0
 218.406 894.566 216 905.625 216 908 c 2
 216 912 l 1
 206 904 l 2
 120.928 831.081 33.9822 800.442 8 716 c 0
 2 702 0 696 0 672 c 2
 0 650 l 1
 16 658 l 2
 80 690 128 722 162 756 c 0
208 724 m 1
 208 736 l 2
 208 736.5 207.75 736.75 207.312 736.75 c 0
 206 736.75 203 734.5 200 730 c 0
 135.853 655.162 33.4763 595.167 4 492 c 1
 2 476 0 462 0 444 c 2
 0 424 l 1
 12 432 l 2
 32 446 48 460 64 472 c 0
 156 542 204 608 210 672 c 0
 210.828 676.971 211.314 684 211.314 691.667 c 0
 211.314 702.51 210.343 714.627 208 724 c 1
0 204 m 1
 47.453 251.453 168.679 352.074 188 468 c 1
 188 524 l 1
 183.803 524 177.18 510.693 128 458 c 0
 102.146 430.71 0 331.018 0 226 c 2
 0 204 l 1
EndSplineSet
EndChar
StartChar: clefs.C
Encoding: 57737 57737 166
Width: 678
GlyphClass: 2
Flags: HMW
HStem: -72 32 40 32 460 40G<6 70 70 134 134 134 188 204 204 212>
VStem: 0 140<-494 0 -494 0 0 494 494 494> 184 44<-494 -256 -256 -20 20 256 256 494 494 494> 556 124
Fore
0 494 m 1
 2.98608 495.014 5.0282 496.972 6 500 c 1
 134 500 l 1
 136 496 l 1
 140 496 l 1
 140 -494 l 1
 136.634 -495.301 134.217 -497.551 132 -500 c 1
 4 -500 l 1
 4 -496 l 1
 0 -496 l 1
 0 494 l 1
184 494 m 1
 188 500 l 1
 204 500 l 2
 220 500 222 500 224 496 c 1
 228 496 l 1
 228 20 l 1
 240.41 36.5462 303.415 92.7648 310 208 c 0
 310 222 312 224 312 228 c 1
 316 232 324 236 332 232 c 0
 338 228 340 226 340 212 c 0
 346.915 139.395 373.495 92.5472 430 72 c 1
 484 72 l 1
 534.102 90.219 556 118.574 556 264 c 0
 553.192 365.085 544.122 436.261 472 464 c 1
 454.93 467.793 440.628 469.457 428.722 469.457 c 0
 392.215 469.457 378.227 453.819 376 436 c 0
 376 397.463 419.256 397.951 424 360 c 0
 424 331.067 404.104 304.069 386 292 c 0
 371.813 284.361 358.558 281.334 346.536 281.334 c 0
 310.776 281.334 285.938 308.124 280 320 c 0
 274.326 331.348 270.903 345.92 270.903 362.017 c 0
 270.903 401.946 291.967 451.255 352 484 c 0
 375.567 495.784 399.135 500.483 432.242 500.483 c 0
 438.47 500.483 445.034 500.317 452 500 c 0
 574 492 646 436 672 334 c 0
 676.937 309.314 680.52 273.793 680.52 246.384 c 0
 680.52 240.484 680.354 234.959 680 230 c 0
 663.527 102.332 550.974 47.4974 476 40 c 0
 470 39.6 464.88 39.36 460.32 39.36 c 0
 442.08 39.36 432.8 43.2 412 56 c 0
 392.162 67.336 380.356 72.6483 369.468 72.6483 c 0
 364.988 72.6483 360.664 71.749 356 70 c 0
 342 64 332 52 328 32 c 0
 327 26 326.5 13 326.5 0 c 0
 326.5 -13 327 -26 328 -32 c 0
 332 -52 342 -64 356 -70 c 0
 360.664 -71.749 364.988 -72.6483 369.468 -72.6483 c 0
 380.356 -72.6483 392.162 -67.336 412 -56 c 0
 432.8 -43.2 442.08 -39.36 460.32 -39.36 c 0
 464.88 -39.36 470 -39.6 476 -40 c 0
 568 -48 644 -108 670 -188 c 0
 676.195 -205.346 680.759 -232.093 680.759 -262.637 c 0
 680.759 -313.164 668.268 -374.079 630 -420 c 0
 585.064 -476.762 504.777 -500.542 437.301 -500.542 c 0
 403.713 -500.542 373.3 -494.65 352 -484 c 0
 295.926 -453.414 270.31 -403.75 270.31 -361.591 c 0
 270.31 -338.801 277.795 -318.205 292 -304 c 0
 305.27 -290.73 323.29 -282.497 344.596 -282.497 c 0
 357.328 -282.497 371.234 -285.437 386 -292 c 1
 405.161 -304.774 424 -332.09 424 -360 c 0
 419.32 -397.443 376 -398.075 376 -436 c 0
 378.99 -459.922 402.951 -469.937 430.508 -469.937 c 0
 461.222 -469.937 496.403 -457.496 512 -438 c 0
 536 -412 548 -376 554 -316 c 0
 555.373 -291.281 556.044 -269.054 556.044 -249.058 c 0
 556.044 -122.932 529.359 -85.6078 484 -72 c 1
 430 -72 l 1
 353.149 -95.0553 340 -194.026 340 -212 c 0
 340 -224 340 -226 336 -228 c 1
 332 -236 320 -236 312 -228 c 1
 312 -224 310 -224 310 -208 c 0
 306 -140 280 -76 234 -28 c 2
 228 -20 l 1
 228 -494 l 1
 224.634 -495.301 222.217 -497.551 220 -500 c 1
 204 -500 l 2
 188 -500 188 -500 186 -496 c 1
 184 -496 l 1
 184 494 l 1
EndSplineSet
EndChar
StartChar: clefs.C_change
Encoding: 57738 57738 167
Width: 546
GlyphClass: 3
Flags: HMW
HStem: -400 28<332 358> 28 28 372 28
VStem: 0 112<-394 0 -394 0 0 394 394 394> 152 40<-394 -204 -204 -16 16 206 206 394 394 394> 152 120<-30 0 0 30 -30 394> 256 28<-164 -160 -164 -148 -164 -148 160 164> 452 96<-218 -192 -218 -148 172 240>
Fore
0 394 m 1xf1
 2.98608 395.014 5.0282 396.972 6 400 c 1
 108 400 l 1
 110 396 l 1
 112 396 l 1
 112 -394 l 1
 108 -400 l 1
 4 -400 l 1
 4 -396 l 1
 0 -396 l 1
 0 394 l 1xf1
152 394 m 1xf9
 154.986 395.014 157.028 396.972 158 400 c 1
 172 400 l 2
 184 400 186 400 188 396 c 1
 192 396 l 1
 192 16 l 1
 200 26 l 2
 243.364 74.7847 256 129.496 256 164 c 0
 256 176.148 264.224 181.802 271.615 181.802 c 0
 276.002 181.802 280.095 179.809 282 176 c 0
 284 172 284 168 284 160 c 0xfb
 288 104 316 64 356 56 c 1
 376 56 l 2
 424 58 444 84 452 148 c 0
 453.419 160.767 454.466 178.67 454.466 198.684 c 0
 454.466 245.985 448.617 305.075 428 336 c 0
 414 360 392 372 358 372 c 2
 340 372 l 1
 318.077 366.519 315.857 354.532 315.857 349.89 c 0
 315.857 335.126 321.616 331.845 332 318 c 1
 334.8 315.55 350.126 305.475 350.126 286.688 c 0
 350.126 261.665 328.815 235.661 302 228 c 0
 298.643 227.329 295.217 227.001 291.77 227.001 c 0
 260.746 227.001 228 253.501 228 294 c 0
 232 346 276 390 332 400 c 1
 338.029 400.004 l 0
 384.124 400.004 481.357 398.11 528 312 c 1
 536 290 544 268 548 240 c 1
 548 172 l 1
 537.747 120.736 493.642 42.0856 388 28 c 0
 333.654 28 331.781 52 318 52 c 1
 312 56 308 56 304 56 c 0
 303.379 56 302.754 56.0022 302.126 56.0022 c 0
 291.101 56.0022 279.234 55.3204 272 30 c 1
 272 -30 l 1xf5
 279.304 -55.5646 291.382 -56.0005 302.794 -56.0005 c 0
 304 -56 l 0
 308 -56 312 -56 318 -52 c 1
 331.699 -52 333.75 -28 388 -28 c 1
 489.968 -44.9946 527.769 -107.273 542 -152 c 0
 548 -172 548 -180 548 -204 c 0
 548 -391.31 408.896 -400.094 348.114 -400.094 c 0
 341.824 -400.094 336.372 -400 332 -400 c 1
 259.825 -387.971 228.75 -323.481 228.75 -287.349 c 0
 228.75 -283.138 229.172 -279.312 230 -276 c 0
 235.489 -246.725 264.413 -227.493 293.801 -227.493 c 0
 296.536 -227.493 299.275 -227.659 302 -228 c 1
 328.815 -235.661 350.126 -261.665 350.126 -286.688 c 0
 350.126 -305.475 334.8 -315.55 332 -318 c 1
 320.797 -332.938 315.891 -335.317 315.891 -349.786 c 0
 315.891 -354.361 317.952 -366.488 340 -372 c 1
 358 -372 l 2
 395.6 -372 441.5 -359.003 452 -254 c 0
 453 -245 453.5 -223 453.5 -201 c 0
 453.5 -179 453 -157 452 -148 c 0
 444 -84 424 -58 376 -56 c 2
 356 -56 l 1
 316 -64 288 -104 284 -160 c 0
 284 -176.563 278.015 -182.789 271.579 -182.789 c 0
 264.094 -182.789 256 -174.37 256 -164 c 2
 256 -148 l 2
 252 -102 232 -60 200 -24 c 2
 192 -16 l 1
 192 -394 l 1xfb
 188.634 -395.301 186.217 -397.551 184 -400 c 1
 172 -400 l 2
 158 -400 156 -400 156 -396 c 1
 152 -396 l 1xf5
 152 394 l 1xf9
EndSplineSet
EndChar
StartChar: clefs.F
Encoding: 57739 57739 168
Width: 668
GlyphClass: 2
Flags: W
HStem: 238.258 25.3556<193.407 277.105>
VStem: 401.646 122.354<-60.3496 102.497> 557.941 102.059<-155.861 -107.941 92.2146 140.056>
Fore
0 28 m 0
 7.78826 168.189 110.086 263.613 240.455 263.613 c 0
 258.492 263.613 277.065 261.787 296 258 c 0
 440 238 524 148 524 12 c 0
 524 -64 500 -140 456 -206 c 0
 378 -316 244 -408 28 -500 c 0
 18 -504 8 -510 6 -512 c 1
 0 -512 l 2
 -8 -512 -12 -508 -12 -500 c 0
 -12 -496 -12 -492 10 -480 c 0
 122 -414 200 -356 262 -296 c 0
 308 -248 338 -208 362 -160 c 0
 374 -136 380 -120 388 -98 c 0
 397.242 -66.2315 401.646 -33.2952 401.646 -0.973863 c 0
 401.646 78.6191 374.939 154.484 328 200 c 0
 300.626 224.333 266.313 238.258 230.338 238.258 c 0
 219.002 238.258 207.501 236.875 196 234 c 0
 146 220 104 176 80 116 c 2
 78 112 l 1
 86 114 l 2
 94.5013 116.834 103.412 118.193 112.401 118.193 c 0
 147.822 118.193 184.453 97.0939 202 62 c 0
 208.627 48.7452 212.51 31.3726 212.51 15.5677 c 0
 212.51 12.2944 212.343 9.08831 212 6 c 0
 204 -44 166 -84 118 -88 c 0
 116.598 -88.0561 115.198 -88.0839 113.799 -88.0839 c 0
 65.3333 -88.0839 19.5514 -54.7102 4 -10 c 0
 0 2 0 12 0 28 c 0
560 136 m 0
 565.395 162.974 586.093 175.278 607.27 175.278 c 0
 633.274 175.278 660 156.726 660 124 c 0
 660 96.2075 635.862 74.4495 608.55 74.4495 c 0
 604.415 74.4495 600.207 74.9481 596 76 c 0
 572.879 79.303 557.941 98.9703 557.941 121.489 c 0
 557.941 126.242 558.606 131.121 560 136 c 0
560 -112 m 0
 565.661 -86.5245 586.292 -74.8753 607.355 -74.8753 c 0
 633.348 -74.8753 660 -92.6138 660 -124 c 0
 660 -153.55 635.829 -175.546 608.494 -175.546 c 0
 604.377 -175.546 600.188 -175.047 596 -174 c 0
 572.879 -169.046 557.941 -149.09 557.941 -126.521 c 0
 557.941 -121.758 558.606 -116.879 560 -112 c 0
EndSplineSet
EndChar
StartChar: clefs.F_change
Encoding: 57740 57740 169
Width: 535
GlyphClass: 3
Flags: HMW
HStem: 188 24<172 188>
VStem: 446 82<-104 -95 95 104>
Fore
0 28 m 0
 5.6361 157.63 110.036 212 164 212 c 2
 224 212 l 2
 349.709 196.286 420.593 122.493 420.593 6.65688 c 0
 420.593 0.553843 420.396 -5.6659 420 -12 c 0
 395.856 -277.586 24.3944 -393.606 6 -412 c 1
 0 -412 l 2
 -8 -412 -12 -408 -12 -400 c 0
 -12 -396 -12 -392 12 -378 c 0
 186.11 -254.29 180.923 -242.962 228 -190 c 0
 276.719 -124.417 296.74 -53.0837 296.74 9.76576 c 0
 296.74 109.582 246.24 188 180 188 c 0
 139.2 188 97.224 161.672 78 104 c 2
 76 96 l 1
 78 98 l 1
 81.1695 99.0565 85.1447 99.6112 89.6557 99.6112 c 0
 114.56 99.6112 155.798 82.7057 168 40 c 0
 169 34 169.5 26 169.5 18 c 0
 169.5 10 169 2 168 -4 c 1
 153.472 -47.5839 121.054 -65.3519 88.7741 -65.3519 c 0
 61.4323 -65.3519 34.1892 -52.6045 18 -32 c 0
 4 -14 0 4 0 28 c 0
445.95 102.576 m 0
 445.95 110.196 447.889 130.63 476 140 c 1
 488 140 l 2
 512 140 528 120 528 96 c 0
 528 86.325 521.611 60 486 60 c 0
 476 60 476 60 468 62 c 1
 446.805 77.8965 445.95 81.5954 445.95 102.576 c 0
446 -100 m 0
 446 -66.8099 472.761 -60.5398 476 -60 c 0
 480 -60 484 -58 488 -58 c 0
 512 -60 528 -80 528 -104 c 0
 528 -117.287 514.678 -140 486 -140 c 0
 467.125 -140 446 -129.492 446 -100 c 0
EndSplineSet
EndChar
StartChar: clefs.G
Encoding: 57741 57741 170
Width: 638
GlyphClass: 2
Flags: HMW
HStem: -656 44<248 272 239 281> -260 42
VStem: 0 72 172 52<784 972> 412 46 424 44<-304 -258 -258 -258>
Fore
316 1248 m 1xf4
 318 1249 319.875 1249.5 321.75 1249.5 c 0
 327.375 1249.5 333 1245 342 1236 c 0
 410 1164 472 1028 484 920 c 0
 486.239 903.204 487.323 886.639 487.323 870.258 c 0
 487.323 744.171 423.137 629.038 328 504 c 2
 310 482 l 1
 316 468 l 2
 338 396 360 324 372 280 c 2
 376 264 l 1
 394 262 l 2
 543.539 254.13 639.033 127.325 639.033 -3.57105 c 0
 639.033 -59.2537 621.752 -115.677 584 -164 c 0
 555.053 -196.565 519.431 -226.404 468 -246 c 1
 468 -304 l 2
 463.605 -427.06 462.106 -491.841 414 -564 c 0
 372 -626 314 -656 248 -656 c 0
 130.458 -642.94 64.6933 -572.405 50 -496 c 0
 46.4068 -482.346 44.7688 -469.725 44.7688 -458.112 c 0
 44.7688 -385.2 109.341 -352 160 -352 c 0
 219.038 -354.811 251.962 -405.218 251.962 -453.475 c 0
 251.962 -474.845 245.505 -495.794 232 -512 c 0
 214.953 -536.795 184.698 -551.984 156.121 -551.984 c 0
 147.817 -551.984 139.655 -550.702 132 -548 c 1
 128 -544 l 1
 132 -552 l 1
 140 -560 154 -576 164 -580 c 2
 192 -602 222 -612 256 -612 c 0
 337.6 -612 378.048 -545.897 392 -516 c 0
 416 -466 424 -420 424 -308 c 2
 424 -258 l 2
 424 -257.718 423.529 -257.596 422.615 -257.596 c 0
 416.535 -257.596 390.869 -263.009 353.906 -263.009 c 0
 299.097 -263.009 219.45 -251.106 142 -192 c 0
 49.5895 -125.15 -0.147379 -21.2128 -0.147379 92.4559 c 0
 -0.147379 156.185 15.4868 222.974 48 288 c 0
 80 352 116 406 208 524 c 2
 238 562 l 1
 232 580 l 2
 192 708 176 784 172 886 c 2
 172 972 l 2
 184 1072 228 1160 300 1232 c 2
 316 1248 l 1xf4
378 1102 m 1
 376 1102 376 1104 376 1104 c 1
 318.081 1061.88 221.972 978.989 221.972 823.804 c 0
 221.972 811.032 222.623 797.769 224 784 c 0
 232 742 248 672 268 616 c 1
 270 604 l 1
 276 610 l 1
 291.964 641.927 416.524 775.153 416.524 960.439 c 0
 416.524 975.3 415.723 990.495 414 1006 c 0
 409.448 1042.42 382.622 1097.38 378 1102 c 1
324 -108 m 0
 324 -113.355 320.277 -128 304 -128 c 0
 271.481 -128 197.22 -75.6614 172 0 c 0
 165.82 20.2261 162.796 40.9258 162.796 61.4338 c 0
 162.796 113.929 182.608 165.17 220 204 c 0
 262.295 241.596 304.812 254.802 324 258 c 0
 328 258 332 260 332 260 c 1
 334 260 312 338 288 408 c 2
 278 440 l 1
 276 440 216 364 196 334 c 0
 73.4912 166.356 72 72.2515 72 -4 c 0
 78 -52 100 -92 136 -132 c 1
 160 -152 184 -172 212 -186 c 0
 270.078 -213.964 323.177 -220.956 361.187 -220.956 c 0
 397.466 -220.956 420 -214.586 420 -214 c 1
 420.606 -213.697 420.9 -211.109 420.9 -206.571 c 0
 420.9 -169.485 401.278 -2.18372 372 112 c 0
 366 140 362 154 362 154 c 1
 360 156 342 152 332 150 c 0
 264.604 137.039 227.619 87.5181 227.619 34.1643 c 0
 227.619 -10.1698 253.156 -57.1502 308 -88 c 0
 320 -96 324 -98 324 -108 c 0
424 148 m 1xf4
 416 152 412 152 408 152 c 2
 406 152 l 1
 408 148 l 1
 437.515 15.1812 449.762 -52.7408 464 -188 c 2
 464 -202 l 2
 464 -204 486 -192 496 -184 c 0
 556.149 -146.407 571.074 -73.8526 572 -72 c 1
 572 -10 l 1
 558 70 500 132 424 148 c 1xf4
EndSplineSet
EndChar
StartChar: clefs.G_change
Encoding: 57742 57742 171
Width: 510
GlyphClass: 3
Flags: HMW
HStem: -208 39 -208 42<332 334 332 336 332 334>
VStem: 2 62 336 42<-232 -208 -208 -208>
Fore
112 -440 m 1x70
 129.791 -466.686 165.187 -484.665 202.688 -484.665 c 0
 222.641 -484.665 243.19 -479.576 262 -468 c 0
 326.231 -422.66 336 -333.848 336 -232 c 2
 336 -208 l 1
 332 -208 l 1
 312 -212 304 -212 282 -212 c 0
 241.143 -212 148.295 -209.154 64 -108 c 0
 32.2877 -66.3775 0.531996 -3.89753 0.531996 76.8423 c 0
 0.531996 126.518 12.5527 183.105 44 246 c 0
 68 292 96 332 156 412 c 2
 184 448 l 1
 184 448 180 456 176 468 c 0
 137.405 558.055 115.883 645.923 115.883 726.602 c 0
 115.883 809.016 138.341 883.926 188 946 c 0
 202 964 232 992 240 996 c 0
 241.842 996.921 243.802 997.359 245.864 997.359 c 0
 271.299 997.359 312.351 930.69 340 880 c 0
 369.775 810.524 387.726 752.299 387.726 693.292 c 0
 387.726 610.252 352.175 525.666 264 406 c 2
 252 388 l 1
 260 368 l 2
 272 336 294 268 304 238 c 2
 310 212 l 1
 322 212 l 2
 396 204 458 162 492 96 c 0
 507.2 63.2621 513.765 31.0212 513.765 0.538572 c 0
 513.765 -93.0332 451.899 -170.038 388 -194 c 1
 378 -196 l 1
 378 -240 l 2
 376 -284 376 -304 372 -336 c 0
 364 -436 308 -512 232 -524 c 1
 220 -528 200 -528 186 -528 c 0
 108.453 -520.046 32 -462.791 32 -368 c 0
 32 -320.638 73.8838 -282.93 119.958 -282.93 c 0
 132.583 -282.93 145.522 -285.761 158 -292 c 1
 185.269 -312.452 197.245 -339.503 197.245 -364.996 c 0
 197.245 -405.46 167.073 -442 120 -442 c 1
 112 -440 l 1x70
302 862 m 2
 300 868 296 872 294 872 c 1
 292 876 l 1
 288 872 l 1
 221.229 832.544 169.344 760.196 164 664 c 0
 164 636 168 616 192 552 c 0
 198 530 212 492 214 490 c 1
 214 489.606 326.086 622.862 326.086 770.925 c 0
 326.086 773.28 326.058 775.638 326 778 c 0
 324 816 320 832 302 862 c 2
264 -84 m 1
 264 -96.5305 252.703 -108 242 -108 c 0
 222.772 -108 167.865 -71.7302 144 -24 c 0
 132.523 -1.04599 126.973 23.2252 126.973 48.0578 c 0
 126.973 66.4988 130.034 85.2494 136 104 c 0
 156 158 204 198 260 208 c 1
 268 212 l 1
 268 212 242 294 228 332 c 2
 222 348 l 1
 220 348 180 296 166 276 c 0
 84.9752 160.601 61.1782 77.1827 61.1782 18.535 c 0
 61.1782 -56.4238 100.053 -90.9174 108 -100 c 0
 173.244 -158.72 240.749 -171.027 285.3 -171.027 c 0
 307.812 -171.027 324.462 -167.884 332 -166 c 1
 334 -166 l 1
 334 -152 l 2
 324.875 -15.1257 297.265 92.923 292 120 c 1
 292 120 272 120 264 116 c 1
 213.487 103.973 186.618 67.0133 186.618 27.1436 c 0
 186.618 -7.06596 206.399 -43.4179 248 -68 c 1
 260 -72 262 -76 264 -84 c 1
452 0 m 0
 428.347 102.497 336 116.4 336 116 c 2
 340 96 l 2
 356 22 368 -56 372 -120 c 0
 376 -148 376 -152 376 -152 c 1
 378.252 -152 438.191 -125.045 452 -56 c 0
 453 -49 453.5 -39 453.5 -28.75 c 0
 453.5 -18.5 453 -8 452 0 c 0
EndSplineSet
EndChar
StartChar: clefs.percussion
Encoding: 57743 57743 172
Width: 500
GlyphClass: 2
Flags: HMW
VStem: 168 112<-244 0 0 244> 388 112<-244 0 0 244>
Fore
168 244 m 1
 172 250 l 1
 274 250 l 1
 280 244 l 1
 280 -244 l 1
 277.762 -246.428 275.39 -248.723 272 -250 c 1
 224 -250 l 1
 172 -248 l 1
 170 -248 l 1
 168 -244 l 1
 168 244 l 1
388 244 m 1
 394 250 l 1
 496 250 l 1
 496 248 l 1
 500 244 l 1
 500 -244 l 1
 494 -250 l 1
 444 -250 l 1
 392 -248 l 1
 388 -244 l 1
 388 244 l 1
EndSplineSet
EndChar
StartChar: clefs.percussion_change
Encoding: 57744 57744 173
Width: 398
GlyphClass: 3
Flags: HMW
VStem: 134 90<0 194 194 194> 310 90<0 194 194 194>
Fore
134 194 m 1
 140 200 l 1
 220 200 l 1
 220 196 l 1
 224 196 l 1
 224 -194 l 1
 221.014 -195.014 218.972 -196.972 218 -200 c 1
 140 -200 l 1
 136 -196 l 1
 134 0 l 1
 134 194 l 1
310 194 m 1
 316 200 l 1
 396 200 l 1
 396 196 l 1
 400 196 l 1
 400 -194 l 1
 397.014 -195.014 394.972 -196.972 394 -200 c 1
 316 -200 l 1
 312 -196 l 1
 310 0 l 1
 310 194 l 1
EndSplineSet
EndChar
StartChar: clefs.tab
Encoding: 57745 57745 174
Width: 698
GlyphClass: 2
Flags: HMW
HStem: -708 60 672 48<358 371>
Fore
376 720 m 0
 445.749 720 495.88 679.583 553.902 679.583 c 0
 557.24 679.583 560.604 679.717 564 680 c 0
 612.176 680 645.271 703.625 672 722 c 1
 673.333 722.333 674.833 722.5 676.426 722.5 c 0
 686.269 722.5 698.343 715.91 698.343 707.72 c 0
 698.343 687.851 633.261 629.803 547.581 629.803 c 0
 534.797 629.803 521.554 631.096 508 634 c 1
 500 602 l 2
 475.958 443.323 457.462 354.188 392 296 c 0
 358.108 258.343 318.467 258 308 258 c 0
 292 258 284 260 268 268 c 1
 251.507 273.498 196.032 319.968 196 320 c 1
 190 324 188 328 188 334 c 1
 192 344 200 354 208 356 c 1
 224.144 356 232.503 338.998 270 314 c 1
 277.857 310.429 285.969 308.643 294.063 308.643 c 0
 308.633 308.643 323.143 314.429 336 326 c 0
 356 346 370 380 376 426 c 0
 376 432 380 448 380 464 c 0
 382.67 533.429 399.995 667.968 400 668 c 1
 400 668 374 672 368 672 c 0
 348 672 324 668 308 660 c 1
 272.377 648.126 254.886 624.663 254.886 601.573 c 0
 254.886 585.531 263.329 569.67 280 558 c 0
 284 556 284 554 284 550 c 2
 288 540 288 532 282 524 c 1
 281.053 524 267.012 515.768 245.469 515.768 c 0
 233.609 515.768 219.475 518.263 204 526 c 0
 169.608 543.196 154.573 571.775 154.573 600.614 c 0
 154.573 636.47 177.817 672.727 216 688 c 0
 254 708 312 720 376 720 c 0
372 -116 m 0
 343.2 -116 317.062 -105.932 300 -84 c 1
 286 -96 l 2
 245.918 -131.367 187.993 -187.418 129.606 -187.418 c 0
 112.974 -187.418 96.3049 -182.87 80 -172 c 0
 62.2953 -163.148 56.8 -162.8 46 -152 c 1
 45.3723 -150.745 45.0893 -149.243 45.0893 -147.58 c 0
 45.0893 -138.646 53.2554 -125.058 60 -120 c 1
 62.0238 -118.988 64.2103 -118.546 66.5449 -118.546 c 0
 82.8029 -118.546 106.248 -140 132 -140 c 1
 160 -136 190 -116 240 -62 c 0
 328 32 392 136 428 244 c 0
 436.181 263.089 440.752 276.251 476 288 c 1
 525.282 288 545.334 270.948 545.334 257.672 c 0
 545.334 255.672 544.879 253.757 544 252 c 1
 544 216 l 2
 540 144 536 24 530 -60 c 0
 529.417 -74.5631 528.872 -87.1113 528.872 -97.6287 c 0
 528.872 -124.598 532.461 -138.214 548.223 -138.214 c 0
 556.092 -138.214 566.995 -134.821 582 -128 c 0
 600 -118 604 -116 608 -120 c 1
 610 -120 612 -128 612 -134 c 0
 612 -144 608 -152 598 -156 c 1
 584 -156 546 -188 518 -188 c 0
 504 -188 492 -184 482 -176 c 1
 454.694 -144.793 438.834 -28.4487 430 54 c 2
 430 60 l 1
 418 44 l 2
 398 20 374 -8 352 -30 c 2
 348 -36 344 -40 344 -40 c 1
 358.699 -69.3985 390.083 -72.145 402.703 -72.145 c 0
 405.603 -72.145 407.512 -72 408 -72 c 2
 424 -72 l 1
 424 -76 l 1
 426 -79.3333 426.889 -83.1111 426.889 -86.963 c 0
 426.889 -94.6667 423.333 -102.667 418 -108 c 1
 412 -112 388 -116 372 -116 c 0
208 -672 m 0
 261.892 -665.263 292 -597.464 292 -474 c 0
 292 -435.659 303.905 -336.482 310 -306 c 1
 310 -306 306 -308 304 -308 c 1
 264.236 -324.569 240.942 -352.118 240.942 -378.14 c 0
 240.942 -383.529 241.941 -388.853 244 -394 c 1
 250.345 -403.517 264 -409.953 264 -418 c 1
 268 -426 264 -440 260 -444 c 0
 256 -448 242 -452 228 -452 c 0
 169.916 -452 140.021 -412.927 140.021 -374.037 c 0
 140.021 -357.686 145.305 -341.368 156 -328 c 0
 184 -286 256 -256 344 -248 c 2
 382 -248 l 2
 492 -248 560 -272 582 -316 c 0
 586.188 -326.17 588.228 -337.414 588.228 -349.143 c 0
 588.228 -376.625 577.026 -406.768 556 -432 c 0
 532.433 -455.567 520.782 -459.414 520 -460 c 1
 520 -460 528 -460 536 -464 c 1
 594.586 -475.717 621.809 -509.948 621.809 -552.018 c 0
 621.809 -576.944 612.252 -604.622 594 -632 c 0
 534.035 -707.956 463.867 -708 444 -708 c 0
 401.282 -708 369.856 -696.729 344 -668 c 0
 335.633 -659.633 332.128 -654.183 332.128 -648.261 c 0
 332.128 -645.689 332.789 -643.028 334 -640 c 1
 339.071 -631.548 351.285 -623.097 359.775 -623.097 c 0
 361.331 -623.097 362.761 -623.381 364 -624 c 1
 366 -626 370 -628 374 -632 c 0
 384.301 -643.772 398.809 -649.095 414.492 -649.095 c 0
 450.09 -649.095 491.743 -621.672 504 -580 c 0
 506.725 -571.485 508.057 -563.435 508.057 -555.917 c 0
 508.057 -519.29 476.42 -495.319 420 -492 c 0
 412 -492 408 -492 404 -490 c 0
 400 -488 398 -472 404 -464 c 1
 408 -456 412 -452 424 -452 c 0
 458.271 -448.192 486.993 -410.201 486.993 -372.409 c 0
 486.993 -362.019 484.823 -351.645 480 -342 c 0
 460.7 -313.05 408.023 -300.004 408 -300 c 1
 404 -316 l 2
 366.405 -560.365 349.613 -603.048 308 -662 c 1
 259.81 -710.19 269.986 -701.007 232 -720 c 1
 223.641 -721.393 216.132 -722.06 209.267 -722.06 c 0
 178.828 -722.06 161.052 -708.957 138 -688 c 1
 115.709 -676.854 108.979 -666.667 108.979 -658.259 c 0
 108.979 -646.969 121.113 -638.887 124 -636 c 1
 126.667 -634.667 128.889 -633.778 131.259 -633.778 c 0
 136 -633.778 141.333 -637.333 152 -648 c 1
 180 -668 188 -672 208 -672 c 0
EndSplineSet
EndChar
